<svg version="1.1" id="Layer_1" xmlns="http://www.w3.org/2000/svg" xmlns:xlink="http://www.w3.org/1999/xlink" x="0px" y="0px"
	 width="100%" viewBox="0 0 600 525" enable-background="new 0 0 600 525" xml:space="preserve">
<path fill="#F56857" opacity="1.000000" stroke="none"
	d="
M261.000000,0.999999
	C287.354218,1.000000 313.708466,1.000000 340.263245,1.377067
	C341.145172,2.158387 341.791931,2.831582 342.513367,2.924403
	C348.348480,3.675174 354.298706,3.846774 360.023956,5.077974
	C379.052368,9.169973 398.176208,12.990738 416.936523,18.112959
	C440.212921,24.468216 462.045685,34.583370 483.035370,46.499310
	C500.253052,56.273861 516.518372,67.472145 531.092224,80.809334
	C547.379578,95.714584 562.205627,111.976631 573.709595,131.089371
	C586.254456,151.931396 595.425720,173.932037 599.081421,198.094772
	C599.189758,198.810226 600.337097,199.368454 601.000000,200.000000
	C601.000000,217.020889 601.000000,234.041794 600.671692,251.195526
	C599.926331,251.832138 599.280884,252.274261 599.125793,252.848755
	C595.706604,265.513885 593.260986,278.530396 588.767700,290.797882
	C580.385376,313.683167 567.041870,333.845612 550.607117,351.748566
	C531.862183,372.168030 510.546661,389.456360 486.421173,403.403076
	C468.046692,414.025238 449.010742,422.959351 429.054169,430.034149
	C410.038818,436.775208 390.673920,442.235352 370.669495,445.092224
	C355.630890,447.239838 340.581726,450.254059 325.468811,450.735870
	C297.970795,451.612579 270.373901,452.028412 243.407135,447.123444
	C241.963913,448.948944 241.028183,450.546509 239.716858,451.726807
	C227.361969,462.847565 215.463348,474.558167 202.427246,484.820923
	C179.682434,502.726837 155.023117,517.377869 126.375786,524.093628
	C125.799881,524.228638 125.453476,525.342712 125.000000,526.000000
	C117.979050,526.000000 110.958107,526.000000 103.804626,525.764282
	C102.875893,524.708984 102.184128,523.741699 101.266991,523.093079
	C93.900391,517.883240 92.187363,507.714508 96.462952,500.046265
	C104.922279,484.874451 113.812119,469.920410 121.669632,454.442627
	C127.656395,442.649841 130.476883,429.691895 131.994461,416.526886
	C132.296417,413.907440 131.862579,412.014160 128.856964,410.852356
	C125.402023,409.516876 122.276749,407.327423 119.010773,405.504395
	C101.720680,395.853363 85.463379,384.636475 70.927650,371.240326
	C54.693123,356.278564 39.837116,340.054077 28.313080,320.948364
	C15.738279,300.100555 6.553517,278.101532 2.918547,253.918839
	C2.810396,253.199341 1.662908,252.636093 1.000002,252.000000
	C1.000000,234.979111 1.000000,217.958206 1.331939,200.800568
	C2.105253,199.826508 2.753524,199.036026 2.955270,198.144501
	C4.567110,191.021591 5.714573,183.771164 7.714402,176.762436
	C15.714759,148.723816 30.151350,124.056633 49.351017,102.424698
	C63.347157,86.655487 79.089592,72.606239 96.635483,60.586609
	C114.308678,48.479767 132.795715,37.954548 152.599625,29.950275
	C167.151550,24.068718 181.920303,18.462814 197.015518,14.250185
	C217.236038,8.607243 237.868118,4.455854 258.914337,2.913736
	C259.652344,2.859662 260.306671,1.663732 261.000000,0.999999
M482.650970,91.937561
	C474.080658,86.621704 465.754669,80.852615 456.893890,76.075508
	C430.973145,62.100780 403.359619,52.844444 374.557373,46.689747
	C353.470795,42.183800 332.195557,39.814182 310.738983,39.092888
	C290.098877,38.399044 269.445587,39.223301 249.105225,43.081280
	C232.523041,46.226437 215.932251,49.568684 199.633652,53.906971
	C177.712875,59.741737 157.082382,68.987297 137.361908,80.229988
	C120.542000,89.819054 104.997726,101.154037 91.031822,114.543198
	C78.315804,126.734093 67.463882,140.361115 58.564781,155.715881
	C46.434738,176.645386 39.811428,198.958817 39.074265,223.033524
	C38.903435,228.612656 39.160763,234.307648 40.108917,239.795944
	C41.847660,249.860504 43.399479,260.089478 46.571625,269.743073
	C51.235741,283.937103 58.454342,297.027710 67.026009,309.364288
	C76.385841,322.835144 87.730370,334.538086 99.973167,345.193176
	C115.847633,359.009033 133.846130,369.887177 152.381104,379.878052
	C163.044830,385.626038 168.873138,395.253693 169.856644,407.079834
	C171.175583,422.939026 168.550201,438.446960 163.222137,453.472931
	C161.549576,458.189819 160.041016,462.964813 157.991776,469.109375
	C165.610504,463.804321 172.419846,459.855988 178.287201,454.811920
	C190.428650,444.373932 202.894638,434.110535 213.679596,422.355530
	C224.145081,410.948608 236.469345,407.868408 250.746750,409.093079
	C262.984161,410.142731 275.153259,412.286957 287.401733,412.822601
	C298.796051,413.320923 310.305695,412.893494 321.673889,411.868347
	C337.946106,410.401001 354.208282,408.476837 370.344116,405.922546
	C395.668030,401.913757 419.835632,393.732208 442.987488,382.897797
	C473.642822,368.551971 501.273224,349.926514 523.616943,323.991638
	C535.113770,310.646942 544.631042,296.240509 551.526550,280.018555
	C561.892578,255.632095 565.472229,230.551773 561.086670,204.244736
	C555.779053,172.407471 540.750671,145.560623 518.794067,122.678299
	C508.036072,111.466690 495.242798,102.207977 482.650970,91.937561
z"/>
<path fill="#F56857" opacity="1.000000" stroke="none"
	d="
M114.000565,222.133118
	C114.217102,226.946091 113.990738,231.233261 109.934921,233.978149
	C106.634880,236.211548 102.992790,237.158859 99.365349,234.711823
	C94.580742,231.484192 93.300194,226.649673 94.076416,221.272598
	C95.680428,210.161346 97.275307,198.948257 103.027794,189.061447
	C107.745880,180.952423 112.485886,172.723190 118.302223,165.411133
	C135.636200,143.619614 158.909348,129.641113 183.721970,118.159447
	C202.326294,109.550560 221.854324,103.315033 242.129150,100.118576
	C256.821411,97.802261 271.682465,96.486938 286.502167,95.083344
	C292.295807,94.534615 298.265137,94.357697 304.000153,95.140984
	C308.597778,95.768936 311.451996,100.808624 310.993866,105.037407
	C310.502197,109.575584 306.220642,113.745941 301.551575,113.974998
	C293.127869,114.388229 284.625183,114.088356 276.286591,115.132881
	C263.206848,116.771294 250.181778,118.996773 237.232193,121.486588
	C219.298599,124.934677 202.125732,131.092361 185.869034,139.200638
	C158.839554,152.681992 134.599594,169.841415 120.820236,197.935349
	C117.249802,205.214890 116.205734,213.733536 114.000565,222.133118
z"/>
</svg>