<svg version="1.1" id="Layer_1" xmlns="http://www.w3.org/2000/svg" xmlns:xlink="http://www.w3.org/1999/xlink" x="0px" y="0px"
	 width="100%" viewBox="0 0 583 583" enable-background="new 0 0 583 583" xml:space="preserve">
<path fill="#1E4153" opacity="1.000000" stroke="none"
	d="
M103.319717,398.988953
	C103.216125,398.839813 103.112534,398.690643 103.257660,398.270325
	C103.506378,397.999146 104.003967,397.996338 104.372681,397.956970
	C109.576996,395.252258 109.960342,391.576111 105.811127,386.341522
	C104.871399,387.231323 103.933792,388.119110 102.686111,388.846375
	C101.249405,385.790588 100.122772,382.895386 99.363258,380.004578
	C101.517448,380.402832 103.304520,380.796722 105.091599,381.190582
	C105.210289,378.526733 105.772148,375.767517 105.229424,373.246033
	C105.012550,372.238434 102.418015,371.440521 100.795746,371.138733
	C99.623878,370.920715 98.270325,371.679352 96.696312,371.854492
	C95.336929,370.078125 93.896416,368.578033 93.298393,366.795349
	C91.926888,362.706818 91.200867,358.398956 89.786995,354.328064
	C87.320290,347.225739 84.619301,340.200378 81.836441,333.214478
	C80.749832,330.486755 79.075714,327.999176 77.846291,325.320923
	C75.251488,319.668213 72.773430,313.961945 69.909676,307.517517
	C67.007744,307.734192 65.707603,304.435333 65.194099,300.888672
	C64.370132,295.197662 63.705177,289.583252 65.886955,283.812256
	C68.366638,277.253235 73.802414,273.660248 79.120926,270.686920
	C83.133713,268.443573 88.632713,268.802917 93.493195,268.184448
	C94.342140,268.076447 95.865768,268.635742 96.125542,269.274231
	C98.008965,273.903809 100.775230,271.301880 102.956619,270.263977
	C106.385574,272.319427 109.763977,273.835297 112.501961,276.118988
	C115.685066,278.773926 116.461601,284.702789 122.903534,282.783905
	C123.745407,282.533142 125.316826,286.472046 127.088501,287.259369
	C131.504333,289.221649 133.068512,292.144653 131.736923,296.091492
	C134.694321,298.114471 138.289291,299.287720 139.586655,301.697754
	C143.784180,309.495392 147.209671,317.715637 150.789719,325.836060
	C152.963699,330.767181 154.888062,335.808929 156.891647,340.814148
	C157.317871,341.878876 158.244034,343.430664 157.845734,344.025970
	C155.376556,347.716125 158.999573,349.989563 159.966232,352.640778
	C160.647461,354.509155 163.472900,355.696259 165.489777,356.947754
	C167.360245,358.108368 169.428116,358.950897 172.434921,360.442322
	C175.716812,360.442322 180.300919,360.558746 184.875732,360.403015
	C188.134842,360.292053 191.584213,360.394531 194.579620,359.346710
	C197.918991,358.178558 200.644211,355.247223 203.985535,354.093689
	C210.651443,351.792419 213.640518,345.436493 218.846909,341.592804
	C219.159103,341.362335 218.872452,340.320679 218.864441,339.656464
	C218.864914,339.347717 218.998840,339.116150 219.857422,338.946106
	C221.964890,336.950500 223.481171,334.970520 224.997437,332.990509
	C225.002380,332.645020 225.134521,332.358093 225.986389,332.021271
	C227.969162,331.084106 230.194809,330.553619 230.614227,329.378479
	C233.368011,321.662872 241.105484,316.977173 242.008942,307.760406
	C242.792038,299.771484 246.662567,292.099701 249.036774,284.247925
	C251.218521,277.032623 252.777313,269.592255 255.471725,262.582031
	C257.153503,258.206421 257.135620,252.314377 263.224854,250.453720
	C263.825592,250.270172 263.906189,248.214096 264.133209,247.009262
	C264.883026,243.029495 265.211914,238.923279 266.413635,235.088486
	C267.733612,230.876358 269.915497,226.941193 271.587585,222.830734
	C273.483917,218.168930 275.225037,213.444077 277.045319,208.751175
	C278.983582,203.753952 281.091583,198.813797 282.776611,193.733017
	C283.222778,192.387787 282.385132,190.616791 282.136963,189.041290
	C282.293091,188.498108 282.449249,187.954941 283.185852,187.202255
	C285.732208,186.253326 287.698151,185.513901 289.345306,184.894379
	C288.951843,182.971405 288.127808,181.446442 288.485596,180.285797
	C290.767761,172.882645 293.085968,165.474411 295.840057,158.238251
	C297.921570,152.769180 300.840302,147.623672 303.060638,142.200775
	C304.531281,138.608948 305.172272,134.677399 306.643433,131.085846
	C308.434937,126.712250 310.981781,122.643044 312.702484,118.246689
	C314.779358,112.940392 316.187286,107.376129 318.142334,102.017479
	C322.114441,91.130341 326.013184,80.203003 330.491180,69.522446
	C331.753601,66.511459 332.039856,61.652046 337.092255,62.151016
	C337.356018,59.237267 337.209198,56.555351 337.897064,54.108055
	C339.608459,48.019230 341.026917,41.695126 343.858398,36.123859
	C346.011322,31.887699 345.048828,23.973019 353.944427,25.831560
	C353.506348,23.366880 353.192230,21.599510 352.878113,19.832142
	C352.878113,19.832144 352.917297,19.930500 353.120117,19.856339
	C353.546814,19.531353 353.770721,19.280527 353.994598,19.029703
	C353.994598,19.029703 354.214081,18.785446 354.821838,18.853043
	C357.187897,18.685381 359.090576,18.801409 360.677521,18.149151
	C365.483124,16.173977 370.260315,15.047970 375.391083,16.795727
	C375.789062,16.931301 376.461212,16.262011 377.005951,15.966809
	C390.464813,19.333057 399.120422,34.679371 394.193817,48.126534
	C386.307159,69.653458 377.725830,90.927444 369.334625,112.267654
	C351.031189,158.816559 332.631317,205.327591 314.389252,251.900497
	C313.142883,255.082520 312.138550,258.685120 312.298523,262.031097
	C312.778168,272.063202 323.343719,278.552124 332.116821,273.728241
	C337.165039,270.952484 341.013763,265.995270 345.665619,262.211975
	C345.420166,264.474884 344.950531,266.556274 344.396301,268.614899
	C341.609894,278.964905 341.885651,289.172852 347.958374,298.195770
	C350.631012,302.166809 355.225830,304.844147 358.982117,308.077179
	C359.016327,308.045502 358.929199,308.078430 359.033875,308.386292
	C359.745789,308.830261 360.352997,308.966370 360.978851,309.058044
	C360.997467,309.013580 360.928162,309.080627 361.033752,309.386993
	C361.746796,309.831848 362.354248,309.970337 362.991211,310.076538
	C363.020691,310.044250 362.940674,310.079407 363.149963,310.407288
	C370.828644,313.494690 377.981079,312.182831 384.991882,309.051300
	C382.076904,319.991150 386.043457,329.827637 390.112488,339.594910
	C313.376678,337.962036 257.597473,372.249237 219.222763,437.717865
	C219.035141,435.281799 219.403976,432.835388 219.772812,430.389008
	C219.173676,430.137268 218.574539,429.885498 217.975418,429.633728
	C216.989639,431.179932 215.108002,432.804840 215.235229,434.253265
	C215.410950,436.253632 217.101196,438.121002 218.142792,440.045319
	C214.412567,448.625946 210.699875,457.214294 206.917252,465.771759
	C206.628662,466.424652 205.845078,466.858734 204.713135,467.647217
	C202.733582,467.428497 201.349609,466.896057 199.928284,466.496460
	C194.576248,464.991852 193.169037,466.091248 192.987289,471.678040
	C192.830612,476.494629 192.565247,481.307709 192.329132,486.538727
	C193.521317,486.689575 194.762497,486.846619 196.051453,487.401245
	C195.733444,491.532562 195.367630,495.266296 194.630463,498.995117
	C191.415573,498.044189 189.548065,498.206390 188.343597,501.758148
	C187.729950,503.567657 184.814240,504.528473 183.096237,506.050262
	C181.305252,507.636719 179.523026,509.299408 178.082825,511.191925
	C177.141342,512.429016 176.929001,514.193359 176.192673,515.619568
	C173.991196,519.883789 174.304886,529.138977 177.321732,530.948303
	C180.831879,533.053467 180.143890,535.623047 179.550018,538.449707
	C176.444229,538.449707 173.588852,538.449707 171.157364,538.449707
	C170.664474,535.948853 170.078476,533.523010 169.724991,531.063782
	C169.066010,526.479187 168.572525,521.869629 163.279312,519.969238
	C163.048203,519.886230 163.202209,518.988708 162.983643,518.571899
	C161.267014,515.298279 158.819763,513.587524 154.709351,514.787964
	C153.949203,512.714905 153.473694,510.858063 153.307495,509.130798
	C155.280426,508.371765 157.932144,507.815460 158.369614,506.514526
	C158.983246,504.689850 158.669159,501.555023 157.427017,500.373535
	C156.073486,499.086151 153.205765,499.390717 150.604736,499.000061
	C146.006699,498.228088 143.852478,494.510651 145.361176,490.036316
	C147.876617,490.985962 149.690399,490.624847 148.874695,487.977753
	C148.140244,485.594391 146.368225,483.530762 145.053848,481.326111
	C144.622635,482.609772 144.205276,483.898315 143.754272,485.174988
	C143.534866,485.796051 143.252594,486.394897 142.731216,486.789948
	C140.029968,482.361969 135.634811,478.792755 138.195251,472.728027
	C139.133270,471.520905 139.876190,470.586487 140.619095,469.652039
	C139.078781,469.101807 137.538483,468.551514 135.633789,467.957062
	C133.513153,464.607361 131.756882,461.301849 130.394928,457.996399
	C133.883575,458.230499 135.118134,456.318817 134.855896,453.727234
	C134.474503,449.958130 131.262894,451.283752 128.613785,450.990021
	C126.590904,450.056122 124.954239,449.132202 123.317581,448.208282
	C123.317581,448.208282 123.289719,448.030243 123.485260,447.514313
	C122.785507,442.999054 121.890221,438.999725 121.391556,434.987610
	C125.439842,434.138153 124.057297,431.477692 123.551277,429.469208
	C122.165527,423.968872 120.583878,418.514099 118.916031,413.091705
	C118.579857,411.998779 117.694588,410.701569 116.733124,410.312561
	C116.145683,410.074890 114.929787,411.390533 113.733292,411.786377
	C113.308739,409.221649 111.948357,408.116211 110.025490,406.723236
	C107.334747,404.773865 105.513161,401.624786 103.319717,398.988953
M230.569214,410.930573
	C230.891571,410.625366 231.213928,410.320129 231.536316,410.014923
	C231.326706,409.833099 231.117096,409.651306 230.907486,409.469482
	C230.604691,409.979370 230.301880,410.489258 229.560837,411.214691
	C229.287643,411.413666 229.099854,411.674194 228.297668,411.930450
	C221.378006,410.298218 223.796127,416.906067 220.401428,419.318756
	C226.799210,420.133545 226.799210,420.133545 229.440292,411.784821
	C229.713043,411.585114 229.899826,411.323914 230.569214,410.930573
M199.203156,456.223816
	C201.019684,461.269745 204.647903,457.899200 207.854782,458.220276
	C204.683487,454.583679 206.706100,453.417023 210.415268,452.728760
	C209.861267,450.182404 209.311462,447.655365 208.761658,445.128326
	C208.112595,444.982147 207.463547,444.835968 206.814484,444.689789
	C204.231247,448.283142 201.648026,451.876526 199.203156,456.223816
M219.826675,421.096466
	C216.612610,421.152771 215.518509,422.047485 216.710220,424.080750
	C217.882187,426.080292 219.952820,427.553101 221.629105,429.257050
	C222.193573,428.815399 222.758041,428.373779 223.322510,427.932159
	C222.207809,425.885712 221.093109,423.839294 219.826675,421.096466
M212.609695,436.797485
	C212.215118,436.793304 211.820557,436.789154 211.425980,436.784973
	C211.424454,436.948730 211.411942,437.254730 211.422958,437.255585
	C211.815613,437.285889 212.210464,437.287598 212.609695,436.797485
z"/>
<path fill="#49B98E" opacity="1.000000" stroke="none"
	d="
M269.985077,575.631714
	C261.331085,575.724854 252.673813,575.707886 244.024658,575.964417
	C240.458862,576.070129 240.287292,573.471313 240.162216,571.358887
	C239.366714,557.924316 237.597321,544.405884 238.390961,531.048218
	C240.031174,503.442017 247.976440,477.391449 262.194244,453.531281
	C287.382324,411.260803 324.142303,385.769043 372.944092,378.135315
	C377.691711,377.392670 382.571350,376.994385 387.362122,377.173706
	C391.823456,377.340729 393.798431,375.570160 395.203918,371.503448
	C400.093323,357.355988 405.130249,343.252075 410.481873,329.273529
	C419.284729,306.280121 428.392151,283.403381 437.343994,260.466858
	C448.714569,231.332993 460.042755,202.182556 471.439209,173.058823
	C472.463928,170.440201 473.854095,167.964569 475.701111,165.192902
	C478.524445,165.802429 482.568268,166.528076 482.627899,167.498581
	C483.138031,175.798401 482.942505,184.142700 482.895569,192.473343
	C482.892181,193.074677 482.546387,193.831604 482.106110,194.247818
	C478.846619,197.328827 478.787781,200.097488 481.877777,203.624237
	C484.679993,206.822433 483.093658,209.703720 478.975616,211.148300
	C477.414917,211.695786 476.174164,213.487061 475.080719,214.933090
	C474.154388,216.158096 473.843750,217.847443 472.921661,219.077148
	C470.637360,222.123657 469.565613,224.825104 473.600220,227.385834
	C476.617188,229.300705 476.764740,231.573883 473.611420,233.542709
	C472.514130,234.227814 471.123108,234.804306 469.864563,234.807709
	C463.903900,234.823853 462.773865,238.330200 462.903473,243.387314
	C462.967804,245.895950 462.465363,248.634811 461.426880,250.907425
	C459.696716,254.693802 457.112274,258.088409 455.360657,261.867249
	C454.825653,263.021362 455.667297,264.957458 456.191559,266.423431
	C456.895447,268.391724 458.942505,270.576874 458.477112,272.062469
	C458.044891,273.442169 455.065704,274.822418 453.217316,274.809967
	C447.706177,274.772919 446.960175,278.046326 446.989685,282.312744
	C447.015808,286.089600 447.383911,289.704834 444.002869,292.868134
	C441.807343,294.922302 440.496918,298.249908 439.614929,301.249573
	C439.137329,302.873779 439.783234,305.613892 440.971252,306.800323
	C445.132721,310.956299 444.727997,312.927246 438.928925,315.245117
	C437.539764,315.800354 436.146973,317.109833 435.422638,318.436523
	C431.756012,325.151825 428.251465,331.958282 424.825806,338.800720
	C423.961731,340.526672 422.931976,342.571075 423.116760,344.350983
	C423.906860,351.961761 419.034302,357.390778 416.460205,363.752319
	C414.305817,369.076477 409.670715,373.651489 410.943512,380.231323
	C411.520782,383.215454 410.085907,385.130768 407.027557,386.255920
	C405.444244,386.838409 403.485596,388.567688 403.201569,390.064453
	C402.606598,393.200165 401.381958,394.706146 398.162659,395.162964
	C396.998352,395.328156 395.326508,396.999603 395.163116,398.162994
	C394.710266,401.388092 393.209808,402.677643 390.057068,403.201111
	C388.876678,403.397064 387.146118,405.584503 387.230133,406.751312
	C387.335785,408.218414 388.876221,410.575073 390.095581,410.780701
	C393.589630,411.370026 395.562317,413.056427 394.886169,416.380676
	C394.122925,420.132843 398.263214,425.797516 390.851288,427.337616
	C389.475800,427.623474 388.011475,429.559570 387.498474,431.047821
	C387.239166,431.800140 388.938141,434.163330 389.882904,434.243042
	C396.055511,434.763855 394.877289,439.177612 395.029053,443.057556
	C395.158112,446.356476 395.448303,449.656250 395.831543,452.936401
	C396.363953,457.493347 394.425812,459.910461 389.946289,459.994171
	C388.113678,460.028442 386.274353,460.093201 384.447906,459.982391
	C381.262482,459.789124 379.876984,461.147827 379.970184,464.381500
	C380.099823,468.877502 380.277405,473.404999 379.874908,477.868561
	C379.692841,479.887451 378.618286,482.782928 377.121155,483.465393
	C375.524963,484.192993 372.923431,482.873108 370.813019,482.265778
	C369.039673,481.755432 367.341309,480.984558 365.609772,480.329010
	C365.080872,482.461914 364.053375,484.634094 364.217163,486.712402
	C364.309845,487.887848 366.185211,489.463745 367.560516,489.896454
	C371.799683,491.230164 373.988220,495.121002 371.058899,498.036224
	C367.509369,501.568665 367.395782,505.634155 368.222839,509.520966
	C368.837585,512.410156 371.140137,515.250671 373.422699,517.296387
	C374.164978,517.961670 377.180878,515.902161 379.227753,515.353210
	C381.206818,514.822510 383.539337,513.911255 385.223358,514.523682
	C386.539612,515.002258 387.762634,517.513306 387.874054,519.197510
	C388.214386,524.341370 387.961273,529.522461 388.011566,534.688354
	C388.042236,537.835388 386.786804,539.529846 383.496429,540.144653
	C382.185364,540.389587 380.136047,542.272949 380.191193,543.316956
	C380.506409,549.285583 377.246002,550.085999 372.326294,550.065491
	C341.328583,549.936157 310.329498,549.907837 279.332245,550.084656
	C273.736023,550.116577 268.146118,551.253784 262.834320,551.849121
	C264.479858,554.473450 266.313263,556.328003 266.864594,558.506958
	C267.900269,562.599976 271.484802,565.112793 274.556366,562.368835
	C279.674896,557.796143 282.091034,561.890137 285.277100,565.000000
	C283.659393,565.000000 282.041656,564.999939 280.423950,565.000061
	C272.424408,565.000610 264.422058,564.892273 256.427734,565.096741
	C254.889236,565.136169 253.382141,566.402771 251.860565,567.103210
	C252.072983,567.709351 252.285400,568.315430 252.497818,568.921570
	C257.419739,568.921570 262.341675,568.921570 266.900757,568.921570
	C268.116272,571.566040 269.050690,573.598877 269.985077,575.631714
z"/>
<path fill="#47B68D" opacity="1.000000" stroke="none"
	d="
M270.444397,575.739075
	C269.050690,573.598877 268.116272,571.566040 266.900757,568.921570
	C262.341675,568.921570 257.419739,568.921570 252.497818,568.921570
	C252.285400,568.315430 252.072983,567.709351 251.860565,567.103210
	C253.382141,566.402771 254.889236,565.136169 256.427734,565.096741
	C264.422058,564.892273 272.424408,565.000610 280.423950,565.000061
	C282.041656,564.999939 283.659393,565.000000 285.277100,565.000000
	C282.091034,561.890137 279.674896,557.796143 274.556366,562.368835
	C271.484802,565.112793 267.900269,562.599976 266.864594,558.506958
	C266.313263,556.328003 264.479858,554.473450 262.834320,551.849121
	C268.146118,551.253784 273.736023,550.116577 279.332245,550.084656
	C310.329498,549.907837 341.328583,549.936157 372.326294,550.065491
	C377.246002,550.085999 380.506409,549.285583 380.191193,543.316956
	C380.136047,542.272949 382.185364,540.389587 383.496429,540.144653
	C386.786804,539.529846 388.042236,537.835388 388.011566,534.688354
	C387.961273,529.522461 388.214386,524.341370 387.874054,519.197510
	C387.762634,517.513306 386.539612,515.002258 385.223358,514.523682
	C383.539337,513.911255 381.206818,514.822510 379.227753,515.353210
	C377.180878,515.902161 374.164978,517.961670 373.422699,517.296387
	C371.140137,515.250671 368.837585,512.410156 368.222839,509.520966
	C367.395782,505.634155 367.509369,501.568665 371.058899,498.036224
	C373.988220,495.121002 371.799683,491.230164 367.560516,489.896454
	C366.185211,489.463745 364.309845,487.887848 364.217163,486.712402
	C364.053375,484.634094 365.080872,482.461914 365.609772,480.329010
	C367.341309,480.984558 369.039673,481.755432 370.813019,482.265778
	C372.923431,482.873108 375.524963,484.192993 377.121155,483.465393
	C378.618286,482.782928 379.692841,479.887451 379.874908,477.868561
	C380.277405,473.404999 380.099823,468.877502 379.970184,464.381500
	C379.876984,461.147827 381.262482,459.789124 384.447906,459.982391
	C386.274353,460.093201 388.113678,460.028442 389.946289,459.994171
	C394.425812,459.910461 396.363953,457.493347 395.831543,452.936401
	C395.448303,449.656250 395.158112,446.356476 395.029053,443.057556
	C394.877289,439.177612 396.055511,434.763855 389.882904,434.243042
	C388.938141,434.163330 387.239166,431.800140 387.498474,431.047821
	C388.011475,429.559570 389.475800,427.623474 390.851288,427.337616
	C398.263214,425.797516 394.122925,420.132843 394.886169,416.380676
	C395.562317,413.056427 393.589630,411.370026 390.095581,410.780701
	C388.876221,410.575073 387.335785,408.218414 387.230133,406.751312
	C387.146118,405.584503 388.876678,403.397064 390.057068,403.201111
	C393.209808,402.677643 394.710266,401.388092 395.163116,398.162994
	C395.326508,396.999603 396.998352,395.328156 398.162659,395.162964
	C401.381958,394.706146 402.606598,393.200165 403.201569,390.064453
	C403.485596,388.567688 405.444244,386.838409 407.027557,386.255920
	C410.085907,385.130768 411.520782,383.215454 410.943512,380.231323
	C409.670715,373.651489 414.305817,369.076477 416.460205,363.752319
	C419.034302,357.390778 423.906860,351.961761 423.116760,344.350983
	C422.931976,342.571075 423.961731,340.526672 424.825806,338.800720
	C428.251465,331.958282 431.756012,325.151825 435.422638,318.436523
	C436.146973,317.109833 437.539764,315.800354 438.928925,315.245117
	C444.727997,312.927246 445.132721,310.956299 440.971252,306.800323
	C439.783234,305.613892 439.137329,302.873779 439.614929,301.249573
	C440.496918,298.249908 441.807343,294.922302 444.002869,292.868134
	C447.383911,289.704834 447.015808,286.089600 446.989685,282.312744
	C446.960175,278.046326 447.706177,274.772919 453.217316,274.809967
	C455.065704,274.822418 458.044891,273.442169 458.477112,272.062469
	C458.942505,270.576874 456.895447,268.391724 456.191559,266.423431
	C455.667297,264.957458 454.825653,263.021362 455.360657,261.867249
	C457.112274,258.088409 459.696716,254.693802 461.426880,250.907425
	C462.465363,248.634811 462.967804,245.895950 462.903473,243.387314
	C462.773865,238.330200 463.903900,234.823853 469.864563,234.807709
	C471.123108,234.804306 472.514130,234.227814 473.611420,233.542709
	C476.764740,231.573883 476.617188,229.300705 473.600220,227.385834
	C469.565613,224.825104 470.637360,222.123657 472.921661,219.077148
	C473.843750,217.847443 474.154388,216.158096 475.080719,214.933090
	C476.174164,213.487061 477.414917,211.695786 478.975616,211.148300
	C483.093658,209.703720 484.679993,206.822433 481.877777,203.624237
	C478.787781,200.097488 478.846619,197.328827 482.106110,194.247818
	C482.546387,193.831604 482.892181,193.074677 482.895569,192.473343
	C482.942505,184.142700 483.138031,175.798401 482.627899,167.498581
	C482.568268,166.528076 478.524445,165.802429 475.938843,164.968475
	C480.305084,154.699661 496.649719,147.199127 510.968903,153.903885
	C523.047119,159.559357 529.367188,174.478485 524.285217,187.241455
	C514.252686,212.437195 503.873993,237.494995 493.661652,262.619232
	C480.128143,295.913971 466.568146,329.198120 453.117645,362.526367
	C446.938232,377.838013 440.435669,393.054413 435.120239,408.668213
	C431.007416,420.749481 427.906830,433.263458 425.461060,445.800598
	C422.721954,459.841125 421.204865,474.121246 419.208282,488.304474
	C418.751617,491.548523 418.508820,494.822632 417.835876,498.799988
	C417.341431,510.274567 417.159271,521.031860 417.059570,531.789978
	C417.052887,532.510437 417.670624,533.236694 417.997894,533.960266
	C418.583496,542.081421 419.169098,550.202576 419.484222,559.057495
	C419.213745,563.913818 419.213745,568.036377 419.213745,571.379883
	C416.616486,573.141296 414.809814,574.366638 413.003143,575.591919
	C396.607117,575.696838 380.211151,575.817566 363.815002,575.897766
	C358.512512,575.923645 353.209503,575.843140 347.316284,575.347168
	C339.743866,574.696838 332.762085,574.497620 325.778961,574.377625
	C325.528595,574.373352 325.264832,575.149963 325.007294,575.562683
	C318.973541,575.643005 312.939758,575.723267 306.342712,575.374329
	C303.855011,575.165894 301.930634,575.386780 300.006226,575.607666
	C290.305389,575.687256 280.604523,575.766846 270.444397,575.739075
M328.012177,568.995789
	C328.927032,568.515076 329.841888,568.034363 330.756775,567.553650
	C330.131134,566.866150 329.576721,565.689209 328.866028,565.585815
	C326.956085,565.307739 324.965546,565.638245 323.031586,565.460205
	C316.043610,564.816650 308.411499,565.589355 302.256073,562.950317
	C295.179749,559.916504 294.156860,558.725342 288.458557,564.775757
	C292.527588,565.128113 297.331757,563.937500 297.797424,568.999390
	C307.903381,568.999390 317.509460,568.999390 328.012177,568.995789
M384.464691,564.000000
	C390.147583,564.296509 395.830475,564.592957 401.513336,564.889404
	C394.522491,558.991577 375.931824,558.593872 372.830231,564.000000
	C376.733704,564.000000 380.113251,564.000000 384.464691,564.000000
M348.509460,566.684998
	C348.584564,567.279907 348.649567,568.393555 348.736206,568.395264
	C353.088654,568.479980 357.442963,568.469727 361.797058,568.469727
	C361.806183,567.710632 361.815277,566.951538 361.824371,566.192444
	C357.616333,566.192444 353.408264,566.192444 348.509460,566.684998
M369.188965,569.025635
	C368.628937,569.367737 368.068909,569.709778 366.775299,570.499878
	C372.928772,570.499878 378.117462,570.499878 383.306122,570.499878
	C383.310760,570.001221 383.315399,569.502625 383.320007,569.003967
	C378.894196,569.003967 374.468414,569.003967 369.188965,569.025635
M337.495819,563.392456
	C336.804260,562.371033 336.137817,560.536438 335.415405,560.514160
	C334.262024,560.478516 333.071472,561.647522 331.896637,562.307190
	C332.034821,562.809937 332.173035,563.312744 332.311218,563.815552
	C333.830994,563.815552 335.350800,563.815552 337.495819,563.392456
M481.568451,162.296585
	C481.295715,162.010834 481.023010,161.725082 480.750275,161.439316
	C480.632019,161.552414 480.404724,161.757599 480.411255,161.765335
	C480.665802,162.066727 480.941620,162.350143 481.568451,162.296585
z"/>
<path fill="#49B78E" opacity="1.000000" stroke="none"
	d="
M373.171143,193.049744
	C373.303070,192.497269 373.434967,191.944809 374.040802,191.012726
	C374.708832,189.821335 374.902954,189.009537 375.097107,188.197723
	C375.097076,188.197723 375.036255,188.100159 375.422668,188.002808
	C376.539886,185.605118 377.270630,183.304779 378.001404,181.004456
	C378.460114,179.572235 378.918823,178.140015 379.905670,176.352188
	C381.658783,174.351074 383.232391,172.860565 384.045441,171.031906
	C386.822540,164.785660 389.560852,158.501923 391.852448,152.068130
	C393.099823,148.566071 393.415375,144.732132 394.151215,141.047913
	C394.656830,139.550201 395.162445,138.052505 396.253021,136.228348
	C397.445068,134.060989 398.052155,132.220108 398.659241,130.379227
	C398.789948,129.778442 398.920654,129.177643 399.544556,128.236710
	C401.731323,123.276901 403.424896,118.657242 405.118469,114.037575
	C405.250641,113.491646 405.382812,112.945709 405.753845,111.996170
	C405.992737,111.592560 406.068512,111.412392 406.068512,111.412392
	C406.484894,110.166870 406.901276,108.921349 407.799927,107.233582
	C408.475189,106.104561 408.668152,105.417778 408.861145,104.730988
	C408.928955,104.343681 408.996796,103.956367 409.453918,103.260529
	C409.966095,102.326675 410.088928,101.701347 410.211761,101.076019
	C413.438293,93.262596 416.084167,85.142059 420.018707,77.703117
	C427.053192,64.403236 442.467896,59.988258 456.053650,66.643837
	C467.309875,72.158188 472.887512,87.929314 467.710052,100.694923
	C457.158783,126.710266 446.381958,152.634125 435.104828,178.956116
	C430.550415,185.134918 427.082428,191.140259 427.233246,198.517334
	C427.233246,198.517334 427.292175,198.774445 426.924866,199.065399
	C426.361969,200.218842 426.166351,201.081345 425.970734,201.943832
	C425.970734,201.943832 426.008484,201.978638 425.611755,202.029510
	C424.142944,203.328308 422.690704,204.412766 422.070618,205.855026
	C420.266693,210.050735 418.832672,214.403900 417.184387,218.668564
	C415.503021,223.018677 413.743561,227.338623 412.010986,231.668854
	C409.747345,237.326370 407.301147,242.919586 405.287781,248.664612
	C404.373505,251.273407 404.310638,254.180573 403.861572,256.952393
	C403.709045,257.496368 403.556549,258.040344 402.819458,258.872009
	C401.971588,260.324463 401.708374,261.489227 401.445129,262.653992
	C401.445129,262.653992 401.486084,262.852875 401.069580,263.052368
	C397.009155,267.869202 394.626373,272.939636 394.995178,278.998749
	C394.885864,279.506195 394.776581,280.013611 394.379578,280.950256
	C394.006134,281.532532 393.960388,281.696808 393.954590,281.872253
	C393.954590,281.872253 393.992096,281.939606 393.591522,282.007172
	C392.140411,282.986725 390.556519,283.700806 390.131897,284.845032
	C388.311707,289.750183 386.671082,294.738922 385.325470,299.793152
	C384.906891,301.365295 385.624176,303.239777 385.821472,304.975861
	C385.806030,305.425720 385.790588,305.875549 385.305908,306.717346
	C380.995819,308.201355 377.176178,309.379517 373.301331,310.333527
	C372.122253,310.623871 370.791199,310.289337 369.529419,310.253174
	C367.333313,310.190308 365.136932,310.136810 362.940674,310.079407
	C362.940674,310.079407 363.020691,310.044250 362.841553,309.803711
	C362.084320,309.402344 361.506256,309.241486 360.928162,309.080627
	C360.928162,309.080627 360.997467,309.013580 360.828918,308.786438
	C360.083313,308.399017 359.506256,308.238739 358.929199,308.078430
	C358.929199,308.078430 359.016327,308.045502 358.857086,307.752869
	C355.389404,303.697998 351.101776,300.409058 349.001404,296.063049
	C345.829529,289.500031 343.905365,282.251556 345.250946,274.661072
	C346.179962,269.420563 347.047424,264.169128 347.942383,258.922577
	C347.942383,258.922577 347.993530,258.998688 348.318665,258.964386
	C352.606140,255.164520 355.952576,251.149567 354.247650,245.089401
	C354.354950,244.524551 354.462250,243.959717 355.179260,243.189148
	C356.515930,242.271393 357.642303,241.681427 357.903381,240.827042
	C359.324982,236.175171 360.204041,231.336304 361.886200,226.789841
	C365.027740,218.299057 368.743774,210.020966 371.892273,201.532532
	C372.865814,198.907913 372.774780,195.888443 373.171143,193.049744
z"/>
<path fill="#4299C5" opacity="1.000000" stroke="none"
	d="
M198.997849,48.915512
	C198.997849,48.915508 199.185471,48.739983 199.776886,48.822243
	C205.151215,48.599609 209.934265,48.296570 214.717026,47.989120
	C217.585068,47.804756 218.967316,48.976505 219.041397,52.017540
	C219.263443,61.129642 219.857788,70.235207 219.960846,79.347229
	C220.381897,116.573357 220.679489,153.800888 221.007645,191.028046
	C221.053818,196.267578 221.010803,201.507874 221.024811,206.747772
	C221.027481,207.743698 221.143677,208.739532 221.141052,209.735229
	C221.106216,222.962769 221.184753,236.192734 220.925705,249.416016
	C220.862747,252.630508 219.679413,255.823059 219.011230,259.025696
	C219.011215,259.025696 218.995316,259.004395 218.635132,259.040833
	C217.154327,260.295807 215.520813,261.327087 214.996277,262.763367
	C211.568314,272.149963 208.106461,281.541077 205.205536,291.097626
	C203.090469,298.065399 199.649734,302.448944 191.703491,301.310242
	C191.703491,301.310242 191.824860,301.152954 191.832626,300.836212
	C190.602097,298.010895 189.363800,295.502350 188.125504,292.993774
	C188.063065,292.547150 188.000626,292.100525 188.392822,291.230164
	C189.231415,289.296509 190.026199,287.760193 189.930939,286.281158
	C189.411713,278.220581 188.456253,270.184692 188.063126,262.120209
	C187.522385,251.028076 187.436569,239.914581 186.998581,228.816452
	C186.417557,214.094147 185.609772,199.380783 185.035843,184.658234
	C184.287155,165.452225 183.629974,146.242340 183.014282,127.031532
	C182.599915,114.103142 183.246490,101.057747 181.684982,88.276474
	C180.522354,78.759949 183.161118,70.685341 186.290710,62.321976
	C186.686371,61.264629 186.751831,60.083721 186.970276,58.960056
	C186.970276,58.960056 187.002457,58.996849 187.341568,58.959049
	C190.348831,57.047184 194.783371,56.729168 193.966797,51.785358
	C193.966797,51.785358 194.110413,51.649090 194.609283,51.737267
	C196.404709,50.855465 197.701279,49.885490 198.997849,48.915512
z"/>
<path fill="#4098C5" opacity="1.000000" stroke="none"
	d="
M111.360260,186.970825
	C111.273788,186.215637 111.187309,185.460464 111.412315,184.007721
	C111.812332,177.403793 111.970444,171.496765 111.913506,165.591812
	C111.905083,164.717773 110.880615,163.853531 110.326218,162.984756
	C110.271706,162.544220 110.217194,162.103683 110.591965,161.232025
	C111.973083,157.526093 112.921707,154.250366 113.877312,150.976669
	C118.037033,136.726517 129.565125,128.237289 143.736832,127.954567
	C147.051041,127.888443 149.354080,128.510483 149.015335,132.527802
	C148.655075,136.799942 148.007431,141.096024 148.173660,145.354782
	C148.572800,155.580109 149.263199,165.798431 150.060364,176.002060
	C150.478180,181.350174 151.368530,186.661346 152.045486,191.989212
	C152.335510,194.063522 152.625519,196.137817 152.625458,198.866104
	C152.224518,204.284943 151.793381,209.068146 152.064713,213.811142
	C152.787704,226.449463 149.969070,239.270218 153.961533,251.746979
	C154.104431,252.193512 153.759979,252.795990 153.631882,253.374496
	C142.277252,246.148682 132.724548,236.648285 118.997688,234.659943
	C117.832657,234.491165 116.249001,232.096100 116.130669,230.632523
	C115.238533,219.598618 114.822380,208.525787 113.900604,197.494949
	C113.603615,193.940964 112.237350,190.476334 111.360260,186.970825
z"/>
<path fill="#4098C5" opacity="1.000000" stroke="none"
	d="
M289.182678,73.535339
	C289.182678,73.535339 289.273315,73.791229 288.830444,73.944901
	C287.542572,75.423912 286.486633,76.661819 285.894073,78.091766
	C284.400848,81.695213 283.231354,85.433243 281.726562,89.031380
	C277.535309,99.053253 273.239685,109.031494 268.649658,118.968681
	C267.412170,118.424187 266.510315,117.937981 265.014130,117.131363
	C265.014130,119.858116 265.014130,121.933571 265.012390,124.339073
	C265.011047,125.109192 265.011444,125.549255 265.008118,126.243279
	C265.006348,126.666534 265.008362,126.835846 265.005188,127.003036
	C265.000000,127.000916 265.008545,127.011436 264.684418,126.962494
	C262.240601,125.958954 260.120911,125.004349 257.996643,123.598618
	C257.981628,116.568695 258.189697,109.980652 257.912048,103.413155
	C257.438293,92.206314 256.441193,81.019501 256.075104,69.810852
	C255.755753,60.032585 255.829376,50.231586 256.066681,40.448814
	C256.205627,34.721722 256.417389,28.902502 260.932831,24.300661
	C261.817749,23.398829 261.443573,21.261513 261.650085,19.694017
	C261.650085,19.694017 261.720001,19.672497 261.993164,19.676104
	C262.387451,19.343111 262.508575,19.006514 262.629730,18.669916
	C262.629730,18.669916 262.658569,18.607685 263.020447,18.696796
	C265.587616,17.187590 267.792908,15.589273 270.415894,13.992754
	C272.446777,13.705952 274.147888,13.653812 275.659210,13.091497
	C288.214142,8.420217 301.790863,17.824375 302.062134,31.191990
	C302.286163,42.230812 296.278137,51.159897 292.730072,60.940163
	C291.246613,65.029366 290.347473,69.330536 289.182678,73.535339
z"/>
<path fill="#1F4255" opacity="1.000000" stroke="none"
	d="
M154.993988,515.004272
	C158.819763,513.587524 161.267014,515.298279 162.983643,518.571899
	C163.202209,518.988708 163.048203,519.886230 163.279312,519.969238
	C168.572525,521.869629 169.066010,526.479187 169.724991,531.063782
	C170.078476,533.523010 170.664474,535.948853 171.157364,538.449707
	C173.588852,538.449707 176.444229,538.449707 179.550018,538.449707
	C180.143890,535.623047 180.831879,533.053467 177.321732,530.948303
	C174.304886,529.138977 173.991196,519.883789 176.192673,515.619568
	C176.929001,514.193359 177.141342,512.429016 178.082825,511.191925
	C179.523026,509.299408 181.305252,507.636719 183.096237,506.050262
	C184.814240,504.528473 187.729950,503.567657 188.343597,501.758148
	C189.548065,498.206390 191.415573,498.044189 194.630859,499.448730
	C194.718765,502.987671 194.280975,506.063354 194.183426,509.149719
	C193.985138,515.423218 193.970657,521.702515 193.880402,527.979431
	C193.913727,528.737061 193.947052,529.494690 193.512695,530.734619
	C192.698196,532.253418 192.021210,533.301147 192.056046,534.324646
	C192.372269,543.610168 192.810822,552.891602 193.218216,562.174011
	C193.331223,564.748779 193.467621,567.322449 193.577744,569.897339
	C193.632690,571.182129 194.043289,573.407104 193.617584,573.584290
	C192.125534,574.205444 190.089905,574.741821 188.712921,574.187317
	C184.730026,572.583374 182.616409,569.251160 181.831528,564.754211
	C181.109314,564.338928 180.553741,564.169434 179.676270,563.827637
	C178.235855,560.438538 177.117310,557.221680 175.998383,553.637634
	C175.779114,552.314209 175.560242,551.358093 175.341385,550.401917
	C175.078903,550.412842 174.816406,550.423828 174.553909,550.434753
	C174.366516,551.292114 174.179138,552.149414 173.679077,552.849121
	C171.908310,549.463806 170.450226,546.236206 169.256775,542.786255
	C168.100601,538.822388 168.686874,534.031921 163.837479,531.677734
	C161.150177,527.306030 158.542862,523.301575 156.150375,519.172607
	C155.450714,517.965210 155.362473,516.403564 154.993988,515.004272
z"/>
<path fill="#284751" opacity="1.000000" stroke="none"
	d="
M218.551636,339.801880
	C218.872452,340.320679 219.159103,341.362335 218.846909,341.592804
	C213.640518,345.436493 210.651443,351.792419 203.985535,354.093689
	C200.644211,355.247223 197.918991,358.178558 194.579620,359.346710
	C191.584213,360.394531 188.134842,360.292053 184.875732,360.403015
	C180.300919,360.558746 175.716812,360.442322 172.434921,360.442322
	C169.428116,358.950897 167.360245,358.108368 165.489777,356.947754
	C163.472900,355.696259 160.647461,354.509155 159.966232,352.640778
	C158.999573,349.989563 155.376556,347.716125 157.845734,344.025970
	C158.244034,343.430664 157.317871,341.878876 156.891647,340.814148
	C154.888062,335.808929 152.963699,330.767181 150.789719,325.836060
	C147.209671,317.715637 143.784180,309.495392 139.586655,301.697754
	C138.289291,299.287720 134.694321,298.114471 131.736923,296.091492
	C133.068512,292.144653 131.504333,289.221649 127.088501,287.259369
	C125.316826,286.472046 123.745407,282.533142 122.903534,282.783905
	C116.461601,284.702789 115.685066,278.773926 112.501961,276.118988
	C109.763977,273.835297 106.385574,272.319427 102.956619,270.263977
	C100.775230,271.301880 98.008965,273.903809 96.125542,269.274231
	C95.865768,268.635742 94.342140,268.076447 93.493195,268.184448
	C88.632713,268.802917 83.133713,268.443573 79.120926,270.686920
	C73.802414,273.660248 68.366638,277.253235 65.886955,283.812256
	C63.705177,289.583252 64.370132,295.197662 65.194099,300.888672
	C65.707603,304.435333 67.007744,307.734192 69.909676,307.517517
	C72.773430,313.961945 75.251488,319.668213 77.846291,325.320923
	C79.075714,327.999176 80.749832,330.486755 81.836441,333.214478
	C84.619301,340.200378 87.320290,347.225739 89.786995,354.328064
	C91.200867,358.398956 91.926888,362.706818 93.298393,366.795349
	C93.896416,368.578033 95.336929,370.078125 96.741989,372.241058
	C97.724815,375.183777 98.360481,377.591980 98.996140,380.000183
	C100.122772,382.895386 101.249405,385.790588 102.735962,389.246490
	C103.398582,392.536896 103.701279,395.266632 104.003967,397.996338
	C104.003967,397.996338 103.506378,397.999146 103.257576,397.997925
	C98.657585,386.492371 93.957031,375.105621 90.035255,363.456726
	C83.802353,344.943024 76.762192,326.827179 67.016167,309.836639
	C65.532166,307.249573 64.264534,304.490631 63.267868,301.679626
	C57.269661,284.762115 68.676170,267.977875 86.647598,266.921478
	C104.073387,265.897217 117.876503,273.469482 130.025604,284.935150
	C141.692825,295.946075 149.133728,309.559082 153.847092,324.761749
	C155.323547,329.523956 156.693985,334.319000 158.171753,339.080811
	C163.467270,356.144470 175.169479,362.011078 192.242218,356.323730
	C202.269043,352.983551 210.529984,346.923950 218.551636,339.801880
z"/>
<path fill="#284751" opacity="1.000000" stroke="none"
	d="
M175.998779,554.004883
	C177.117310,557.221680 178.235855,560.438538 179.843170,564.073547
	C180.887375,564.661194 181.442780,564.830566 181.998169,565.000000
	C182.616409,569.251160 184.730026,572.583374 188.712921,574.187317
	C190.089905,574.741821 192.125534,574.205444 193.617584,573.584290
	C194.043289,573.407104 193.632690,571.182129 193.577744,569.897339
	C193.467621,567.322449 193.331223,564.748779 193.218216,562.174011
	C192.810822,552.891602 192.372269,543.610168 192.056046,534.324646
	C192.021210,533.301147 192.698196,532.253418 193.424561,531.104980
	C194.734833,545.884216 195.665619,560.775330 196.617874,576.010010
	C193.884155,576.178284 190.273132,576.667969 186.698929,576.475098
	C185.450851,576.407837 183.871429,574.896667 183.160141,573.639343
	C176.235825,561.399658 168.727158,549.417358 162.797073,536.703125
	C149.222885,507.599701 136.441071,478.126678 123.327530,448.506042
	C124.954239,449.132202 126.590904,450.056122 128.620316,451.385010
	C129.342239,453.858795 129.671432,455.927551 130.000610,457.996338
	C131.756882,461.301849 133.513153,464.607361 135.633957,468.352661
	C136.665710,470.195221 137.332932,471.597992 138.000153,473.000732
	C135.634811,478.792755 140.029968,482.361969 142.906677,487.050354
	C143.898178,488.348938 144.446655,489.173248 144.995117,489.997559
	C143.852478,494.510651 146.006699,498.228088 150.604324,499.249451
	C150.997360,499.500000 150.995728,499.998779 150.665314,500.050476
	C150.555710,502.069458 150.776550,504.036743 150.998444,506.252106
	C150.999496,506.500183 151.003342,506.996338 151.041840,507.318054
	C151.719818,508.093628 152.359299,508.547424 152.999390,509.000610
	C153.000000,509.000000 152.998169,509.001221 152.998169,509.001221
	C153.473694,510.858063 153.949203,512.714905 154.709351,514.787964
	C155.362473,516.403564 155.450714,517.965210 156.150375,519.172607
	C158.542862,523.301575 161.150177,527.306030 163.842178,532.059204
	C165.669907,536.176514 167.331024,539.592529 168.992126,543.008545
	C170.450226,546.236206 171.908310,549.463806 173.848022,553.093750
	C174.886017,553.665649 175.442398,553.835266 175.998779,554.004883
z"/>
<path fill="#284751" opacity="1.000000" stroke="none"
	d="
M352.553345,19.926758
	C353.192230,21.599510 353.506348,23.366880 353.944427,25.831560
	C345.048828,23.973019 346.011322,31.887699 343.858398,36.123859
	C341.026917,41.695126 339.608459,48.019230 337.897064,54.108055
	C337.209198,56.555351 337.356018,59.237267 337.092255,62.151016
	C332.039856,61.652046 331.753601,66.511459 330.491180,69.522446
	C326.013184,80.203003 322.114441,91.130341 318.142334,102.017479
	C316.187286,107.376129 314.779358,112.940392 312.702484,118.246689
	C310.981781,122.643044 308.434937,126.712250 306.643433,131.085846
	C305.172272,134.677399 304.531281,138.608948 303.060638,142.200775
	C300.840302,147.623672 297.921570,152.769180 295.840057,158.238251
	C293.085968,165.474411 290.767761,172.882645 288.485596,180.285797
	C288.127808,181.446442 288.951843,182.971405 289.345306,184.894379
	C287.698151,185.513901 285.732208,186.253326 283.391602,186.999191
	C288.543365,172.407028 293.956543,157.764313 299.618713,143.218536
	C313.364624,107.906090 327.205780,72.630646 341.059906,37.360447
	C343.614166,30.857704 346.077789,24.235497 352.553345,19.926758
z"/>
<path fill="#559CB5" opacity="1.000000" stroke="none"
	d="
M219.269470,258.790222
	C219.679413,255.823059 220.862747,252.630508 220.925705,249.416016
	C221.184753,236.192734 221.106216,222.962769 221.141052,209.735229
	C221.143677,208.739532 221.027481,207.743698 221.024811,206.747772
	C221.010803,201.507874 221.053818,196.267578 221.007645,191.028046
	C220.679489,153.800888 220.381897,116.573357 219.960846,79.347229
	C219.857788,70.235207 219.263443,61.129642 219.041397,52.017540
	C218.967316,48.976505 217.585068,47.804756 214.717026,47.989120
	C209.934265,48.296570 205.151215,48.599609 199.901566,48.853180
	C205.078430,44.544712 211.654373,44.961506 218.096878,45.467621
	C219.070923,45.544136 220.561813,48.220020 220.595978,49.721245
	C221.220718,77.183083 221.656067,104.649216 222.138321,132.114319
	C222.775391,168.397934 223.295013,204.684418 224.172440,240.962250
	C224.330093,247.480515 222.045044,252.950912 219.269470,258.790222
z"/>
<path fill="#559CB5" opacity="1.000000" stroke="none"
	d="
M186.683395,59.143562
	C186.751831,60.083721 186.686371,61.264629 186.290710,62.321976
	C183.161118,70.685341 180.522354,78.759949 181.684982,88.276474
	C183.246490,101.057747 182.599915,114.103142 183.014282,127.031532
	C183.629974,146.242340 184.287155,165.452225 185.035843,184.658234
	C185.609772,199.380783 186.417557,214.094147 186.998581,228.816452
	C187.436569,239.914581 187.522385,251.028076 188.063126,262.120209
	C188.456253,270.184692 189.411713,278.220581 189.930939,286.281158
	C190.026199,287.760193 189.231415,289.296509 188.455292,290.895752
	C187.776596,285.337799 187.415985,279.693054 187.215332,274.042664
	C185.738022,232.439301 184.419968,190.829803 182.782349,149.232834
	C181.990082,129.108475 180.591187,109.008354 179.516785,88.894608
	C178.955643,78.389572 180.171509,68.267708 186.683395,59.143562
z"/>
<path fill="#284751" opacity="1.000000" stroke="none"
	d="
M281.910339,189.311050
	C282.385132,190.616791 283.222778,192.387787 282.776611,193.733017
	C281.091583,198.813797 278.983582,203.753952 277.045319,208.751175
	C275.225037,213.444077 273.483917,218.168930 271.587585,222.830734
	C269.915497,226.941193 267.733612,230.876358 266.413635,235.088486
	C265.211914,238.923279 264.883026,243.029495 264.133209,247.009262
	C263.906189,248.214096 263.825592,250.270172 263.224854,250.453720
	C257.135620,252.314377 257.153503,258.206421 255.471725,262.582031
	C252.777313,269.592255 251.218521,277.032623 249.036774,284.247925
	C246.662567,292.099701 242.792038,299.771484 242.008942,307.760406
	C241.105484,316.977173 233.368011,321.662872 230.614227,329.378479
	C230.194809,330.553619 227.969162,331.084106 226.209625,331.926147
	C236.673462,317.263672 242.306549,300.362030 247.780380,283.181915
	C255.030243,260.427521 263.478821,238.051880 271.571442,215.570770
	C274.718964,206.827103 278.300110,198.239502 281.910339,189.311050
z"/>
<path fill="#569CB6" opacity="1.000000" stroke="none"
	d="
M111.286652,187.415283
	C112.237350,190.476334 113.603615,193.940964 113.900604,197.494949
	C114.822380,208.525787 115.238533,219.598618 116.130669,230.632523
	C116.249001,232.096100 117.832657,234.491165 118.997688,234.659943
	C132.724548,236.648285 142.277252,246.148682 153.631882,253.374496
	C153.759979,252.795990 154.104431,252.193512 153.961533,251.746979
	C149.969070,239.270218 152.787704,226.449463 152.064713,213.811142
	C151.793381,209.068146 152.224518,204.284943 152.573685,199.279205
	C153.744476,218.396744 154.676971,237.755188 155.606796,257.057953
	C146.650955,251.373505 138.484314,245.863342 129.978256,240.939545
	C126.170547,238.735397 121.589272,237.907867 117.551834,236.039139
	C116.084106,235.359802 114.266289,233.541260 114.154312,232.120621
	C112.992523,217.381287 112.146660,202.617050 111.286652,187.415283
z"/>
<path fill="#569CB6" opacity="1.000000" stroke="none"
	d="
M152.054810,191.586975
	C151.368530,186.661346 150.478180,181.350174 150.060364,176.002060
	C149.263199,165.798431 148.572800,155.580109 148.173660,145.354782
	C148.007431,141.096024 148.655075,136.799942 149.015335,132.527802
	C149.354080,128.510483 147.051041,127.888443 143.736832,127.954567
	C129.565125,128.237289 118.037033,136.726517 113.877312,150.976669
	C112.921707,154.250366 111.973083,157.526093 110.680908,160.908218
	C109.918350,139.486069 128.130203,122.993095 149.832550,125.861954
	C150.079163,128.787537 150.454514,131.855621 150.577957,134.933823
	C151.270630,152.207657 151.918472,169.483368 152.526749,186.760391
	C152.578415,188.227921 152.227829,189.709610 152.054810,191.586975
z"/>
<path fill="#599FB9" opacity="1.000000" stroke="none"
	d="
M261.343018,19.814133
	C261.443573,21.261513 261.817749,23.398829 260.932831,24.300661
	C256.417389,28.902502 256.205627,34.721722 256.066681,40.448814
	C255.829376,50.231586 255.755753,60.032585 256.075104,69.810852
	C256.441193,81.019501 257.438293,92.206314 257.912048,103.413155
	C258.189697,109.980652 257.981628,116.568695 257.996155,124.058372
	C257.450958,130.929291 256.901703,136.889343 256.352417,142.849380
	C256.030365,131.075638 255.650223,119.303146 255.398621,107.527893
	C254.910919,84.703918 254.460907,61.878990 254.070557,39.053169
	C253.947098,31.833872 256.051788,25.337042 261.343018,19.814133
z"/>
<path fill="#579AB1" opacity="1.000000" stroke="none"
	d="
M289.466949,73.292381
	C290.347473,69.330536 291.246613,65.029366 292.730072,60.940163
	C296.278137,51.159897 302.286163,42.230812 302.062134,31.191990
	C301.790863,17.824375 288.214142,8.420217 275.659210,13.091497
	C274.147888,13.653812 272.446777,13.705952 270.411621,13.729976
	C269.984955,13.290181 269.980316,13.114961 269.975647,12.939740
	C279.357635,8.086725 290.773712,9.127320 297.997620,15.493946
	C304.299683,21.048164 306.759338,31.681204 303.199890,40.858059
	C298.995850,51.696674 294.257751,62.328148 289.466949,73.292381
z"/>
<path fill="#1F4255" opacity="1.000000" stroke="none"
	d="
M196.003662,487.003662
	C194.762497,486.846619 193.521317,486.689575 192.329132,486.538727
	C192.565247,481.307709 192.830612,476.494629 192.987289,471.678040
	C193.169037,466.091248 194.576248,464.991852 199.928284,466.496460
	C201.349609,466.896057 202.733582,467.428497 204.511566,467.948669
	C204.412491,470.466675 203.936554,472.935974 202.856720,475.764343
	C199.100510,477.688049 197.293808,479.882812 197.876099,483.746368
	C198.022247,484.716034 196.668243,485.911804 196.003662,487.003662
z"/>
<path fill="#284751" opacity="1.000000" stroke="none"
	d="
M103.356262,399.345886
	C105.513161,401.624786 107.334747,404.773865 110.025490,406.723236
	C111.948357,408.116211 113.308739,409.221649 113.733765,412.197937
	C114.294380,416.137482 113.606773,420.015228 115.117332,422.616486
	C117.445511,426.625671 120.393837,430.201813 120.994934,435.000397
	C121.890221,438.999725 122.785507,442.999054 123.485657,447.424194
	C116.657951,431.800964 110.025383,415.751892 103.356262,399.345886
z"/>
<path fill="#579AB1" opacity="1.000000" stroke="none"
	d="
M265.011841,125.989326
	C265.011444,125.549255 265.011047,125.109192 265.278992,124.145042
	C266.693298,122.089630 267.839294,120.558296 268.985321,119.026962
	C273.239685,109.031494 277.535309,99.053253 281.726562,89.031380
	C283.231354,85.433243 284.400848,81.695213 285.894073,78.091766
	C286.486633,76.661819 287.542572,75.423912 288.750854,74.054871
	C285.710266,82.614357 282.375580,91.245773 278.885254,99.813774
	C274.265228,111.154877 269.523438,122.446381 264.485779,133.582916
	C264.427887,131.274887 264.718231,129.143158 265.008545,127.011436
	C265.008545,127.011436 265.000000,127.000916 265.171753,126.912323
	C265.232941,126.545593 265.122406,126.267456 265.011841,125.989326
z"/>
<path fill="#559CB5" opacity="1.000000" stroke="none"
	d="
M191.813354,301.639160
	C199.649734,302.448944 203.090469,298.065399 205.205536,291.097626
	C208.106461,281.541077 211.568314,272.149963 214.996277,262.763367
	C215.520813,261.327087 217.154327,260.295807 218.647980,259.041687
	C214.241882,272.063171 209.689346,285.209717 204.579071,298.135803
	C202.339859,303.799713 197.570068,304.858673 191.813354,301.639160
z"/>
<path fill="#56A3C0" opacity="1.000000" stroke="none"
	d="
M264.684418,126.962494
	C264.718231,129.143158 264.427887,131.274887 264.227905,133.812012
	C264.318237,134.217422 264.232422,134.177231 263.911560,134.282715
	C263.410492,135.283615 263.230316,136.179047 263.050171,137.074463
	C263.050171,137.074463 263.012726,137.008774 262.766998,137.125916
	C262.316345,138.145386 262.111450,139.047729 261.906555,139.950058
	C260.392792,143.820190 258.878998,147.690308 257.365204,151.560440
	C257.063324,151.510803 256.761414,151.461166 256.459534,151.411530
	C256.384766,150.430649 256.309998,149.449753 256.629211,148.145508
	C256.862244,147.589050 256.701294,147.355957 256.540314,147.122879
	C256.416565,145.936554 256.292816,144.750244 256.260742,143.206650
	C256.901703,136.889343 257.450958,130.929291 258.000732,124.509499
	C260.120911,125.004349 262.240601,125.958954 264.684418,126.962494
z"/>
<path fill="#63B79B" opacity="1.000000" stroke="none"
	d="
M404.095764,256.692383
	C404.310638,254.180573 404.373505,251.273407 405.287781,248.664612
	C407.301147,242.919586 409.747345,237.326370 412.010986,231.668854
	C413.743561,227.338623 415.503021,223.018677 417.184387,218.668564
	C418.832672,214.403900 420.266693,210.050735 422.070618,205.855026
	C422.690704,204.412766 424.142944,203.328308 425.586182,202.031601
	C418.748169,220.132645 411.539062,238.282501 404.095764,256.692383
z"/>
<path fill="#63B79B" opacity="1.000000" stroke="none"
	d="
M372.921844,193.297806
	C372.774780,195.888443 372.865814,198.907913 371.892273,201.532532
	C368.743774,210.020966 365.027740,218.299057 361.886200,226.789841
	C360.204041,231.336304 359.324982,236.175171 357.903381,240.827042
	C357.642303,241.681427 356.515930,242.271393 355.397827,242.992630
	C358.532196,232.517502 361.951385,221.995743 365.623779,211.563110
	C367.763855,205.483612 370.309418,199.546844 372.921844,193.297806
z"/>
<path fill="#284751" opacity="1.000000" stroke="none"
	d="
M196.051453,487.401245
	C196.668243,485.911804 198.022247,484.716034 197.876099,483.746368
	C197.293808,479.882812 199.100510,477.688049 202.612823,476.062592
	C200.168594,490.903625 197.337921,505.800568 194.590210,520.712830
	C194.202560,522.816589 194.219788,524.995056 193.964996,527.559204
	C193.970657,521.702515 193.985138,515.423218 194.183426,509.149719
	C194.280975,506.063354 194.718765,502.987671 195.002197,499.453583
	C195.367630,495.266296 195.733444,491.532562 196.051453,487.401245
z"/>
<path fill="#63B79B" opacity="1.000000" stroke="none"
	d="
M347.656128,259.007263
	C347.047424,264.169128 346.179962,269.420563 345.250946,274.661072
	C343.905365,282.251556 345.829529,289.500031 349.001404,296.063049
	C351.101776,300.409058 355.389404,303.697998 358.822876,307.784546
	C355.225830,304.844147 350.631012,302.166809 347.958374,298.195770
	C341.885651,289.172852 341.609894,278.964905 344.396301,268.614899
	C344.950531,266.556274 345.420166,264.474884 345.928772,261.979950
	C346.409088,260.734619 346.889465,259.913300 347.656128,259.007263
z"/>
<path fill="#63B79B" opacity="1.000000" stroke="none"
	d="
M393.866852,141.259857
	C393.415375,144.732132 393.099823,148.566071 391.852448,152.068130
	C389.560852,158.501923 386.822540,164.785660 384.045441,171.031906
	C383.232391,172.860565 381.658783,174.351074 380.130493,176.047852
	C384.412323,164.556702 388.997406,153.014267 393.866852,141.259857
z"/>
<path fill="#63B79B" opacity="1.000000" stroke="none"
	d="
M386.007416,304.651917
	C385.624176,303.239777 384.906891,301.365295 385.325470,299.793152
	C386.671082,294.738922 388.311707,289.750183 390.131897,284.845032
	C390.556519,283.700806 392.140411,282.986725 393.556030,282.022125
	C391.345184,289.422363 388.769287,296.875183 386.007416,304.651917
z"/>
<path fill="#63B79B" opacity="1.000000" stroke="none"
	d="
M363.149963,310.407288
	C365.136932,310.136810 367.333313,310.190308 369.529419,310.253174
	C370.791199,310.289337 372.122253,310.623871 373.301331,310.333527
	C377.176178,309.379517 380.995819,308.201355 385.159668,307.023865
	C385.435883,307.491028 385.389099,308.043640 385.167114,308.823761
	C377.981079,312.182831 370.828644,313.494690 363.149963,310.407288
z"/>
<path fill="#284751" opacity="1.000000" stroke="none"
	d="
M376.714539,15.726185
	C376.461212,16.262011 375.789062,16.931301 375.391083,16.795727
	C370.260315,15.047970 365.483124,16.173977 360.677521,18.149151
	C359.090576,18.801409 357.187897,18.685381 354.983856,18.879599
	C361.273132,14.065754 368.685699,13.715381 376.714539,15.726185
z"/>
<path fill="#49B98E" opacity="1.000000" stroke="none"
	d="
M325.461548,575.681641
	C325.264832,575.149963 325.528595,574.373352 325.778961,574.377625
	C332.762085,574.497620 339.743866,574.696838 346.859314,575.239624
	C339.967133,575.664429 332.941498,575.732544 325.461548,575.681641
z"/>
<path fill="#49B98E" opacity="1.000000" stroke="none"
	d="
M413.446167,575.686768
	C414.809814,574.366638 416.616486,573.141296 419.213745,571.379883
	C419.213745,568.036377 419.213745,563.913818 419.434631,559.463379
	C420.257141,564.509155 420.858734,569.882874 421.519135,575.781616
	C418.429993,575.781616 416.159576,575.781616 413.446167,575.686768
z"/>
<path fill="#63B79B" opacity="1.000000" stroke="none"
	d="
M427.495850,198.259674
	C427.082428,191.140259 430.550415,185.134918 434.848328,179.190887
	C432.709534,185.377487 430.233978,191.689743 427.495850,198.259674
z"/>
<path fill="#1F4255" opacity="1.000000" stroke="none"
	d="
M218.386017,439.886597
	C217.101196,438.121002 215.410950,436.253632 215.235229,434.253265
	C215.108002,432.804840 216.989639,431.179932 217.975418,429.633728
	C218.574539,429.885498 219.173676,430.137268 219.772812,430.389008
	C219.403976,432.835388 219.035141,435.281799 218.952972,437.922852
	C219.036179,438.654327 218.832718,439.191101 218.386017,439.886597
z"/>
<path fill="#63B79B" opacity="1.000000" stroke="none"
	d="
M395.238251,278.751221
	C394.626373,272.939636 397.009155,267.869202 401.019287,263.140564
	C399.417419,268.187378 397.449371,273.345520 395.238251,278.751221
z"/>
<path fill="#569CB6" opacity="1.000000" stroke="none"
	d="
M110.205917,163.437775
	C110.880615,163.853531 111.905083,164.717773 111.913506,165.591812
	C111.970444,171.496765 111.812332,177.403793 111.471344,183.630020
	C110.841141,177.263519 110.463379,170.577148 110.205917,163.437775
z"/>
<path fill="#67A993" opacity="1.000000" stroke="none"
	d="
M418.075531,533.500977
	C417.670624,533.236694 417.052887,532.510437 417.059570,531.789978
	C417.159271,521.031860 417.341431,510.274567 417.837555,499.249451
	C418.165039,510.335083 418.159119,521.688354 418.075531,533.500977
z"/>
<path fill="#63B79B" opacity="1.000000" stroke="none"
	d="
M353.970581,245.313553
	C355.952576,251.149567 352.606140,255.164520 348.283081,258.935364
	C349.846100,254.472992 351.769806,250.005356 353.970581,245.313553
z"/>
<path fill="#63B79B" opacity="1.000000" stroke="none"
	d="
M404.874268,114.285675
	C403.424896,118.657242 401.731323,123.276901 399.702454,127.969589
	C401.121521,123.539673 402.875793,119.036720 404.874268,114.285675
z"/>
<path fill="#559CB5" opacity="1.000000" stroke="none"
	d="
M193.638031,51.885269
	C194.783371,56.729168 190.348831,57.047184 187.320251,58.947693
	C189.076324,56.644485 191.192795,54.314835 193.638031,51.885269
z"/>
<path fill="#559CB5" opacity="1.000000" stroke="none"
	d="
M188.064346,293.386780
	C189.363800,295.502350 190.602097,298.010895 191.766693,300.919312
	C190.463058,298.806061 189.233124,296.292938 188.064346,293.386780
z"/>
<path fill="#599FB9" opacity="1.000000" stroke="none"
	d="
M269.630432,12.984882
	C269.980316,13.114961 269.984955,13.290181 269.993896,13.728180
	C267.792908,15.589273 265.587616,17.187590 263.014526,18.663025
	C264.859528,16.703434 267.072388,14.866730 269.630432,12.984882
z"/>
<path fill="#63B79B" opacity="1.000000" stroke="none"
	d="
M377.738953,181.223312
	C377.270630,183.304779 376.539886,185.605118 375.475922,187.981125
	C375.920654,185.851929 376.698608,183.647049 377.738953,181.223312
z"/>
<path fill="#284751" opacity="1.000000" stroke="none"
	d="
M224.704987,333.143677
	C223.481171,334.970520 221.964890,336.950500 220.061310,338.901062
	C221.253510,337.013367 222.833023,335.155121 224.704987,333.143677
z"/>
<path fill="#63B79B" opacity="1.000000" stroke="none"
	d="
M398.372986,130.586548
	C398.052155,132.220108 397.445068,134.060989 396.458252,135.953705
	C396.747894,134.268311 397.417297,132.531082 398.372986,130.586548
z"/>
<path fill="#49B98E" opacity="1.000000" stroke="none"
	d="
M300.423798,575.717834
	C301.930634,575.386780 303.855011,575.165894 305.885498,575.269287
	C304.274872,575.671692 302.558105,575.749878 300.423798,575.717834
z"/>
<path fill="#559CB5" opacity="1.000000" stroke="none"
	d="
M198.648163,48.947617
	C197.701279,49.885490 196.404709,50.855465 194.708069,51.743675
	C195.638153,50.767841 196.968307,49.873779 198.648163,48.947617
z"/>
<path fill="#63B79B" opacity="1.000000" stroke="none"
	d="
M401.705139,262.432526
	C401.708374,261.489227 401.971588,260.324463 402.620850,259.081177
	C402.659637,260.072144 402.312408,261.141602 401.705139,262.432526
z"/>
<path fill="#579AB1" opacity="1.000000" stroke="none"
	d="
M262.129883,139.713104
	C262.111450,139.047729 262.316345,138.145386 262.803589,137.135437
	C262.841675,137.843933 262.597443,138.660049 262.129883,139.713104
z"/>
<path fill="#63B79B" opacity="1.000000" stroke="none"
	d="
M409.953247,101.224396
	C410.088928,101.701347 409.966095,102.326675 409.587097,102.995728
	C409.452179,102.483887 409.573456,101.928329 409.953247,101.224396
z"/>
<path fill="#63B79B" opacity="1.000000" stroke="none"
	d="
M426.198059,201.709045
	C426.166351,201.081345 426.361969,200.218842 426.840942,199.167145
	C426.891296,199.810028 426.658356,200.642151 426.198059,201.709045
z"/>
<path fill="#579AB1" opacity="1.000000" stroke="none"
	d="
M263.311279,136.861389
	C263.230316,136.179047 263.410492,135.283615 263.910309,134.235352
	C264.010773,134.937775 263.791595,135.793045 263.311279,136.861389
z"/>
<path fill="#63B79B" opacity="1.000000" stroke="none"
	d="
M374.854797,188.396088
	C374.902954,189.009537 374.708832,189.821335 374.248657,190.809753
	C374.192566,190.189072 374.402496,189.391769 374.854797,188.396088
z"/>
<path fill="#63B79B" opacity="1.000000" stroke="none"
	d="
M408.624451,104.879807
	C408.668152,105.417778 408.475189,106.104561 408.035400,106.916962
	C407.988342,106.371262 408.188049,105.699936 408.624451,104.879807
z"/>
<path fill="#63B79B" opacity="1.000000" stroke="none"
	d="
M394.096588,281.802124
	C393.960388,281.696808 394.006134,281.532532 394.163635,281.276794
	C394.425232,281.358917 394.426270,281.544861 394.096588,281.802124
z"/>
<path fill="#284751" opacity="1.000000" stroke="none"
	d="
M353.719055,19.029686
	C353.770721,19.280527 353.546814,19.531353 353.070923,19.836704
	C353.027161,19.604040 353.235352,19.316854 353.719055,19.029686
z"/>
<path fill="#599FB9" opacity="1.000000" stroke="none"
	d="
M262.380981,18.749199
	C262.508575,19.006514 262.387451,19.343111 261.975342,19.708057
	C261.833679,19.433762 261.982971,19.131121 262.380981,18.749199
z"/>
<path fill="#63B79B" opacity="1.000000" stroke="none"
	d="
M405.948181,111.408875
	C406.068512,111.412392 405.992737,111.592560 405.978821,111.634903
	C405.964905,111.677254 405.827850,111.405365 405.948181,111.408875
z"/>
<path fill="#599FB9" opacity="1.000000" stroke="none"
	d="
M256.516907,147.315475
	C256.701294,147.355957 256.862244,147.589050 256.790680,147.856415
	C256.558167,147.890686 256.493469,147.508072 256.516907,147.315475
z"/>
<path fill="#1F4255" opacity="1.000000" stroke="none"
	d="
M121.391556,434.987610
	C120.393837,430.201813 117.445511,426.625671 115.117332,422.616486
	C113.606773,420.015228 114.294380,416.137482 113.996620,412.420105
	C114.929787,411.390533 116.145683,410.074890 116.733124,410.312561
	C117.694588,410.701569 118.579857,411.998779 118.916031,413.091705
	C120.583878,418.514099 122.165527,423.968872 123.551277,429.469208
	C124.057297,431.477692 125.439842,434.138153 121.391556,434.987610
z"/>
<path fill="#1F4255" opacity="1.000000" stroke="none"
	d="
M199.133972,455.846863
	C201.648026,451.876526 204.231247,448.283142 206.814484,444.689789
	C207.463547,444.835968 208.112595,444.982147 208.761658,445.128326
	C209.311462,447.655365 209.861267,450.182404 210.415268,452.728760
	C206.706100,453.417023 204.683487,454.583679 207.854782,458.220276
	C204.647903,457.899200 201.019684,461.269745 199.133972,455.846863
z"/>
<path fill="#1F4255" opacity="1.000000" stroke="none"
	d="
M99.363266,380.004578
	C98.360481,377.591980 97.724815,375.183777 97.043472,372.389008
	C98.270325,371.679352 99.623878,370.920715 100.795746,371.138733
	C102.418015,371.440521 105.012550,372.238434 105.229424,373.246033
	C105.772148,375.767517 105.210289,378.526733 105.091599,381.190582
	C103.304520,380.796722 101.517448,380.402832 99.363266,380.004578
z"/>
<path fill="#1F4255" opacity="1.000000" stroke="none"
	d="
M150.995728,499.998779
	C150.995728,499.998779 150.997360,499.500000 150.997772,499.250610
	C153.205765,499.390717 156.073486,499.086151 157.427017,500.373535
	C158.669159,501.555023 158.983246,504.689850 158.369614,506.514526
	C157.932144,507.815460 155.280426,508.371765 153.307495,509.130798
	C152.998169,509.001221 153.000000,509.000000 152.958420,508.679932
	C152.279007,507.905365 151.641174,507.450867 151.003342,506.996338
	C151.003342,506.996338 150.999496,506.500183 151.266479,506.028625
	C151.354202,503.704315 151.174973,501.851562 150.995728,499.998779
z"/>
<path fill="#1F4255" opacity="1.000000" stroke="none"
	d="
M104.372681,397.956970
	C103.701279,395.266632 103.398582,392.536896 103.046036,389.407043
	C103.933792,388.119110 104.871399,387.231323 105.811127,386.341522
	C109.960342,391.576111 109.576996,395.252258 104.372681,397.956970
z"/>
<path fill="#1F4255" opacity="1.000000" stroke="none"
	d="
M229.003235,412.002563
	C226.799210,420.133545 226.799210,420.133545 220.401428,419.318756
	C223.796127,416.906067 221.378006,410.298218 228.648834,411.965210
	C229.000000,412.000000 229.003235,412.002563 229.003235,412.002563
z"/>
<path fill="#1F4255" opacity="1.000000" stroke="none"
	d="
M145.361176,490.036316
	C144.446655,489.173248 143.898178,488.348938 143.174255,487.264221
	C143.252594,486.394897 143.534866,485.796051 143.754272,485.174988
	C144.205276,483.898315 144.622635,482.609772 145.053848,481.326111
	C146.368225,483.530762 148.140244,485.594391 148.874695,487.977753
	C149.690399,490.624847 147.876617,490.985962 145.361176,490.036316
z"/>
<path fill="#1F4255" opacity="1.000000" stroke="none"
	d="
M219.902557,421.444641
	C221.093109,423.839294 222.207809,425.885712 223.322510,427.932159
	C222.758041,428.373779 222.193573,428.815399 221.629105,429.257050
	C219.952820,427.553101 217.882187,426.080292 216.710220,424.080750
	C215.518509,422.047485 216.612610,421.152771 219.902557,421.444641
z"/>
<path fill="#1F4255" opacity="1.000000" stroke="none"
	d="
M130.394928,457.996399
	C129.671432,455.927551 129.342239,453.858795 129.006531,451.395020
	C131.262894,451.283752 134.474503,449.958130 134.855896,453.727234
	C135.118134,456.318817 133.883575,458.230499 130.394928,457.996399
z"/>
<path fill="#1F4255" opacity="1.000000" stroke="none"
	d="
M138.195251,472.728027
	C137.332932,471.597992 136.665710,470.195221 135.998322,468.396851
	C137.538483,468.551514 139.078781,469.101807 140.619095,469.652039
	C139.876190,470.586487 139.133270,471.520905 138.195251,472.728027
z"/>
<path fill="#1F4255" opacity="1.000000" stroke="none"
	d="
M229.999084,410.999146
	C230.301880,410.489258 230.604691,409.979370 230.907486,409.469482
	C231.117096,409.651306 231.326706,409.833099 231.536316,410.014893
	C231.213928,410.320129 230.891571,410.625366 230.284607,410.965271
	C230.000000,411.000000 229.999084,410.999146 229.999084,410.999146
z"/>
<path fill="#1F4255" opacity="1.000000" stroke="none"
	d="
M212.607361,437.045380
	C212.210464,437.287598 211.815613,437.285889 211.422958,437.255585
	C211.411942,437.254730 211.424454,436.948730 211.425980,436.784973
	C211.820557,436.789154 212.215118,436.793304 212.607361,437.045380
z"/>
<path fill="#63B79B" opacity="1.000000" stroke="none"
	d="
M359.033875,308.386292
	C359.506256,308.238739 360.083313,308.399017 360.810303,308.830902
	C360.352997,308.966370 359.745789,308.830261 359.033875,308.386292
z"/>
<path fill="#63B79B" opacity="1.000000" stroke="none"
	d="
M361.033752,309.386993
	C361.506256,309.241486 362.084320,309.402344 362.812073,309.836029
	C362.354248,309.970337 361.746796,309.831848 361.033752,309.386993
z"/>
<path fill="#1F4255" opacity="1.000000" stroke="none"
	d="
M230.000305,411.000610
	C229.899826,411.323914 229.713043,411.585114 229.221771,411.893677
	C229.003235,412.002563 229.000000,412.000000 228.998749,411.998169
	C229.099854,411.674194 229.287643,411.413666 229.779968,411.106934
	C229.999084,410.999146 230.000000,411.000000 230.000305,411.000610
z"/>
<path fill="#49B98E" opacity="1.000000" stroke="none"
	d="
M327.563843,568.997559
	C317.509460,568.999390 307.903381,568.999390 297.797424,568.999390
	C297.331757,563.937500 292.527588,565.128113 288.458557,564.775757
	C294.156860,558.725342 295.179749,559.916504 302.256073,562.950317
	C308.411499,565.589355 316.043610,564.816650 323.031586,565.460205
	C324.965546,565.638245 326.956085,565.307739 328.866028,565.585815
	C329.576721,565.689209 330.131134,566.866150 330.756775,567.553650
	C329.841888,568.034363 328.927032,568.515076 327.563843,568.997559
z"/>
<path fill="#49B98E" opacity="1.000000" stroke="none"
	d="
M383.978760,564.000000
	C380.113251,564.000000 376.733704,564.000000 372.830231,564.000000
	C375.931824,558.593872 394.522491,558.991577 401.513336,564.889404
	C395.830475,564.592957 390.147583,564.296509 383.978760,564.000000
z"/>
<path fill="#49B98E" opacity="1.000000" stroke="none"
	d="
M348.854828,566.438721
	C353.408264,566.192444 357.616333,566.192444 361.824371,566.192444
	C361.815277,566.951538 361.806183,567.710632 361.797058,568.469727
	C357.442963,568.469727 353.088654,568.479980 348.736206,568.395264
	C348.649567,568.393555 348.584564,567.279907 348.854828,566.438721
z"/>
<path fill="#49B98E" opacity="1.000000" stroke="none"
	d="
M369.615784,569.014771
	C374.468414,569.003967 378.894196,569.003967 383.320007,569.003967
	C383.315399,569.502625 383.310760,570.001221 383.306122,570.499878
	C378.117462,570.499878 372.928772,570.499878 366.775299,570.499878
	C368.068909,569.709778 368.628937,569.367737 369.615784,569.014771
z"/>
<path fill="#49B98E" opacity="1.000000" stroke="none"
	d="
M337.183197,563.604004
	C335.350800,563.815552 333.830994,563.815552 332.311218,563.815552
	C332.173035,563.312744 332.034821,562.809937 331.896637,562.307190
	C333.071472,561.647522 334.262024,560.478516 335.415405,560.514160
	C336.137817,560.536438 336.804260,562.371033 337.183197,563.604004
z"/>
<path fill="#49B98E" opacity="1.000000" stroke="none"
	d="
M481.391571,162.466248
	C480.941620,162.350143 480.665802,162.066727 480.411255,161.765335
	C480.404724,161.757599 480.632019,161.552414 480.750275,161.439331
	C481.023010,161.725082 481.295715,162.010834 481.391571,162.466248
z"/>
<path fill="#56A3C0" opacity="1.000000" stroke="none"
	d="
M268.649658,118.968674
	C267.839294,120.558296 266.693298,122.089630 265.280701,123.814995
	C265.014130,121.933571 265.014130,119.858116 265.014130,117.131363
	C266.510315,117.937981 267.412170,118.424187 268.649658,118.968674
z"/>
<path fill="#56A3C0" opacity="1.000000" stroke="none"
	d="
M265.008118,126.243279
	C265.122406,126.267456 265.232941,126.545593 265.176941,126.914444
	C265.008362,126.835846 265.006348,126.666534 265.008118,126.243279
z"/>
<path fill="#1E4153" opacity="1.000000" stroke="none"
	d="
M169.256775,542.786255
	C167.331024,539.592529 165.669907,536.176514 164.004089,532.379028
	C168.686874,534.031921 168.100601,538.822388 169.256775,542.786255
z"/>
<path fill="#1E4153" opacity="1.000000" stroke="none"
	d="
M175.998383,553.637634
	C175.442398,553.835266 174.886017,553.665649 174.160675,553.251343
	C174.179138,552.149414 174.366516,551.292114 174.553909,550.434753
	C174.816406,550.423828 175.078903,550.412842 175.341385,550.401917
	C175.560242,551.358093 175.779114,552.314209 175.998383,553.637634
z"/>
<path fill="#1E4153" opacity="1.000000" stroke="none"
	d="
M181.831543,564.754150
	C181.442780,564.830566 180.887375,564.661194 180.165070,564.245850
	C180.553741,564.169434 181.109314,564.338928 181.831543,564.754150
z"/>
<path fill="#1E4153" opacity="1.000000" stroke="none"
	d="
M150.665314,500.050476
	C151.174973,501.851562 151.354202,503.704315 151.265411,505.780579
	C150.776550,504.036743 150.555710,502.069458 150.665314,500.050476
z"/>
<path fill="#1E4153" opacity="1.000000" stroke="none"
	d="
M151.041840,507.318054
	C151.641174,507.450867 152.279007,507.905365 152.957809,508.680542
	C152.359299,508.547424 151.719818,508.093628 151.041840,507.318054
z"/>
</svg>