<svg version="1.1" id="Layer_1" xmlns="http://www.w3.org/2000/svg" xmlns:xlink="http://www.w3.org/1999/xlink" x="0px" y="0px"
	 width="100%" viewBox="0 0 720 720" enable-background="new 0 0 720 720" xml:space="preserve">
<path fill="#1E4153" opacity="1.000000" stroke="none"
	d="
M440.234955,312.010040
	C440.308319,312.491394 440.381683,312.972748 440.042114,313.852051
	C439.890900,314.835114 440.152557,315.420227 440.414215,316.005341
	C442.081238,322.705170 443.748260,329.404999 445.284698,335.580139
	C369.233032,334.028351 313.490173,368.348999 275.372498,433.652191
	C275.312256,431.103546 275.566681,428.767883 275.821106,426.432251
	C275.269073,426.159485 274.717041,425.886719 274.164978,425.613953
	C273.117584,427.122925 271.131683,428.708008 271.246399,430.122742
	C271.411743,432.161896 273.102875,434.077332 274.142883,436.045563
	C272.376587,439.786469 270.610321,443.527374 268.424103,447.165588
	C266.680298,445.096436 265.356476,443.129974 264.026886,441.154968
	C253.467911,449.132385 253.246780,451.275818 262.620361,457.917786
	C262.933838,456.188995 263.278168,454.692688 263.456757,453.176849
	C263.597809,451.979736 263.535126,450.758606 263.562927,449.548157
	C264.788544,449.791656 266.014221,450.035187 267.239868,450.278687
	C265.481171,454.522980 263.722504,458.767273 261.158508,463.024963
	C249.752716,462.402344 249.296616,462.378052 248.795593,471.787506
	C248.554153,476.321655 247.127411,482.057098 252.998825,485.423157
	C252.333191,488.898376 251.666901,491.949188 250.582626,495.000000
	C247.322327,494.674377 244.992249,495.001984 244.151825,498.446381
	C243.872681,499.590424 242.616791,501.343628 241.768433,501.366425
	C235.281998,501.540680 234.216537,506.656647 232.608582,511.133942
	C230.685959,516.487366 229.196747,522.436951 233.523026,526.903076
	C236.160431,529.625732 236.191132,531.661438 235.673935,533.806458
	C232.062408,534.625366 229.031204,535.312683 226.005005,535.629028
	C225.579468,530.415222 225.323166,525.546082 224.596756,520.748108
	C224.413422,519.537109 222.700439,518.576965 221.739975,517.458984
	C220.779526,516.341064 220.077927,514.881653 218.912155,514.085388
	C216.853622,512.679321 214.528839,511.663116 212.315506,510.483704
	C212.535645,512.315857 212.248917,514.421570 213.064438,515.932312
	C216.435425,522.177185 220.107040,528.261658 223.765625,534.346558
	C224.206772,535.080261 225.240784,535.457520 226.000015,536.429810
	C226.788055,540.679993 227.576096,544.500244 228.464630,548.807800
	C230.125031,547.459167 230.740845,546.959045 231.356659,546.458862
	C231.783478,546.636475 232.210312,546.814087 232.637131,546.991699
	C232.083847,549.839172 231.530563,552.686646 230.977264,555.534119
	C224.998993,544.056213 218.564804,532.789978 213.119553,521.064514
	C186.255981,463.218384 161.511749,404.504456 140.513672,344.226288
	C136.047577,331.405701 129.332657,319.367645 123.636375,306.977081
	C122.247200,303.955353 120.540810,301.056030 119.403931,297.945618
	C113.160858,280.864960 124.654900,263.915161 142.880753,262.921722
	C160.110397,261.982605 173.794342,269.467255 185.832321,280.759979
	C197.523270,291.727112 205.016678,305.320404 209.748077,320.520569
	C211.229645,325.280182 212.697693,330.045044 214.087234,334.832092
	C218.941559,351.555786 229.627762,358.489197 248.847412,351.933685
	C268.418915,345.258118 282.133972,331.174652 290.968933,312.886566
	C296.216125,302.025024 299.624878,290.263702 303.697540,278.848907
	C311.573517,256.774292 318.827484,234.463562 327.240356,212.597397
	C350.297241,152.669632 373.820862,92.921402 397.161316,33.102737
	C400.285339,25.096273 403.840302,17.533524 412.304657,13.531301
	C422.452118,8.733270 434.320618,9.816117 442.303986,16.669212
	C450.644165,23.828672 453.851227,35.283981 449.651764,46.191845
	C436.452393,80.476555 423.005249,114.666321 409.551147,148.852356
	C396.587463,181.792206 383.489990,214.679398 370.466644,247.595795
	C368.480347,252.616135 366.928192,257.695160 369.498108,263.010437
	C373.451447,271.187042 383.217743,274.781647 394.264587,266.790558
	C395.770691,267.684418 397.176758,268.550964 397.211212,269.468964
	C397.360474,273.445374 396.854645,277.450989 397.075958,281.418701
	C397.291046,285.275146 397.293579,289.480042 398.874969,292.830780
	C400.516388,296.308716 403.823578,299.057953 406.605072,301.929413
	C414.685455,310.271118 425.887573,313.710632 436.231750,309.258392
	C437.536804,310.155426 438.885864,311.082733 440.234955,312.010040
M169.191391,409.812531
	C169.191010,414.271118 176.806671,429.918243 180.216171,430.800293
	C179.768677,428.453430 179.503815,426.464630 178.999741,424.538422
	C177.721909,419.655670 176.423111,414.774414 174.940018,409.951813
	C174.516617,408.575012 173.434082,407.400909 172.653824,406.133850
	C171.594940,407.112457 170.536057,408.091064 169.191391,409.812531
M153.297195,372.334503
	C154.019974,375.999939 156.538727,377.681091 159.976303,377.555542
	C160.424973,377.539154 160.573929,374.101379 161.174301,372.355835
	C162.127823,369.583466 161.419724,367.777679 158.543915,367.102386
	C154.855728,366.236389 154.037247,368.893768 153.297195,372.334503
M206.875702,497.063538
	C207.864777,500.056183 208.853851,503.048828 209.842926,506.041473
	C210.674957,506.075226 211.506973,506.108948 212.339005,506.142700
	C213.206650,503.644989 214.976349,501.018433 214.644058,498.692139
	C214.397568,496.966644 211.533325,495.442444 209.570297,494.273254
	C209.152985,494.024719 207.588089,495.703064 206.875702,497.063538
M164.577820,387.210968
	C163.924820,385.607117 163.271835,384.003265 162.570007,382.279449
	C158.173782,385.638092 158.637253,390.215210 164.235031,394.302826
	C164.476852,391.788971 164.660934,389.875214 164.577820,387.210968
M204.559143,487.288666
	C205.692444,479.307648 204.914978,477.846954 199.446915,477.684784
	C199.155426,481.770874 198.854843,485.861053 204.559143,487.288666
M284.382385,410.252716
	C283.816467,409.308197 283.442627,408.007935 282.609589,407.558105
	C282.140656,407.304871 280.577698,408.243958 280.095398,409.014069
	C278.907043,410.911469 278.058319,413.021606 277.069183,415.054047
	C282.039307,417.261292 282.718597,416.829010 284.382385,410.252716
M184.826691,449.775116
	C185.979919,451.149872 187.133133,452.524597 188.286331,453.899323
	C189.155777,452.817566 190.604858,451.796295 190.725906,450.636475
	C190.838943,449.553375 189.563858,447.373596 188.860641,447.357239
	C187.441589,447.324188 185.995987,448.431885 184.826691,449.775116
M275.629486,423.802063
	C276.652283,423.888214 277.675049,423.974365 278.697845,424.060486
	C278.617554,423.115753 278.839325,421.985870 278.396484,421.263336
	C277.351135,419.557800 275.989441,418.046112 274.594971,416.248932
	C272.207764,418.877502 272.414429,421.176239 275.629486,423.802063
M195.126282,464.196259
	C193.946732,464.196259 192.767197,464.196259 191.775848,464.196259
	C192.223618,466.725555 192.557877,468.613708 192.890656,470.493439
	C196.452438,466.496735 196.452438,466.496735 195.126282,464.196259
M194.526993,460.314362
	C193.979401,459.975281 193.431793,459.636200 192.884171,459.297119
	C192.749191,459.571655 192.614197,459.846191 192.479233,460.120758
	C193.015503,460.326050 193.551758,460.531311 194.526993,460.314362
M288.567993,406.296234
	C288.295471,406.010681 288.022949,405.725128 287.750397,405.439606
	C287.632233,405.552612 287.405090,405.757629 287.411530,405.765350
	C287.665924,406.066467 287.941559,406.349670 288.567993,406.296234
M168.754547,403.825287
	C168.587997,403.880524 168.421432,403.935760 168.254883,403.990967
	C168.422440,404.044830 168.589996,404.098694 168.754547,403.825287
M288.737946,409.185425
	C288.623657,409.028015 288.509369,408.870605 288.395081,408.713226
	C288.418243,408.932220 288.441406,409.151245 288.737946,409.185425
M268.261658,432.815460
	C268.376038,432.972992 268.490417,433.130524 268.604797,433.288055
	C268.581696,433.068909 268.558563,432.849792 268.261658,432.815460
M290.588165,407.517090
	C290.588165,407.517090 290.476746,407.583740 290.588165,407.517090
M280.482483,420.588654
	C280.482483,420.588654 280.415771,420.477081 280.482483,420.588654
z"/>
<path fill="#49B98E" opacity="1.000000" stroke="none"
	d="
M324.989716,571.631714
	C316.669159,571.724915 308.345032,571.704651 300.029663,571.964539
	C296.465393,572.075928 296.288025,569.479004 296.162811,567.364136
	C295.367340,553.929871 293.596649,540.411804 294.390411,527.054626
	C296.030823,499.449493 303.961334,473.391968 318.192322,449.540161
	C343.396790,407.296265 380.126801,381.750153 428.945618,374.134796
	C433.693573,373.394165 438.572723,372.993927 443.363312,373.173615
	C447.825592,373.341034 449.802765,371.570007 451.203613,367.502136
	C456.023224,353.506592 460.960388,339.542236 466.275879,325.728821
	C476.313660,299.643280 486.677521,273.683380 496.846069,247.647949
	C507.073029,221.462845 517.210083,195.242630 527.439636,169.058563
	C528.462830,166.439545 529.854126,163.964355 531.700989,161.192810
	C534.524292,161.802124 538.574829,162.538345 538.627869,163.496033
	C539.096802,171.960907 538.875549,180.465271 538.781677,188.957123
	C538.775391,189.525467 538.253418,190.204330 537.788025,190.632751
	C534.461731,193.695038 535.170227,196.367966 537.886658,199.610901
	C540.625427,202.880493 539.176025,205.940262 534.935120,207.027634
	C531.891479,207.808029 526.104126,218.173325 527.186462,220.995850
	C527.411926,221.583740 527.961182,222.042633 528.334290,222.579636
	C529.456177,224.194229 530.564697,225.818069 531.678406,227.438309
	C529.603821,228.623199 527.591919,230.663925 525.442078,230.821457
	C520.383118,231.192154 518.812134,233.708817 518.968567,238.305023
	C519.096985,242.075531 519.347839,245.661804 516.018738,248.867432
	C513.719727,251.081192 512.488892,254.620453 511.408325,257.781860
	C510.945740,259.135315 511.935760,261.087341 512.525513,262.670654
	C513.158386,264.369690 515.157959,266.506012 514.660217,267.464874
	C513.850952,269.023987 511.482483,270.728638 509.794067,270.706329
	C503.476288,270.623016 502.522614,274.425476 503.055328,279.224274
	C503.771912,285.679535 499.618866,290.135559 496.828064,295.069977
	C494.971466,298.352661 493.647614,300.817505 497.588287,303.471222
	C498.746277,304.251038 500.005249,306.364746 499.706787,307.452362
	C499.323730,308.848083 497.484924,309.914551 496.145325,310.958740
	C494.660461,312.116272 492.405334,312.733276 491.571564,314.202087
	C487.633087,321.140381 484.003265,328.257935 480.415894,335.388336
	C479.625610,336.959137 478.888794,338.914124 479.098297,340.569305
	C480.044739,348.046204 474.934998,353.264343 472.590851,359.516083
	C470.565155,364.918427 465.768066,369.370453 466.950256,375.947327
	C467.521271,379.124146 466.161743,381.198212 462.818390,382.326508
	C461.283539,382.844452 459.292450,384.823853 459.189819,386.260620
	C458.841034,391.143036 454.572510,390.072113 452.188995,391.831207
	C449.792480,393.599945 451.611542,398.988525 446.318665,399.199707
	C445.167419,399.245605 443.255035,401.657501 443.250763,402.984741
	C443.246429,404.314941 445.025269,406.579681 446.311127,406.807800
	C449.888763,407.442352 451.130585,409.283875 451.011993,412.620483
	C450.940979,414.617828 451.440125,416.758698 450.867798,418.578674
	C450.343597,420.245636 448.807343,421.642853 447.565308,423.022308
	C446.237335,424.497162 444.731812,425.812164 443.303772,427.196899
	C444.696869,428.444733 445.936310,430.463043 447.515472,430.777924
	C450.679047,431.408752 450.960754,433.210632 451.040070,435.773682
	C451.178162,440.236633 451.486053,444.699036 451.876801,449.148163
	C452.265106,453.569733 450.238373,455.930450 445.730774,455.995972
	C444.064606,456.020172 442.390289,456.101868 440.732788,455.979523
	C437.351440,455.729889 435.825684,457.082062 435.960052,460.597443
	C436.131775,465.090515 436.241180,469.614288 435.885986,474.085785
	C435.735535,475.979675 434.669189,478.994843 433.425873,479.335571
	C431.426239,479.883606 428.916321,478.705383 426.656219,478.123688
	C424.886993,477.668335 423.169525,477.011719 421.429077,476.444550
	C420.956848,478.443787 419.890900,480.544678 420.210052,482.408356
	C420.443390,483.770844 422.303986,485.410706 423.779175,485.898041
	C427.861633,487.246704 429.934753,491.297546 426.943451,494.216705
	C423.479858,497.596771 423.362518,501.540619 424.224304,505.229523
	C424.932495,508.260925 427.302551,511.153351 429.625122,513.392639
	C430.248230,513.993408 433.335724,511.780334 435.391022,511.227325
	C437.360229,510.697540 439.752991,509.931488 441.405518,510.612946
	C442.706818,511.149597 443.777130,513.691956 443.883453,515.409424
	C444.202087,520.555969 444.362488,525.774841 443.802856,530.879822
	C443.602417,532.708191 441.457458,535.217468 439.688202,535.766357
	C437.156128,536.551941 436.094666,537.404114 435.956573,540.041321
	C435.592712,546.991028 435.499664,546.997131 428.369598,546.998108
	C395.705444,547.002380 363.041107,546.952942 330.377319,547.061218
	C326.418518,547.074341 322.462494,547.925110 319.457733,548.276367
	C320.773285,550.869690 322.434601,552.969727 322.863770,555.296997
	C323.366364,558.022278 324.544189,559.527100 327.049164,558.896484
	C330.086182,558.131958 332.938324,556.633118 335.978149,555.408630
	C340.777802,560.240845 343.538239,560.448792 349.317596,556.225159
	C352.669067,553.775879 357.721649,554.806152 360.217926,557.903748
	C361.389709,559.357788 363.527130,560.737305 365.315491,560.859985
	C370.868286,561.241150 376.470306,560.851318 382.038300,561.097473
	C383.757721,561.173523 385.429504,562.327820 387.123077,562.988464
	C386.921021,563.658997 386.718964,564.329468 386.516907,565.000000
	C377.907288,565.000000 369.297394,565.042114 360.688263,564.979797
	C357.130157,564.954041 352.940430,567.337769 350.575409,562.182800
	C350.185303,561.332520 347.842682,561.071350 346.398315,561.060120
	C334.899902,560.970337 323.399811,560.949585 311.902496,561.090759
	C310.732666,561.105164 309.577637,562.324097 308.415741,562.984009
	C309.566895,563.654358 310.685089,564.824341 311.875244,564.902771
	C315.660156,565.152222 319.471863,564.995117 323.283142,564.995117
	C323.931946,567.518188 324.460846,569.574951 324.989716,571.631714
z"/>
<path fill="#47B68D" opacity="1.000000" stroke="none"
	d="
M325.448578,571.739258
	C324.460846,569.574951 323.931946,567.518188 323.283142,564.995117
	C319.471863,564.995117 315.660156,565.152222 311.875244,564.902771
	C310.685089,564.824341 309.566895,563.654358 308.415741,562.984009
	C309.577637,562.324097 310.732666,561.105164 311.902496,561.090759
	C323.399811,560.949585 334.899902,560.970337 346.398315,561.060120
	C347.842682,561.071350 350.185303,561.332520 350.575409,562.182800
	C352.940430,567.337769 357.130157,564.954041 360.688263,564.979797
	C369.297394,565.042114 377.907288,565.000000 386.516907,565.000000
	C386.718964,564.329468 386.921021,563.658997 387.123077,562.988464
	C385.429504,562.327820 383.757721,561.173523 382.038300,561.097473
	C376.470306,560.851318 370.868286,561.241150 365.315491,560.859985
	C363.527130,560.737305 361.389709,559.357788 360.217926,557.903748
	C357.721649,554.806152 352.669067,553.775879 349.317596,556.225159
	C343.538239,560.448792 340.777802,560.240845 335.978149,555.408630
	C332.938324,556.633118 330.086182,558.131958 327.049164,558.896484
	C324.544189,559.527100 323.366364,558.022278 322.863770,555.296997
	C322.434601,552.969727 320.773285,550.869690 319.457733,548.276367
	C322.462494,547.925110 326.418518,547.074341 330.377319,547.061218
	C363.041107,546.952942 395.705444,547.002380 428.369598,546.998108
	C435.499664,546.997131 435.592712,546.991028 435.956573,540.041321
	C436.094666,537.404114 437.156128,536.551941 439.688202,535.766357
	C441.457458,535.217468 443.602417,532.708191 443.802856,530.879822
	C444.362488,525.774841 444.202087,520.555969 443.883453,515.409424
	C443.777130,513.691956 442.706818,511.149597 441.405518,510.612946
	C439.752991,509.931488 437.360229,510.697540 435.391022,511.227325
	C433.335724,511.780334 430.248230,513.993408 429.625122,513.392639
	C427.302551,511.153351 424.932495,508.260925 424.224304,505.229523
	C423.362518,501.540619 423.479858,497.596771 426.943451,494.216705
	C429.934753,491.297546 427.861633,487.246704 423.779175,485.898041
	C422.303986,485.410706 420.443390,483.770844 420.210052,482.408356
	C419.890900,480.544678 420.956848,478.443787 421.429077,476.444550
	C423.169525,477.011719 424.886993,477.668335 426.656219,478.123688
	C428.916321,478.705383 431.426239,479.883606 433.425873,479.335571
	C434.669189,478.994843 435.735535,475.979675 435.885986,474.085785
	C436.241180,469.614288 436.131775,465.090515 435.960052,460.597443
	C435.825684,457.082062 437.351440,455.729889 440.732788,455.979523
	C442.390289,456.101868 444.064606,456.020172 445.730774,455.995972
	C450.238373,455.930450 452.265106,453.569733 451.876801,449.148163
	C451.486053,444.699036 451.178162,440.236633 451.040070,435.773682
	C450.960754,433.210632 450.679047,431.408752 447.515472,430.777924
	C445.936310,430.463043 444.696869,428.444733 443.303772,427.196899
	C444.731812,425.812164 446.237335,424.497162 447.565308,423.022308
	C448.807343,421.642853 450.343597,420.245636 450.867798,418.578674
	C451.440125,416.758698 450.940979,414.617828 451.011993,412.620483
	C451.130585,409.283875 449.888763,407.442352 446.311127,406.807800
	C445.025269,406.579681 443.246429,404.314941 443.250763,402.984741
	C443.255035,401.657501 445.167419,399.245605 446.318665,399.199707
	C451.611542,398.988525 449.792480,393.599945 452.188995,391.831207
	C454.572510,390.072113 458.841034,391.143036 459.189819,386.260620
	C459.292450,384.823853 461.283539,382.844452 462.818390,382.326508
	C466.161743,381.198212 467.521271,379.124146 466.950256,375.947327
	C465.768066,369.370453 470.565155,364.918427 472.590851,359.516083
	C474.934998,353.264343 480.044739,348.046204 479.098297,340.569305
	C478.888794,338.914124 479.625610,336.959137 480.415894,335.388336
	C484.003265,328.257935 487.633087,321.140381 491.571564,314.202087
	C492.405334,312.733276 494.660461,312.116272 496.145325,310.958740
	C497.484924,309.914551 499.323730,308.848083 499.706787,307.452362
	C500.005249,306.364746 498.746277,304.251038 497.588287,303.471222
	C493.647614,300.817505 494.971466,298.352661 496.828064,295.069977
	C499.618866,290.135559 503.771912,285.679535 503.055328,279.224274
	C502.522614,274.425476 503.476288,270.623016 509.794067,270.706329
	C511.482483,270.728638 513.850952,269.023987 514.660217,267.464874
	C515.157959,266.506012 513.158386,264.369690 512.525513,262.670654
	C511.935760,261.087341 510.945740,259.135315 511.408325,257.781860
	C512.488892,254.620453 513.719727,251.081192 516.018738,248.867432
	C519.347839,245.661804 519.096985,242.075531 518.968567,238.305023
	C518.812134,233.708817 520.383118,231.192154 525.442078,230.821457
	C527.591919,230.663925 529.603821,228.623199 531.678406,227.438309
	C530.564697,225.818069 529.456177,224.194229 528.334290,222.579636
	C527.961182,222.042633 527.411926,221.583740 527.186462,220.995850
	C526.104126,218.173325 531.891479,207.808029 534.935120,207.027634
	C539.176025,205.940262 540.625427,202.880493 537.886658,199.610901
	C535.170227,196.367966 534.461731,193.695038 537.788025,190.632751
	C538.253418,190.204330 538.775391,189.525467 538.781677,188.957123
	C538.875549,180.465271 539.096802,171.960907 538.627869,163.496033
	C538.574829,162.538345 534.524292,161.802124 531.938660,160.968353
	C536.305237,150.699249 552.650330,143.198639 566.969849,149.904099
	C579.048096,155.560043 585.367004,170.479828 580.284607,183.243164
	C570.251526,208.439499 559.866638,233.495605 549.661316,258.623566
	C536.074768,292.076752 522.552063,325.555939 508.925476,358.992798
	C506.268463,365.512390 503.262299,371.889709 499.912231,378.711853
	C499.543396,379.833557 499.679626,380.576111 499.815857,381.318634
	C499.815857,381.318634 499.761078,381.720886 499.230438,381.954956
	C494.769409,384.847626 492.456604,391.552155 493.940369,395.986115
	C490.487518,407.448608 486.271484,418.746765 483.760254,430.411957
	C479.965820,448.037750 475.330597,465.594269 475.166290,483.842621
	C475.135468,487.265991 474.518768,490.684113 473.843750,494.689056
	C473.207947,495.650848 472.630219,496.030518 472.633362,496.405304
	C472.717194,506.372040 472.819305,516.339172 473.037445,526.303650
	C473.071625,527.864014 473.678955,529.411926 474.021301,530.965576
	C474.599121,538.751648 475.176971,546.537781 475.484314,555.057617
	C475.213806,559.913940 475.213806,564.036438 475.213806,567.379761
	C472.616455,569.141357 470.809845,570.366638 469.003204,571.591919
	C452.607147,571.696899 436.211151,571.817688 419.814972,571.897888
	C414.512482,571.923828 409.209442,571.843323 403.316284,571.347168
	C396.077179,570.696777 389.428772,570.497009 382.778931,570.377747
	C382.528900,570.373230 382.264862,571.149536 382.007324,571.561951
	C375.640259,571.642578 369.273224,571.723145 362.342804,571.374512
	C359.855042,571.166016 357.930634,571.386841 356.006256,571.607666
	C345.973328,571.687317 335.940369,571.767029 325.448578,571.739258
M448.430115,561.000000
	C451.460876,561.000000 454.491638,561.000000 458.139435,561.000000
	C457.358948,559.533386 457.227905,558.860107 456.914276,558.760254
	C449.254150,556.320618 441.567169,553.604858 433.377625,555.136963
	C431.366882,555.513123 429.647125,557.444885 427.793610,558.661499
	C428.003418,559.440979 428.213196,560.220520 428.423004,561.000000
	C434.766541,561.000000 441.110077,561.000000 448.430115,561.000000
M412.393127,565.000000
	C414.473419,564.828247 416.553711,564.656494 418.634003,564.484680
	C418.596252,563.926575 418.558472,563.368408 418.520721,562.810303
	C413.771698,562.810303 409.022705,562.810303 404.273682,562.810303
	C404.241730,563.408691 404.209778,564.007080 404.177826,564.605408
	C406.607086,564.736938 409.036316,564.868469 412.393127,565.000000
M391.391754,555.006836
	C389.973328,555.782104 388.554871,556.557373 387.136444,557.332642
	C388.131165,558.497620 389.105011,560.586121 390.125488,560.609192
	C391.622925,560.643005 393.153748,559.199768 394.670380,558.385925
	C393.842194,557.268799 393.014008,556.151733 391.391754,555.006836
M432.456421,567.000000
	C435.093658,567.000000 437.730896,567.000000 440.368134,567.000000
	C440.340973,566.560608 440.313812,566.121277 440.286652,565.681885
	C434.428894,565.681885 428.571106,565.681885 422.713348,565.681885
	C422.703247,566.121277 422.693115,566.560608 422.683014,567.000000
	C425.622009,567.000000 428.561005,567.000000 432.456421,567.000000
M537.202454,158.609192
	C537.206665,158.214600 537.210876,157.820023 537.215027,157.425430
	C537.051270,157.423920 536.745239,157.411453 536.744385,157.422501
	C536.714172,157.815140 536.712402,158.209976 537.202454,158.609192
z"/>
<path fill="#49B78E" opacity="1.000000" stroke="none"
	d="
M441.797363,300.955444
	C441.679718,301.782501 441.562073,302.609528 440.876099,303.723389
	C437.901306,304.495758 435.509308,305.078705 433.084351,305.439941
	C430.572327,305.814148 428.033142,306.074799 425.496796,306.195862
	C423.320160,306.299744 421.130768,306.136414 418.949432,306.104126
	C418.951843,306.117035 418.927826,306.128052 418.806763,305.793457
	C417.432526,305.008423 416.179382,304.557983 414.957947,304.081360
	C414.989655,304.055176 414.923981,304.119507 414.808502,303.792053
	C408.421082,296.832977 402.204468,290.098602 401.359100,280.412903
	C400.904114,275.200043 401.038208,269.935791 400.878937,264.527527
	C400.851349,264.360321 400.937622,264.032532 401.245239,263.885773
	C401.996796,261.741730 402.440765,259.744446 402.844727,257.579895
	C402.804718,257.412628 402.959595,257.105530 402.959595,257.105530
	C406.846313,247.424866 410.845093,237.787415 414.597809,228.055069
	C424.178192,203.209015 433.479675,178.254196 443.212433,153.468430
	C452.398163,130.075638 461.917419,106.812469 471.467133,83.565056
	C473.412170,78.830086 475.584198,73.997887 478.625702,69.940727
	C486.672852,59.206181 501.719971,56.486832 513.141296,63.140312
	C523.607117,69.237167 528.754028,84.276794 523.978088,96.018303
	C507.607544,136.264954 491.033325,176.428741 474.636322,216.664688
	C466.406616,236.859238 458.391876,257.141388 449.704437,277.697083
	C448.131012,278.719543 446.563293,279.227417 446.229645,280.171448
	C444.363037,285.452789 442.659119,290.803406 441.215546,296.214630
	C440.834900,297.641602 441.572998,299.367065 441.797363,300.955444
z"/>
<path fill="#4299C5" opacity="1.000000" stroke="none"
	d="
M244.131317,288.996124
	C244.067505,288.548462 244.003677,288.100830 244.396362,287.229004
	C245.235321,285.290680 246.029861,283.749115 245.931259,282.266937
	C245.416092,274.522156 244.445312,266.803650 244.065765,259.054810
	C243.521332,247.939468 243.434830,236.802505 242.999710,225.680771
	C242.416000,210.761200 241.612427,195.850204 241.037231,180.930359
	C240.288834,161.517365 239.633102,142.100540 239.012177,122.682983
	C238.603195,109.893852 238.297180,97.101166 238.005264,84.308693
	C237.904617,79.897934 237.353958,75.366264 238.142212,71.099190
	C239.156052,65.610924 241.310715,60.333401 242.973953,54.965099
	C242.973953,54.965099 243.003342,54.995811 243.312759,54.859814
	C246.236771,52.867817 250.893997,52.882290 249.972855,47.788582
	C249.972855,47.788582 250.116867,47.661640 250.613159,47.748550
	C252.406204,46.864040 253.702942,45.892624 254.999695,44.921211
	C254.999695,44.921211 255.185150,44.745129 255.781570,44.831520
	C261.159363,44.609493 265.940796,44.302608 270.722046,43.992096
	C273.594910,43.805523 274.971649,44.988026 275.036621,48.025654
	C275.281342,59.465569 275.768585,70.900543 275.984436,82.340782
	C276.388550,103.759132 276.671967,125.179794 276.995880,146.599625
	C277.336121,169.099762 277.721161,191.599442 277.977875,214.100555
	C278.134369,227.815613 278.787933,241.584366 275.007385,255.021194
	C275.007385,255.021194 274.995972,255.003281 274.633270,255.039413
	C273.151001,256.294861 271.519470,257.327240 270.994873,258.763824
	C267.567657,268.148956 264.110809,277.539673 261.204285,287.093018
	C259.088013,294.048920 255.669479,298.463318 247.707764,297.296600
	C247.707764,297.296600 247.978394,297.228333 247.912292,296.871277
	C246.607895,294.008179 245.369614,291.502167 244.131317,288.996124
z"/>
<path fill="#214354" opacity="1.000000" stroke="none"
	d="
M218.491760,676.049194
	C222.364914,687.014954 230.056244,693.068237 239.244431,693.087219
	C242.808289,693.094604 244.526230,692.144592 244.116623,688.302002
	C243.856628,685.862915 244.068024,683.373596 244.068024,680.865356
	C241.090637,680.657837 238.606094,680.590393 236.149536,680.292480
	C230.248520,679.576660 227.401093,676.193970 227.498779,670.190857
	C227.601044,663.905884 229.765869,661.142456 235.932861,660.740845
	C242.729172,660.298279 249.580093,660.151123 256.380035,660.464722
	C262.826904,660.762085 265.714935,663.978088 265.812988,670.348328
	C265.966797,680.337708 266.009613,690.333496 265.829956,700.321777
	C265.702118,707.428833 260.718079,710.832214 254.837952,713.004944
	C223.734116,724.497864 191.430481,699.619141 194.380936,666.523926
	C196.162048,646.545166 205.554947,631.884216 224.694550,624.720886
	C233.452835,621.442993 242.847153,621.383789 251.537048,625.055664
	C255.564636,626.757507 259.186615,630.164062 262.092529,633.566345
	C265.001373,636.971985 264.948608,641.266724 261.802032,645.010559
	C259.005005,648.338501 252.618866,650.671204 249.117798,648.691284
	C241.341476,644.293640 234.036407,643.812012 226.894241,649.660278
	C218.548401,656.494202 216.245773,665.365173 218.491760,676.049194
z"/>
<path fill="#204354" opacity="1.000000" stroke="none"
	d="
M286.019806,623.791138
	C289.278809,623.591919 292.653320,622.767456 295.769165,623.343079
	C300.205566,624.162720 303.042694,627.120667 303.023132,632.093933
	C302.990417,640.408020 303.014191,648.722351 303.014191,657.416809
	C309.684692,657.416809 316.074463,657.416809 323.193573,657.416809
	C323.193573,649.788757 323.230469,642.184387 323.178986,634.580688
	C323.150543,630.382629 323.687653,626.341431 328.042389,624.498779
	C333.097778,622.359680 338.612000,621.563599 343.255646,624.934387
	C345.281616,626.405029 346.870392,629.895386 346.894958,632.485229
	C347.125549,656.795776 347.027252,681.110168 346.893646,705.422729
	C346.862610,711.067017 342.668396,714.670959 336.326660,715.065430
	C328.328522,715.562988 324.014679,713.078064 323.628357,706.577148
	C323.116852,697.970032 323.502319,689.309570 323.502319,680.310303
	C316.479492,680.310303 310.080475,680.310303 303.020569,680.310303
	C303.020569,687.833801 303.035370,695.433044 303.016541,703.032227
	C302.996735,711.031616 299.858551,714.605286 292.438629,715.137085
	C283.920868,715.747437 280.375305,712.977905 279.590424,704.239563
	C280.367645,702.024963 280.956696,700.314270 280.962921,698.601562
	C281.028992,680.487427 280.986481,662.372986 281.008911,644.258606
	C281.017853,637.039673 279.786957,629.495483 286.019806,623.791138
z"/>
<path fill="#204556" opacity="1.000000" stroke="none"
	d="
M142.778549,707.959106
	C140.339355,713.787537 134.972076,716.282532 127.623764,715.003906
	C122.534286,714.118347 119.780403,710.869812 119.596344,704.595825
	C119.362495,696.624878 119.539757,688.641907 119.539757,680.298523
	C112.451309,680.298523 105.902832,680.298523 98.904579,680.298523
	C98.904579,688.051636 98.823669,695.668945 98.935394,703.283447
	C99.000771,707.739075 98.148140,711.681702 93.729454,713.720703
	C88.943993,715.929016 83.782578,716.286926 79.497345,713.178101
	C77.415756,711.667908 76.745827,708.211914 75.896103,705.123779
	C76.571358,703.843506 76.974922,703.076599 76.976074,702.309021
	C77.009697,679.866882 77.024071,657.424683 76.951836,634.982727
	C76.947456,633.620850 76.204086,632.261353 75.804565,630.900757
	C76.095284,629.644897 76.102997,628.222168 76.727608,627.163269
	C78.970665,623.360596 86.274300,621.562866 92.254906,623.278137
	C96.900192,624.610352 98.829727,627.973267 98.831665,632.627930
	C98.835045,640.744995 98.832611,648.862122 98.832611,657.369263
	C105.623505,657.369263 112.007797,657.369263 119.388046,657.369263
	C119.388046,654.213074 119.361122,650.816406 119.394241,647.420288
	C119.446060,642.105957 119.473984,636.790161 119.635124,631.478699
	C119.753365,627.581665 121.667923,624.821289 125.485725,623.733887
	C130.994034,622.165039 139.948959,622.108826 142.525299,629.027466
	C142.202606,655.185303 142.111328,680.678467 142.061798,706.171753
	C142.060638,706.767090 142.529114,707.363281 142.778549,707.959106
z"/>
<path fill="#4199C5" opacity="1.000000" stroke="none"
	d="
M210.720673,239.030426
	C210.789856,239.462357 210.859024,239.894287 210.503235,240.666016
	C209.723465,242.174728 209.069122,243.348404 209.087585,244.511398
	C209.112152,246.057861 209.660980,247.595993 210.112137,249.745499
	C198.442886,242.141449 188.864258,233.033478 175.447876,230.742584
	C174.105499,230.513367 172.277679,228.110184 172.149246,226.591293
	C171.217575,215.572189 170.822067,204.507874 169.900894,193.487640
	C169.604156,189.937515 168.238922,186.476715 167.362473,182.975052
	C167.274948,182.217804 167.187439,181.460556 167.412079,180.004852
	C167.812622,173.402267 167.970459,167.497452 167.913544,161.594711
	C167.905121,160.721008 166.881973,159.857101 166.328293,158.988663
	C166.272903,158.546265 166.217514,158.103882 166.592514,157.229523
	C167.712921,154.310104 168.396820,151.820923 169.093918,149.335434
	C173.243988,134.538559 182.257309,125.047554 198.680496,123.968712
	C202.781708,123.699303 205.388199,124.331055 205.092514,129.463821
	C204.725616,135.832428 204.791550,142.247452 205.056503,148.626389
	C205.570389,160.998657 206.329208,173.361221 207.083755,185.721878
	C207.131821,186.509277 208.013870,187.245789 208.507935,188.005966
	C208.644028,190.059677 208.780121,192.113388 208.606232,194.924561
	C208.203171,208.329666 208.001297,220.978516 208.139069,233.623657
	C208.158813,235.435074 209.819443,237.228607 210.720673,239.030426
z"/>
<path fill="#1F4253" opacity="1.000000" stroke="none"
	d="
M575.855225,631.947693
	C576.185181,625.993958 577.566650,624.544556 584.777710,623.564148
	C585.813904,624.337158 586.355225,624.920166 586.899597,624.922913
	C599.030151,624.984802 611.161316,625.016907 623.291260,624.923035
	C624.186340,624.916138 625.073608,623.915100 625.964478,623.376343
	C632.511475,624.840637 634.808472,628.248962 634.272278,635.703918
	C633.824463,641.930542 630.863525,645.003174 624.444885,645.163574
	C616.163086,645.370544 607.872192,645.214050 599.322388,645.214050
	C599.322388,649.617981 599.322388,653.529358 599.322388,658.060608
	C605.509888,658.060608 611.594055,658.034058 617.677917,658.067932
	C624.039551,658.103333 627.118835,660.010132 628.608398,664.738525
	C630.297913,670.101685 628.794556,674.935364 623.677734,678.164673
	C622.344360,677.481812 621.684570,676.602295 621.052368,676.621704
	C614.982361,676.807678 608.914062,677.099731 602.854919,677.505920
	C602.204773,677.549438 601.616089,678.509949 600.998901,679.045166
	C600.372070,680.006165 599.269653,680.936279 599.204773,681.933777
	C598.980896,685.379089 599.118591,688.847900 599.118591,692.872009
	C607.663757,692.872009 615.772339,692.850891 623.880798,692.878113
	C631.513428,692.903748 634.548645,695.840454 634.735535,703.294006
	C634.918518,710.591858 631.262695,714.747803 624.096741,714.833801
	C611.437256,714.985840 598.775024,714.912903 586.113892,714.910461
	C581.106201,714.909485 577.426147,712.934387 575.933838,707.141724
	C575.846130,706.228638 575.755676,706.016235 575.665283,705.803894
	C575.665283,705.803894 575.650818,705.388062 576.088684,704.937378
	C576.682251,703.853699 576.973328,703.220886 576.974060,702.587646
	C576.999390,680.236633 577.015137,657.885620 576.950745,635.534790
	C576.947266,634.338013 576.236633,633.143372 575.855225,631.947693
z"/>
<path fill="#204354" opacity="1.000000" stroke="none"
	d="
M493.264221,626.345581
	C502.651398,619.143982 511.981812,621.905945 515.233582,632.585144
	C519.443054,646.409607 523.539062,660.268616 527.756348,674.354675
	C531.527100,662.006531 535.296326,649.678162 539.052673,637.346008
	C539.585876,635.595642 540.230408,633.854919 540.526855,632.060791
	C542.135254,622.325378 551.439575,621.431152 558.548279,623.816284
	C563.680847,625.538513 565.299866,629.932861 563.550049,636.235046
	C561.863037,642.311340 559.932983,648.327759 557.899231,654.298828
	C552.060974,671.439697 546.149414,688.555847 540.198792,705.658142
	C537.268005,714.081421 529.599854,718.079224 521.627869,714.444458
	C518.801208,713.155579 516.371094,709.381409 515.258728,706.215271
	C508.967407,688.308289 503.116821,670.246216 497.148865,652.226135
	C495.265137,646.538391 493.103699,640.900208 491.825745,635.073486
	C491.254730,632.469910 492.550842,629.456848 493.264221,626.345581
z"/>
<path fill="#4198C4" opacity="1.000000" stroke="none"
	d="
M318.026367,15.212486
	C319.810730,13.515193 321.595154,11.817902 324.139832,10.054934
	C327.024506,9.765606 329.310303,9.968491 331.242432,9.237059
	C336.692902,7.173723 341.830261,7.424709 346.978638,10.099479
	C356.353455,14.970035 361.459320,27.682390 357.626129,36.550426
	C353.675964,45.689106 349.847443,54.880375 345.697693,64.282272
	C342.760071,71.523415 340.324707,78.632072 337.355011,85.510048
	C334.377441,92.406342 330.652893,98.979942 327.670715,105.874489
	C325.905121,109.956406 322.448334,113.814034 321.702454,117.375946
	C320.635925,122.469109 318.612457,124.722618 312.978973,126.782051
	C312.978973,114.021584 313.005005,101.835266 312.969910,89.649124
	C312.946167,81.402985 312.899475,73.155952 312.749115,64.911392
	C312.561462,54.622570 311.925903,44.328705 312.148895,34.051449
	C312.252808,29.262327 312.810883,24.202888 317.043701,20.479319
	C318.098999,19.550983 317.736938,17.011465 318.026367,15.212486
z"/>
<path fill="#1F4354" opacity="1.000000" stroke="none"
	d="
M434.957947,623.388977
	C441.823730,624.354065 444.299988,627.594971 443.887054,635.075256
	C443.493988,642.196411 440.962158,644.955566 434.207245,645.082764
	C426.413910,645.229553 418.615692,645.116882 410.232727,645.116882
	C410.232727,649.998474 409.997559,654.460144 410.401917,658.863037
	C410.500153,659.932617 412.695190,661.618530 413.940826,661.631775
	C419.008728,661.685669 424.092102,660.855713 429.151245,661.000305
	C435.335754,661.177124 438.175537,664.435364 438.211151,670.380981
	C438.249237,676.738098 434.934784,680.780212 428.876770,681.063049
	C422.904694,681.341797 416.909454,681.123840 410.124420,681.123840
	C410.124420,688.793152 409.970276,696.215881 410.181122,703.628296
	C410.311462,708.210510 409.348602,712.695007 404.765503,713.704590
	C400.352997,714.676575 395.284485,714.336426 390.923431,713.097290
	C389.048828,712.564636 388.232544,708.307190 387.292480,705.048035
	C387.750183,688.464355 387.860443,672.574646 387.911896,656.684753
	C387.913727,656.125061 387.331940,655.563477 387.022156,655.002747
	C386.986969,647.226379 386.908478,639.449890 386.933746,631.673706
	C386.947449,627.460938 389.278503,624.973938 393.869904,624.204468
	C407.273712,624.700134 420.029327,624.867981 432.785400,624.914124
	C433.507751,624.916748 434.233704,623.920410 434.957947,623.388977
z"/>
<path fill="#214557" opacity="1.000000" stroke="none"
	d="
M476.377502,710.041199
	C472.101257,715.609985 466.526733,715.926941 460.767059,714.711609
	C456.175262,713.742615 453.847137,709.962708 453.802979,703.919189
	C453.721466,692.760803 453.816956,681.601074 453.835510,670.441895
	C453.856262,657.950256 453.808319,645.458069 453.917694,632.967224
	C453.978729,625.994629 457.420441,623.073303 465.260803,622.974976
	C473.777588,622.868164 477.659760,625.748474 477.700653,632.930908
	C477.835297,656.580811 477.786041,680.231995 477.713013,703.882446
	C477.707001,705.827881 476.988281,707.771118 476.377502,710.041199
z"/>
<path fill="#214556" opacity="1.000000" stroke="none"
	d="
M183.472107,703.975159
	C183.282898,711.486145 179.398499,715.109741 171.426178,715.212280
	C163.699310,715.311584 159.830978,712.201843 159.785675,704.811340
	C159.638611,680.824036 159.672638,656.833984 159.882812,632.847168
	C159.947479,625.466553 163.548904,622.921326 172.359573,622.981689
	C179.859787,623.033081 183.592972,626.255249 183.809082,633.099915
	C183.956207,637.760254 183.854752,642.428345 183.402008,647.683044
	C182.630325,648.990662 182.053421,649.707458 182.051117,650.426025
	C181.996536,667.349304 181.980698,684.272888 182.062759,701.195923
	C182.067261,702.124634 182.981384,703.048828 183.472107,703.975159
z"/>
<path fill="#1F4255" opacity="1.000000" stroke="none"
	d="
M226.000000,536.429810
	C229.031204,535.312683 232.062408,534.625366 235.673935,533.806458
	C236.191132,531.661438 236.160431,529.625732 233.523026,526.903076
	C229.196747,522.436951 230.685959,516.487366 232.608582,511.133942
	C234.216537,506.656647 235.281998,501.540680 241.768433,501.366425
	C242.616791,501.343628 243.872681,499.590424 244.151825,498.446381
	C244.992249,495.001984 247.322327,494.674377 250.582626,495.454529
	C251.016327,498.649078 251.032043,501.389130 251.047760,504.129150
	C251.047760,504.129150 250.991455,504.590149 250.661194,505.107056
	C250.234619,507.788849 250.138290,509.953796 250.041962,512.118713
	C250.041962,512.118713 249.987137,512.584412 249.655304,513.113159
	C249.506851,517.086365 249.690216,520.530884 249.873596,523.975403
	C249.908936,524.735474 249.944290,525.495483 249.508850,526.738037
	C248.693741,528.088257 248.025894,528.966797 248.054779,529.821899
	C248.373260,539.252930 248.812775,548.679871 249.188690,558.109131
	C249.285248,560.531433 249.281113,562.957886 249.309372,565.382568
	C249.329453,567.105286 249.326233,568.828186 249.333405,570.551025
	C247.196136,570.171570 244.951050,570.080627 242.951218,569.333374
	C240.852997,568.549316 238.989899,567.135925 237.024048,565.997620
	C236.019043,564.564697 235.014023,563.131836 234.258942,561.122070
	C234.413498,559.554993 234.318115,558.564758 234.222748,557.574463
	C233.571884,557.858276 232.921021,558.142090 232.270142,558.425842
	C232.160614,558.273315 232.051086,558.120728 232.175262,557.377319
	C232.019379,556.583191 231.629776,556.380066 231.240158,556.176880
	C231.061203,556.078796 230.992218,555.931519 231.005249,555.634583
	C231.530563,552.686646 232.083847,549.839172 232.637131,546.991699
	C232.210312,546.814087 231.783478,546.636475 231.356659,546.458862
	C230.740845,546.959045 230.125031,547.459167 228.464630,548.807800
	C227.576096,544.500244 226.788055,540.679993 226.000000,536.429810
z"/>
<path fill="#5BA3BF" opacity="1.000000" stroke="none"
	d="
M317.706299,15.295221
	C317.736938,17.011465 318.098999,19.550983 317.043701,20.479319
	C312.810883,24.202888 312.252808,29.262327 312.148895,34.051449
	C311.925903,44.328705 312.561462,54.622570 312.749115,64.911392
	C312.899475,73.155952 312.946167,81.402985 312.969910,89.649124
	C313.005005,101.835266 312.978973,114.021584 312.978973,126.782051
	C318.612457,124.722618 320.635925,122.469109 321.702454,117.375946
	C322.448334,113.814034 325.905121,109.956406 327.670715,105.874489
	C330.652893,98.979942 334.377441,92.406342 337.355011,85.510048
	C340.324707,78.632072 342.760071,71.523415 345.725281,64.571785
	C346.339874,65.078896 346.658905,65.530121 346.977905,65.981346
	C335.874359,93.194885 324.770813,120.408432 313.667236,147.621979
	C313.295563,147.560501 312.923859,147.499008 312.552185,147.437531
	C312.387115,146.739899 312.089417,146.044800 312.076019,145.344269
	C311.385559,109.215553 310.760834,73.085503 310.018585,36.957874
	C309.850952,28.798676 311.769562,21.492943 317.706299,15.295221
M316.385864,134.190491
	C316.118042,133.722839 315.850220,133.255188 315.582367,132.787537
	C315.130157,133.546707 314.677948,134.305893 314.225739,135.065079
	C314.844391,134.955292 315.463043,134.845490 316.385864,134.190491
M314.420197,129.700867
	C314.696228,129.990372 314.972290,130.279877 315.248352,130.569382
	C315.367950,130.454666 315.597992,130.246826 315.591125,130.238678
	C315.333466,129.933029 315.053955,129.645767 314.420197,129.700867
M314.457367,141.257324
	C314.588837,140.857605 314.741425,140.462646 314.833527,140.054047
	C314.851440,139.974655 314.633942,139.842163 314.525024,139.734161
	C314.394867,140.132401 314.264740,140.530624 314.457367,141.257324
z"/>
<path fill="#234554" opacity="1.000000" stroke="none"
	d="
M376.114868,673.995728
	C379.349823,678.906677 379.550262,683.640198 376.619507,688.290161
	C374.106964,692.276489 370.172821,693.916565 365.590118,693.775146
	C360.202240,693.608948 356.370239,690.591309 354.900269,685.705444
	C353.281128,680.323792 354.801788,674.779114 358.722351,671.769409
	C362.290894,669.029968 369.298492,668.786072 373.341370,671.358276
	C374.299927,671.968201 375.052551,672.901672 376.114868,673.995728
z"/>
<path fill="#539BB3" opacity="1.000000" stroke="none"
	d="
M275.265289,254.784409
	C278.787933,241.584366 278.134369,227.815613 277.977875,214.100555
	C277.721161,191.599442 277.336121,169.099762 276.995880,146.599625
	C276.671967,125.179794 276.388550,103.759132 275.984436,82.340782
	C275.768585,70.900543 275.281342,59.465569 275.036621,48.025654
	C274.971649,44.988026 273.594910,43.805523 270.722046,43.992096
	C265.940796,44.302608 261.159363,44.609493 255.904724,44.865925
	C259.628174,43.633968 263.770355,42.143105 268.042603,41.393345
	C270.512909,40.959820 273.192871,41.720951 276.107849,41.972885
	C276.247375,42.477688 276.629517,43.234364 276.642731,43.997429
	C277.506226,93.843056 278.326904,143.689423 279.184753,193.535141
	C279.410980,206.678162 279.493134,219.831375 280.122620,232.956818
	C280.492859,240.676514 279.210052,247.808228 275.265289,254.784409
z"/>
<path fill="#539BB3" opacity="1.000000" stroke="none"
	d="
M242.686874,55.150230
	C241.310715,60.333401 239.156052,65.610924 238.142212,71.099190
	C237.353958,75.366264 237.904617,79.897934 238.005264,84.308693
	C238.297180,97.101166 238.603195,109.893852 239.012177,122.682983
	C239.633102,142.100540 240.288834,161.517365 241.037231,180.930359
	C241.612427,195.850204 242.416000,210.761200 242.999710,225.680771
	C243.434830,236.802505 243.521332,247.939468 244.065765,259.054810
	C244.445312,266.803650 245.416092,274.522156 245.931259,282.266937
	C246.029861,283.749115 245.235321,285.290680 244.461029,286.894012
	C243.381180,268.352509 242.778381,249.718231 241.987854,231.091904
	C240.187881,188.679916 238.251358,146.273697 236.473953,103.860786
	C236.056320,93.895058 235.221725,83.834160 236.151138,73.965111
	C236.749130,67.615356 240.217789,61.535938 242.686874,55.150230
z"/>
<path fill="#569BB6" opacity="1.000000" stroke="none"
	d="
M208.599854,187.564163
	C208.013870,187.245789 207.131821,186.509277 207.083755,185.721878
	C206.329208,173.361221 205.570389,160.998657 205.056503,148.626389
	C204.791550,142.247452 204.725616,135.832428 205.092514,129.463821
	C205.388199,124.331055 202.781708,123.699303 198.680496,123.968712
	C182.257309,125.047554 173.243988,134.538559 169.093918,149.335434
	C168.396820,151.820923 167.712921,154.310104 166.682785,156.904510
	C165.724106,135.540894 185.620911,117.803673 206.125839,122.118736
	C206.977646,143.698074 207.834702,165.410217 208.599854,187.564163
z"/>
<path fill="#154E4E" opacity="1.000000" stroke="none"
	d="
M402.609924,257.124023
	C402.959595,257.105530 402.804718,257.412628 402.590454,257.849670
	C401.896637,260.201965 401.417114,262.117249 400.937622,264.032532
	C400.937622,264.032532 400.851349,264.360321 400.619446,264.845001
	C397.541046,275.479675 398.070343,285.451874 403.974274,294.258087
	C406.626495,298.214111 411.214417,300.872375 414.923981,304.119507
	C414.923981,304.119507 414.989655,304.055176 415.070129,304.408386
	C416.409668,305.217102 417.668762,305.672577 418.927826,306.128052
	C418.927826,306.128052 418.951843,306.117035 419.159332,306.430420
	C426.834229,309.501312 433.976776,308.181305 440.972778,305.022278
	C440.833801,307.076996 440.694824,309.131683 440.395386,311.598206
	C438.885864,311.082733 437.536804,310.155426 436.231750,309.258392
	C425.887573,313.710632 414.685455,310.271118 406.605072,301.929413
	C403.823578,299.057953 400.516388,296.308716 398.874969,292.830780
	C397.293579,289.480042 397.291046,285.275146 397.075958,281.418701
	C396.854645,277.450989 397.360474,273.445374 397.211212,269.468964
	C397.176758,268.550964 395.770691,267.684418 394.566284,266.665100
	C396.844604,263.404877 399.552429,260.273712 402.609924,257.124023
z"/>
<path fill="#569BB6" opacity="1.000000" stroke="none"
	d="
M167.289459,183.419220
	C168.238922,186.476715 169.604156,189.937515 169.900894,193.487640
	C170.822067,204.507874 171.217575,215.572189 172.149246,226.591293
	C172.277679,228.110184 174.105499,230.513367 175.447876,230.742584
	C188.864258,233.033478 198.442886,242.141449 210.112137,249.745499
	C209.660980,247.595993 209.112152,246.057861 209.087585,244.511398
	C209.069122,243.348404 209.723465,242.174728 210.436249,240.990326
	C210.794220,245.042770 210.794220,249.110703 210.794220,252.525436
	C202.488251,247.252228 194.179749,241.658920 185.537155,236.641022
	C181.875671,234.515152 177.438202,233.766891 173.508255,232.040100
	C172.120346,231.430237 170.291489,229.841965 170.193268,228.581253
	C169.032974,213.688400 168.162872,198.772919 167.289459,183.419220
z"/>
<path fill="#5699AF" opacity="1.000000" stroke="none"
	d="
M347.182007,65.694916
	C346.658905,65.530121 346.339874,65.078896 345.993286,64.338150
	C349.847443,54.880375 353.675964,45.689106 357.626129,36.550426
	C361.459320,27.682390 356.353455,14.970035 346.978638,10.099479
	C341.830261,7.424709 336.692902,7.173723 331.242432,9.237059
	C329.310303,9.968491 327.024506,9.765606 324.472534,9.970250
	C333.589172,4.078238 345.910370,4.636641 353.769562,11.298409
	C360.855896,17.305082 362.720123,28.984369 358.328857,39.296215
	C354.631287,47.979019 351.029999,56.702831 347.182007,65.694916
z"/>
<path fill="#1F4255" opacity="1.000000" stroke="none"
	d="
M252.998169,484.998779
	C247.127411,482.057098 248.554153,476.321655 248.795593,471.787506
	C249.296616,462.378052 249.752716,462.402344 260.792023,463.062988
	C260.640411,465.859802 260.049927,468.632050 258.851318,471.766296
	C255.089005,473.700806 253.321426,475.898102 253.901184,479.765930
	C254.150269,481.427734 253.331680,483.249634 252.998169,484.998779
z"/>
<path fill="#1B3943" opacity="1.000000" stroke="none"
	d="
M285.646729,623.817200
	C279.786957,629.495483 281.017853,637.039673 281.008911,644.258606
	C280.986481,662.372986 281.028992,680.487427 280.962921,698.601562
	C280.956696,700.314270 280.367645,702.024963 279.680420,703.861328
	C279.281738,680.205933 279.215302,656.425720 279.256531,632.645630
	C279.263733,628.496948 281.043732,625.256104 285.646729,623.817200
z"/>
<path fill="#173242" opacity="1.000000" stroke="none"
	d="
M75.628815,631.276306
	C76.204086,632.261353 76.947456,633.620850 76.951836,634.982727
	C77.024071,657.424683 77.009697,679.866882 76.976074,702.309021
	C76.974922,703.076599 76.571358,703.843506 76.031403,704.784241
	C75.579575,696.325439 75.359085,687.693298 75.343971,679.060730
	C75.316315,663.257874 75.409988,647.454834 75.628815,631.276306
z"/>
<path fill="#24434D" opacity="1.000000" stroke="none"
	d="
M237.072098,566.345764
	C238.989899,567.135925 240.852997,568.549316 242.951218,569.333374
	C244.951050,570.080627 247.196136,570.171570 249.333405,570.551025
	C249.326233,568.828186 249.329453,567.105286 249.309372,565.382568
	C249.281113,562.957886 249.285248,560.531433 249.188690,558.109131
	C248.812775,548.679871 248.373260,539.252930 248.054779,529.821899
	C248.025894,528.966797 248.693741,528.088257 249.417358,527.109070
	C250.723434,541.883911 251.650208,556.770264 252.595581,571.955566
	C247.448135,571.772339 240.442169,575.340820 237.072098,566.345764
z"/>
<path fill="#539BB3" opacity="1.000000" stroke="none"
	d="
M247.816071,297.626343
	C255.669479,298.463318 259.088013,294.048920 261.204285,287.093018
	C264.110809,277.539673 267.567657,268.148956 270.994873,258.763824
	C271.519470,257.327240 273.151001,256.294861 274.643341,255.039291
	C270.153748,268.200409 265.514160,281.486328 260.320496,294.552002
	C258.212921,299.854034 253.426575,300.774689 247.816071,297.626343
z"/>
<path fill="#14343D" opacity="1.000000" stroke="none"
	d="
M575.735962,632.366150
	C576.236633,633.143372 576.947266,634.338013 576.950745,635.534790
	C577.015137,657.885620 576.999390,680.236633 576.974060,702.587646
	C576.973328,703.220886 576.682251,703.853699 576.204956,704.764893
	C575.743774,691.094238 575.547424,677.145691 575.483582,663.196655
	C575.437134,653.059692 575.565979,642.921997 575.735962,632.366150
z"/>
<path fill="#1B3943" opacity="1.000000" stroke="none"
	d="
M183.583237,703.520325
	C182.981384,703.048828 182.067261,702.124634 182.062759,701.195923
	C181.980698,684.272888 181.996536,667.349304 182.051117,650.426025
	C182.053421,649.707458 182.630325,648.990662 183.304459,648.142456
	C183.677704,666.363037 183.686035,684.714233 183.583237,703.520325
z"/>
<path fill="#1F4255" opacity="1.000000" stroke="none"
	d="
M267.221069,450.273804
	C266.014221,450.035187 264.788544,449.791656 263.562927,449.548157
	C263.535126,450.758606 263.597809,451.979736 263.456757,453.176849
	C263.278168,454.692688 262.933838,456.188995 262.620361,457.917786
	C253.246780,451.275818 253.467911,449.132385 264.026886,441.154968
	C265.356476,443.129974 266.680298,445.096436 268.165833,447.430878
	C268.327545,447.798859 268.308441,447.878296 267.979065,448.086090
	C267.508942,448.945587 267.368195,449.597260 267.227448,450.248962
	C267.227448,450.248962 267.202271,450.268951 267.221069,450.273804
z"/>
<path fill="#569BB6" opacity="1.000000" stroke="none"
	d="
M210.789230,238.565186
	C209.819443,237.228607 208.158813,235.435074 208.139069,233.623657
	C208.001297,220.978516 208.203171,208.329666 208.553864,195.365265
	C209.493561,209.399017 210.175674,223.749481 210.789230,238.565186
z"/>
<path fill="#24434D" opacity="1.000000" stroke="none"
	d="
M252.998825,485.423157
	C253.331680,483.249634 254.150269,481.427734 253.901184,479.765930
	C253.321426,475.898102 255.089005,473.700806 258.602173,472.065521
	C256.554596,482.600952 254.147995,493.199097 251.394577,503.963196
	C251.032043,501.389130 251.016327,498.649078 251.000610,495.454529
	C251.666901,491.949188 252.333191,488.898376 252.998825,485.423157
z"/>
<path fill="#0A2F3B" opacity="1.000000" stroke="none"
	d="
M625.506409,623.283630
	C625.073608,623.915100 624.186340,624.916138 623.291260,624.923035
	C611.161316,625.016907 599.030151,624.984802 586.899597,624.922913
	C586.355225,624.920166 585.813904,624.337158 585.150024,623.653809
	C598.368713,623.252441 611.708496,623.221741 625.506409,623.283630
z"/>
<path fill="#062B37" opacity="1.000000" stroke="none"
	d="
M434.500488,623.295166
	C434.233704,623.920410 433.507751,624.916748 432.785400,624.914124
	C420.029327,624.867981 407.273712,624.700134 394.240936,624.237915
	C400.211609,623.670288 406.457458,623.311096 412.707581,623.205933
	C419.817413,623.086121 426.931061,623.193054 434.500488,623.295166
z"/>
<path fill="#16323C" opacity="1.000000" stroke="none"
	d="
M142.892303,707.504456
	C142.529114,707.363281 142.060638,706.767090 142.061798,706.171753
	C142.111328,680.678467 142.202606,655.185303 142.544067,629.371826
	C143.001038,637.484924 143.375229,645.918335 143.368469,654.351562
	C143.354416,671.917725 143.138824,689.483704 142.892303,707.504456
z"/>
<path fill="#57B199" opacity="1.000000" stroke="none"
	d="
M441.958344,300.613007
	C441.572998,299.367065 440.834900,297.641602 441.215546,296.214630
	C442.659119,290.803406 444.363037,285.452789 446.229645,280.171448
	C446.563293,279.227417 448.131012,278.719543 449.509430,278.003082
	C447.299744,285.420807 444.709534,292.845703 441.958344,300.613007
z"/>
<path fill="#163240" opacity="1.000000" stroke="none"
	d="
M386.932800,655.463989
	C387.331940,655.563477 387.913727,656.125061 387.911896,656.684753
	C387.860443,672.574646 387.750183,688.464355 387.373596,704.661011
	C387.012970,688.620422 386.928192,672.272827 386.932800,655.463989
z"/>
<path fill="#49B98E" opacity="1.000000" stroke="none"
	d="
M469.446198,571.686768
	C470.809845,570.366638 472.616455,569.141357 475.213806,567.379761
	C475.213806,564.036438 475.213806,559.913940 475.434662,555.463501
	C476.257141,560.509277 476.858765,565.882996 477.519165,571.781677
	C474.429993,571.781677 472.159607,571.781677 469.446198,571.686768
z"/>
<path fill="#49B98E" opacity="1.000000" stroke="none"
	d="
M382.461456,571.681396
	C382.264862,571.149536 382.528900,570.373230 382.778931,570.377747
	C389.428772,570.497009 396.077179,570.696777 402.859283,571.239624
	C396.300323,571.664551 389.607971,571.732666 382.461456,571.681396
z"/>
<path fill="#57B199" opacity="1.000000" stroke="none"
	d="
M441.089417,304.781036
	C433.976776,308.181305 426.834229,309.501312 419.156921,306.417542
	C421.130768,306.136414 423.320160,306.299744 425.496796,306.195862
	C428.033142,306.074799 430.572327,305.814148 433.084351,305.439941
	C435.509308,305.078705 437.901306,304.495758 440.731567,304.008270
	C441.172211,304.184113 441.189117,304.361938 441.089417,304.781036
z"/>
<path fill="#1F4255" opacity="1.000000" stroke="none"
	d="
M274.371826,435.908569
	C273.102875,434.077332 271.411743,432.161896 271.246399,430.122742
	C271.131683,428.708008 273.117584,427.122925 274.164978,425.613953
	C274.717041,425.886719 275.269073,426.159485 275.821106,426.432251
	C275.566681,428.767883 275.312256,431.103546 275.092041,433.865265
	C274.951080,434.784729 274.775940,435.278168 274.371826,435.908569
z"/>
<path fill="#66A992" opacity="1.000000" stroke="none"
	d="
M474.095886,530.505249
	C473.678955,529.411926 473.071625,527.864014 473.037445,526.303650
	C472.819305,516.339172 472.717194,506.372040 472.633362,496.405304
	C472.630219,496.030518 473.207947,495.650848 473.844391,495.140137
	C474.172668,506.686188 474.171539,518.365601 474.095886,530.505249
z"/>
<path fill="#57B199" opacity="1.000000" stroke="none"
	d="
M494.028107,395.636353
	C492.456604,391.552155 494.769409,384.847626 499.084320,382.095825
	C497.684540,386.430634 495.900208,390.858612 494.028107,395.636353
z"/>
<path fill="#569BB6" opacity="1.000000" stroke="none"
	d="
M166.208664,159.441467
	C166.881973,159.857101 167.905121,160.721008 167.913544,161.594711
	C167.970459,167.497452 167.812622,173.402267 167.472321,179.626190
	C166.843262,173.262085 166.466141,166.578171 166.208664,159.441467
z"/>
<path fill="#16323C" opacity="1.000000" stroke="none"
	d="
M601.455688,679.158386
	C601.616089,678.509949 602.204773,677.549438 602.854919,677.505920
	C608.914062,677.099731 614.982361,676.807678 621.052368,676.621704
	C621.684570,676.602295 622.344360,677.481812 623.333618,678.124756
	C616.421387,678.627319 609.166931,678.949463 601.455688,679.158386
z"/>
<path fill="#539BB3" opacity="1.000000" stroke="none"
	d="
M249.644135,47.889202
	C250.893997,52.882290 246.236771,52.867817 243.292511,54.854103
	C245.080353,52.652870 247.197876,50.321346 249.644135,47.889202
z"/>
<path fill="#539BB3" opacity="1.000000" stroke="none"
	d="
M244.070679,289.388794
	C245.369614,291.502167 246.607895,294.008179 247.776581,296.914246
	C246.474686,294.803375 245.242371,292.292419 244.070679,289.388794
z"/>
<path fill="#24434D" opacity="1.000000" stroke="none"
	d="
M249.955856,523.578247
	C249.690216,520.530884 249.506851,517.086365 249.580063,513.335205
	C249.903809,516.412720 249.970978,519.796875 249.955856,523.578247
z"/>
<path fill="#49B98E" opacity="1.000000" stroke="none"
	d="
M356.423828,571.717896
	C357.930634,571.386841 359.855042,571.166016 361.885498,571.269409
	C360.274811,571.671753 358.558105,571.749939 356.423828,571.717896
z"/>
<path fill="#24434D" opacity="1.000000" stroke="none"
	d="
M250.363251,511.972565
	C250.138290,509.953796 250.234619,507.788849 250.586639,505.326965
	C250.789749,507.295441 250.737152,509.560944 250.363251,511.972565
z"/>
<path fill="#1E4153" opacity="1.000000" stroke="none"
	d="
M232.314453,558.669006
	C232.921021,558.142090 233.571884,557.858276 234.222748,557.574463
	C234.318115,558.564758 234.413498,559.554993 234.211578,560.791260
	C233.395767,560.328857 232.877274,559.620483 232.314453,558.669006
z"/>
<path fill="#539BB3" opacity="1.000000" stroke="none"
	d="
M254.649521,44.953873
	C253.702942,45.892624 252.406204,46.864040 250.708435,47.760235
	C251.638062,46.785522 252.968704,45.886028 254.649521,44.953873
z"/>
<path fill="#57B199" opacity="1.000000" stroke="none"
	d="
M500.000275,381.180298
	C499.679626,380.576111 499.543396,379.833557 499.751129,379.033905
	C500.124939,379.665192 500.154846,380.353577 500.000275,381.180298
z"/>
<path fill="#154E4E" opacity="1.000000" stroke="none"
	d="
M440.510956,315.648254
	C440.152557,315.420227 439.890900,314.835114 439.806152,314.140991
	C440.191284,314.451691 440.399506,314.871399 440.510956,315.648254
z"/>
<path fill="#1E4153" opacity="1.000000" stroke="none"
	d="
M267.487793,450.044159
	C267.368195,449.597260 267.508942,448.945587 267.948761,448.113464
	C268.081238,448.568512 267.914673,449.203918 267.487793,450.044159
z"/>
<path fill="#1E4153" opacity="1.000000" stroke="none"
	d="
M231.276733,556.434814
	C231.629776,556.380066 232.019379,556.583191 232.215622,557.098511
	C231.785950,557.171326 231.549637,556.932007 231.276733,556.434814
z"/>
<path fill="#80989F" opacity="1.000000" stroke="none"
	d="
M575.528870,705.950684
	C575.755676,706.016235 575.846130,706.228638 575.886841,706.783630
	C575.688904,706.783264 575.540649,706.440369 575.528870,705.950684
z"/>
<path fill="#1F4255" opacity="1.000000" stroke="none"
	d="
M226.005020,535.629028
	C225.240784,535.457520 224.206772,535.080261 223.765625,534.346558
	C220.107040,528.261658 216.435425,522.177185 213.064438,515.932312
	C212.248917,514.421570 212.535645,512.315857 212.315506,510.483704
	C214.528839,511.663116 216.853622,512.679321 218.912155,514.085388
	C220.077927,514.881653 220.779526,516.341064 221.739975,517.458984
	C222.700439,518.576965 224.413422,519.537109 224.596756,520.748108
	C225.323166,525.546082 225.579468,530.415222 226.005020,535.629028
z"/>
<path fill="#1F4255" opacity="1.000000" stroke="none"
	d="
M169.334290,409.441101
	C170.536057,408.091064 171.594940,407.112457 172.653809,406.133850
	C173.434082,407.400909 174.516617,408.575012 174.940018,409.951813
	C176.423111,414.774414 177.721909,419.655670 178.999741,424.538422
	C179.503815,426.464630 179.768677,428.453430 180.216171,430.800293
	C176.806671,429.918243 169.191010,414.271118 169.334290,409.441101
z"/>
<path fill="#1F4255" opacity="1.000000" stroke="none"
	d="
M153.304718,371.957794
	C154.037247,368.893768 154.855728,366.236389 158.543915,367.102386
	C161.419724,367.777679 162.127823,369.583466 161.174301,372.355835
	C160.573929,374.101379 160.424973,377.539154 159.976303,377.555542
	C156.538727,377.681091 154.019974,375.999939 153.304718,371.957794
z"/>
<path fill="#1F4255" opacity="1.000000" stroke="none"
	d="
M206.713806,496.778625
	C207.588089,495.703064 209.152985,494.024719 209.570297,494.273254
	C211.533325,495.442444 214.397568,496.966644 214.644058,498.692139
	C214.976349,501.018433 213.206650,503.644989 212.339005,506.142700
	C211.506973,506.108948 210.674957,506.075226 209.842926,506.041473
	C208.853851,503.048828 207.864777,500.056183 206.713806,496.778625
z"/>
<path fill="#1F4255" opacity="1.000000" stroke="none"
	d="
M164.711426,387.586212
	C164.660934,389.875214 164.476852,391.788971 164.235031,394.302826
	C158.637253,390.215210 158.173782,385.638092 162.570007,382.279449
	C163.271835,384.003265 163.924820,385.607117 164.711426,387.586212
z"/>
<path fill="#1F4255" opacity="1.000000" stroke="none"
	d="
M204.224487,487.418335
	C198.854843,485.861053 199.155426,481.770874 199.447083,477.684692
	C204.914978,477.846954 205.692444,479.307648 204.224487,487.418335
z"/>
<path fill="#1F4255" opacity="1.000000" stroke="none"
	d="
M284.261536,410.597565
	C282.718597,416.829010 282.039307,417.261292 277.069183,415.054047
	C278.058319,413.021606 278.907043,410.911469 280.095398,409.014069
	C280.577698,408.243958 282.140656,407.304871 282.609589,407.558105
	C283.442627,408.007935 283.816467,409.308197 284.261536,410.597565
z"/>
<path fill="#1F4255" opacity="1.000000" stroke="none"
	d="
M184.694016,449.422089
	C185.995987,448.431885 187.441589,447.324188 188.860641,447.357239
	C189.563858,447.373596 190.838943,449.553375 190.725906,450.636475
	C190.604858,451.796295 189.155777,452.817566 188.286346,453.899353
	C187.133133,452.524597 185.979919,451.149872 184.694016,449.422089
z"/>
<path fill="#1F4255" opacity="1.000000" stroke="none"
	d="
M275.312866,423.593475
	C272.414429,421.176239 272.207764,418.877502 274.594971,416.248932
	C275.989441,418.046112 277.351135,419.557800 278.396484,421.263336
	C278.839325,421.985870 278.617554,423.115753 278.697845,424.060486
	C277.675049,423.974365 276.652283,423.888214 275.312866,423.593475
z"/>
<path fill="#1F4255" opacity="1.000000" stroke="none"
	d="
M195.462921,464.368744
	C196.452438,466.496735 196.452438,466.496735 192.890656,470.493439
	C192.557877,468.613708 192.223618,466.725555 191.775848,464.196259
	C192.767197,464.196259 193.946732,464.196259 195.462921,464.368744
z"/>
<path fill="#1F4255" opacity="1.000000" stroke="none"
	d="
M194.307510,460.525482
	C193.551758,460.531311 193.015503,460.326050 192.479218,460.120758
	C192.614197,459.846191 192.749191,459.571655 192.884186,459.297119
	C193.431793,459.636200 193.979401,459.975281 194.307510,460.525482
z"/>
<path fill="#1F4255" opacity="1.000000" stroke="none"
	d="
M288.391205,406.465729
	C287.941559,406.349670 287.665924,406.066467 287.411530,405.765350
	C287.405090,405.757629 287.632233,405.552612 287.750397,405.439606
	C288.022949,405.725128 288.295471,406.010681 288.391205,406.465729
z"/>
<path fill="#1F4255" opacity="1.000000" stroke="none"
	d="
M168.756042,403.988953
	C168.589996,404.098694 168.422440,404.044830 168.254883,403.990967
	C168.421432,403.935760 168.587997,403.880524 168.756042,403.988953
z"/>
<path fill="#1F4255" opacity="1.000000" stroke="none"
	d="
M288.601257,409.277832
	C288.441406,409.151245 288.418243,408.932220 288.395081,408.713226
	C288.509369,408.870605 288.623657,409.028015 288.601257,409.277832
z"/>
<path fill="#1F4255" opacity="1.000000" stroke="none"
	d="
M268.398560,432.723053
	C268.558563,432.849792 268.581696,433.068909 268.604797,433.288055
	C268.490417,433.130524 268.376038,432.972992 268.398560,432.723053
z"/>
<path fill="#1F4255" opacity="1.000000" stroke="none"
	d="
M290.532471,407.550415
	C290.476746,407.583740 290.588165,407.517090 290.532471,407.550415
z"/>
<path fill="#1F4255" opacity="1.000000" stroke="none"
	d="
M280.449127,420.532867
	C280.415771,420.477081 280.482483,420.588654 280.449127,420.532867
z"/>
<path fill="#49B98E" opacity="1.000000" stroke="none"
	d="
M447.941864,561.000000
	C441.110077,561.000000 434.766541,561.000000 428.423004,561.000000
	C428.213196,560.220520 428.003418,559.440979 427.793610,558.661499
	C429.647125,557.444885 431.366882,555.513123 433.377625,555.136963
	C441.567169,553.604858 449.254150,556.320618 456.914276,558.760254
	C457.227905,558.860107 457.358948,559.533386 458.139435,561.000000
	C454.491638,561.000000 451.460876,561.000000 447.941864,561.000000
z"/>
<path fill="#49B98E" opacity="1.000000" stroke="none"
	d="
M411.929321,565.000000
	C409.036316,564.868469 406.607086,564.736938 404.177826,564.605408
	C404.209778,564.007080 404.241730,563.408691 404.273682,562.810303
	C409.022705,562.810303 413.771698,562.810303 418.520721,562.810303
	C418.558472,563.368408 418.596252,563.926575 418.634003,564.484680
	C416.553711,564.656494 414.473419,564.828247 411.929321,565.000000
z"/>
<path fill="#49B98E" opacity="1.000000" stroke="none"
	d="
M391.788818,555.020752
	C393.014008,556.151733 393.842194,557.268799 394.670349,558.385864
	C393.153748,559.199768 391.622925,560.643005 390.125488,560.609192
	C389.105011,560.586121 388.131165,558.497620 387.136444,557.332642
	C388.554871,556.557373 389.973328,555.782104 391.788818,555.020752
z"/>
<path fill="#49B98E" opacity="1.000000" stroke="none"
	d="
M431.978210,567.000000
	C428.561005,567.000000 425.622009,567.000000 422.683014,567.000000
	C422.693115,566.560608 422.703247,566.121277 422.713348,565.681885
	C428.571106,565.681885 434.428894,565.681885 440.286652,565.681885
	C440.313812,566.121277 440.340973,566.560608 440.368134,567.000000
	C437.730896,567.000000 435.093658,567.000000 431.978210,567.000000
z"/>
<path fill="#49B98E" opacity="1.000000" stroke="none"
	d="
M536.954590,158.606842
	C536.712402,158.209976 536.714172,157.815140 536.744385,157.422501
	C536.745239,157.411453 537.051270,157.423920 537.215027,157.425430
	C537.210876,157.820023 537.206665,158.214600 536.954590,158.606842
z"/>
<path fill="#57B199" opacity="1.000000" stroke="none"
	d="
M414.808502,303.792053
	C411.214417,300.872375 406.626495,298.214111 403.974274,294.258087
	C398.070343,285.451874 397.541046,275.479675 400.647034,265.012207
	C401.038208,269.935791 400.904114,275.200043 401.359100,280.412903
	C402.204468,290.098602 408.421082,296.832977 414.808502,303.792053
z"/>
<path fill="#57B199" opacity="1.000000" stroke="none"
	d="
M401.245239,263.885773
	C401.417114,262.117249 401.896637,260.201965 402.630432,258.016907
	C402.440765,259.744446 401.996796,261.741730 401.245239,263.885773
z"/>
<path fill="#57B199" opacity="1.000000" stroke="none"
	d="
M418.806763,305.793457
	C417.668762,305.672577 416.409668,305.217102 415.038391,304.434570
	C416.179382,304.557983 417.432526,305.008423 418.806763,305.793457
z"/>
<path fill="#4198C4" opacity="1.000000" stroke="none"
	d="
M316.233765,134.463104
	C315.463043,134.845490 314.844391,134.955292 314.225739,135.065079
	C314.677948,134.305893 315.130157,133.546707 315.582367,132.787537
	C315.850220,133.255188 316.118042,133.722839 316.233765,134.463104
z"/>
<path fill="#4198C4" opacity="1.000000" stroke="none"
	d="
M314.598816,129.528458
	C315.053955,129.645767 315.333466,129.933029 315.591125,130.238678
	C315.597992,130.246826 315.367950,130.454666 315.248352,130.569366
	C314.972290,130.279877 314.696228,129.990372 314.598816,129.528458
z"/>
<path fill="#4198C4" opacity="1.000000" stroke="none"
	d="
M314.295959,141.093094
	C314.264740,140.530624 314.394867,140.132401 314.525024,139.734161
	C314.633942,139.842163 314.851440,139.974655 314.833527,140.054047
	C314.741425,140.462646 314.588837,140.857605 314.295959,141.093094
z"/>
</svg>