<svg xmlns="http://www.w3.org/2000/svg" viewBox="0 0 1024 1024"><path fill="#fbfbfb" stroke="#fbfbfb" d="M470.994 167.934c-8.413 2.559-15.735 9.932-18.456 18.586-1.642 5.22-1.678 9.212-.575 64.259.647 32.281 1.344 58.861 1.548 59.065.205.205 1.112-1.364 2.016-3.486 2.647-6.208 16.179-38.735 21.991-52.858 2.943-7.15 9.499-22.9 14.571-35 10.346-24.685 11.6-31.318 7.572-40.025-4.178-9.03-17.514-13.933-28.667-10.541M558 172.406c-7.328 2.76-8.586 3.494-11.57 6.747-5.32 5.801-3.935 2.587-31.408 72.847-2.688 6.875-7.89 20.15-11.561 29.5-3.671 9.35-8.69 22.175-11.153 28.5l-11.297 29c-6.918 17.757-28.343 73.423-30.022 78-.504 1.375-2.55 8.125-4.547 15-7.805 26.875-8.915 30.022-14.548 41.248-16.272 32.43-53.886 51.993-69.169 35.975-2.504-2.623-7.695-12.583-7.715-14.801-.03-3.334-8.447-25.522-12.507-32.969-18.219-33.423-59.121-48.779-77.324-29.031-10.177 11.041-9.739 18.202 2.622 42.862 5.021 10.019 11.176 24.066 13.677 31.216 8.936 25.55 12.842 36.225 19.024 52 10.489 26.767 34.603 83.963 43.002 102 13 27.917 16.495 35.202 21.831 45.5 3.277 6.325 8.357 15.212 11.289 19.75l5.331 8.25h6.523c4.56 0 6.517-.376 6.505-1.25-.01-.687-.683-5.3-1.495-10.25-18.477-112.55 70.236-224.482 178.272-224.932 14.07-.059 16.169-.27 15.587-1.568-6.924-15.439-7.017-28.419-.326-45.5 16.857-43.029 51.909-129.956 64.92-161 16.065-38.328 17.04-42.024 13.526-51.226-6.596-17.27-27.892-23.16-42.128-11.65-5.3 4.285-7.793 8.813-15.211 27.626-3.308 8.387-11.5 28.75-18.205 45.25-6.706 16.5-12.988 32.025-13.961 34.5-10.891 27.701-15.231 39.114-18.251 48-10.008 29.44-13.001 35.357-22.357 44.197-10.734 10.142-25.339 5.393-25.35-8.242-.003-3.382 2.279-10.292 8.919-27 16.232-40.85 31.84-80.318 35.575-89.955 2.024-5.225 8.551-21.875 14.503-37 26.853-68.235 25.896-64.948 21.96-75.407-5.125-13.622-20.163-21.007-32.961-16.187m-161.71 33.085c-17.343 8.677-21.222 19.64-19.37 54.748 3.063 58.06 5.335 111.79 7.009 165.761.56 18.046 1.279 28.422 2.092 30.182 2.421 5.245 11.398 6.164 14.462 1.481.778-1.19 4.778-11.163 8.888-22.163s8.459-22.25 9.666-25l2.193-5-1.233-83c-.678-45.65-1.518-91.325-1.865-101.5l-.632-18.5-7.037-.29c-6.37-.262-7.712.049-14.173 3.281m-64.79 78.158c-10.396 3.23-19.7 13.081-22.932 24.283-2.037 7.055-1.968 15.079.447 52.568 2.188 33.97 1.86 32.691 8.726 33.979 7.144 1.34 20.732 9.245 29.047 16.899 2.574 2.369 4.649 3.582 5.192 3.034.54-.544.345-12.814-.484-30.412-1.155-24.528-2.946-69.55-3.799-95.5l-.197-6-5.5-.202c-3.025-.112-7.75.496-10.5 1.351m357.303 25.75c-11.098 2.988-16.101 8.627-22.437 25.288-7.284 19.155-13.965 36.321-23.865 61.313-33.585 84.789-39.574 100.34-47.165 122.465-2.447 7.131-4.871 13.475-5.388 14.098-.517.623-5.554 1.427-11.194 1.788-76.739 4.904-136.887 69.319-143.703 153.899-1.049 13.024.227 35.151 2.524 43.75.353 1.322 11.134 1.47 90.663 1.251l90.262-.25-.072-2.75c-.039-1.513-.687-8.826-1.439-16.251-5.791-57.155 4.473-127.292 25.499-174.252.8-1.786 4.432-10.898 8.071-20.248 3.639-9.35 7.221-18.35 7.96-20 .738-1.65 3.782-9.075 6.762-16.5 6.952-17.315 29.897-73.77 34.75-85.5 19.18-46.354 23.113-57.031 23.093-62.693-.061-17.967-16.568-30.187-34.321-25.408M370.65 783.997c-16.227 2.897-31.426 18.641-34.645 35.889-4.275 22.909 5.267 43.206 24.866 52.896 13.239 6.546 34.274 5.073 42.309-2.962L407 866v-19.444c0-19.117-.041-19.492-2.415-22.25l-2.415-2.806h-14.558c-17.682 0-19.112.748-19.112 10 0 7.474 2.271 9.711 10.461 10.304l6.039.436v5.361c0 4.888-.221 5.416-2.507 5.99-10.75 2.698-23.383-10.065-23.461-23.703-.091-15.964 15.734-27.585 28.355-20.821 7.859 4.213 17.613-.684 17.613-8.842 0-11.524-16.647-19.388-34.35-16.228m268.85-.335c-3.943 1.049-7.5 5.471-7.5 9.324 0 1.986 5.622 20.451 12.493 41.033 14.333 42.933 14.083 42.481 23.456 42.481 10.999 0 9.924 2.021 28.655-53.863 10.878-32.454 11.006-36.049 1.373-38.643-7.823-2.107-14.17.938-16.335 7.836-.807 2.568-2.845 9.17-4.53 14.67-7.665 25.021-8.97 28.842-9.045 26.5-.177-5.554-12.942-44.33-15.403-46.79-2.461-2.462-8.844-3.697-13.164-2.548m-420.577 3.261L216 789.846v39.643c0 45.645-.258 44.194 8.266 46.554 4.606 1.275 10.001-.006 13.375-3.176 2.273-2.135 2.359-2.755 2.359-17.078v-14.861l9.75.286 9.75.286.522 14.5c.682 18.965 1.717 20.636 12.629 20.37 12.353-.3 12.544-1.074 12.157-49.207l-.308-38.338-2.806-2.412c-2.279-1.961-3.911-2.413-8.703-2.413-11.677 0-12.991 2.139-12.991 21.149V818h-20v-14.545c0-14.11-.073-14.619-2.455-17-3.879-3.88-14.542-3.612-18.622.468m85.733-1.79c-4.33 2.517-4.657 5.723-4.641 45.585.011 28.082.334 38.424 1.258 40.282 3.244 6.525 15.215 7.666 20.89 1.991l2.837-2.837v-39.53c0-41.778-.173-43.471-4.657-45.514-3.086-1.406-13.254-1.391-15.687.023m119.665.016c-4.534 2.275-4.821 4.94-4.821 44.851 0 39.915.29 42.614 4.816 44.776 5.84 2.788 12.368 2.477 16.715-.797 2.393-1.802 2.484-2.331 2.969-17.169l.5-15.31 9.679-.285 9.679-.286.321 15.595c.314 15.231.378 15.638 2.785 17.451 4.739 3.57 14.214 3.085 18.507-.948 2.26-2.123 2.284-2.427 3.014-37.964 1.027-50.004.777-51.063-12.016-51.063-5.987 0-6.904.281-9.546 2.923L464 789.846V818h-19.9l-.439-15.25c-.486-16.893-.536-17.318-2.078-17.649-4.146-.888-15.457-.856-17.262.048m107.885-.101C527.353 786.995 527 790.047 527 830c0 45.891.057 46.102 12.501 46.214 10.662.095 12.499-3.114 12.499-21.839V843l9.75-.004c11.949-.004 15.543-1.655 17.228-7.913 2.708-10.057-2.025-14.083-16.555-14.083H552v-13.773l14.107-.387c13.982-.384 14.129-.413 16.5-3.17 3.841-4.465 3.476-13.581-.684-17.081L578.847 784l-22.174.063c-12.195.035-23.205.478-24.467.985m66.45.085c-4.321 2.511-4.656 5.76-4.654 45.085.001 33.491.179 37.638 1.75 40.782 3.307 6.621 14.692 7.71 20.446 1.956l2.802-2.802v-39.643c0-40.514-.159-42.346-3.913-45.229-1.959-1.504-13.914-1.613-16.431-.149m120.369.842c-3.061 3.061-3.123 4.068-2.815 45.862l.29 39.338 2.806 2.412c2.797 2.406 2.878 2.413 26.827 2.413h24.021l3.04-3.04c2.847-2.847 3.013-3.422 2.607-9.039-.709-9.798-1.722-10.35-19.771-10.762-16.606-.379-15.815.029-15.179-7.825l.35-4.334h11.384c14.374 0 17.503-1.895 17.568-10.638.072-9.917-2.235-11.362-18.146-11.362h-10.863l-.693-5.546c-.381-3.05-.508-5.73-.282-5.956.226-.226 6.968-.473 14.983-.549 13.907-.133 14.692-.249 17.165-2.542 4.784-4.436 4.711-13.446-.145-17.949L769.52 784h-24.26c-22.822 0-24.377.117-26.235 1.975m-217.576 45.576c-8.33 4.111-8.742 16.633-.711 21.596 7.519 4.647 17.782-.147 18.949-8.851 1.39-10.363-8.732-17.436-18.238-12.745" fill-rule="evenodd"/><path fill="#48b88c" stroke="#48b88c" d="M472.5 167.876c-7.599 1.999-14.956 8.304-18.695 16.024-2.173 4.485-2.221 5.335-1.938 34.073.16 16.211.47 29.763.688 30.117.219.353.432 13.977.475 30.276.042 16.299.273 29.634.514 29.634.711 0 6.047-12.077 15.685-35.5 12.003-29.171 17.435-42.267 24.265-58.5 9.126-21.692 9.938-27.825 4.862-36.723-4.371-7.663-16.162-11.95-25.856-9.401m87.647 4.188c-12.074 2.404-16.576 7.875-25.681 31.204A29834.289 29834.289 0 0 1 500.473 290a8496.052 8496.052 0 0 0-19.475 50c-5.402 14.025-13.5 34.95-17.995 46.5-10.641 27.34-12.246 31.856-15.987 45-10.352 36.371-16.935 50.106-30.64 63.926-12.721 12.828-28.524 20.318-40.795 19.333-11.436-.918-16.449-6.291-21.61-23.163-7.602-24.851-13.619-36.105-25.849-48.345-26.415-26.436-62.404-25.843-69.199 1.139-1.66 6.595.106 12.786 8.018 28.11 7.683 14.878 13.031 27.633 19.076 45.5 21.615 63.878 73.273 181.295 92.737 210.786l3.488 5.286 6.129-.669c3.371-.367 6.221-.738 6.333-.823.112-.084-.449-3.737-1.246-8.117-5.077-27.907-1.626-66.254 8.664-96.258 26.68-77.798 94.342-130.352 168.195-130.64 19.139-.074 17.662.951 13.779-9.565-2.518-6.82-2.775-19.973-.557-28.49 1.361-5.224 21.435-56.27 41.297-105.01 18.688-45.861 24.73-60.575 32.483-79.11 11.369-27.179 11.844-33.456 3.376-44.574-9.401-12.34-29.28-13.025-39.521-1.361-4.199 4.781-5.005 6.456-14.631 30.39-4.569 11.36-14.94 37.08-23.047 57.155-15.739 38.976-21.281 53.558-30.588 80.481-3.229 9.34-6.687 17.665-7.684 18.5-.998.836-3.51 3.654-5.582 6.263-8.454 10.648-19.706 12.917-26.29 5.301-6.623-7.663-7.367-4.716 16.158-64.045 13.194-33.275 42.093-106.737 55.271-140.5 6.59-16.884 7.601-20.305 7.537-25.5-.208-16.881-15.281-28.798-32.171-25.436M404.5 202.986c-10.946 2.362-19.504 9.217-24.07 19.28-3.776 8.323-4.085 16.83-2.027 55.734 1.702 32.158 3.913 87.412 5.601 140 1.335 41.559 1.439 42 9.923 42 5.373 0 6.731-2.001 13.043-19.214 2.881-7.857 7.232-19.374 9.67-25.593l4.432-11.306-1.077-62.694c-1.529-88.975-2.684-137.215-3.299-137.83-1.013-1.013-8.217-1.236-12.196-.377m-73.618 81.395c-9.87 3.527-17.202 10.98-20.906 21.253-2.963 8.215-3.056 17.728-.544 55.328.863 12.904 1.568 25.113 1.568 27.132v3.67l8.349 2.603c8.938 2.787 20.424 9.617 28.153 16.741l4.498 4.147-.002-6.378c0-3.507-.445-15.602-.989-26.877-1.189-24.684-4.009-92.378-4.009-96.244 0-2.719-.085-2.755-6.25-2.712-3.437.024-7.878.626-9.868 1.337m360.462 24.676c-13.783 2.675-17.676 7.722-28.886 37.443-3.112 8.25-10.746 27.825-16.964 43.5-22.873 57.657-26.917 67.945-35.183 89.5-4.639 12.1-10.67 28.466-13.402 36.369-6.748 19.526-5.14 17.731-16.619 18.547-79.699 5.663-140.753 72.466-144.94 158.584-.538 11.07.536 28.179 2.333 37.165l.559 2.794 89.879.03 89.879.031-.012-2.26c-.007-1.243-.673-9.01-1.48-17.26-3.831-39.166-.592-84.953 8.63-122 5.743-23.07 10.329-35.961 31.132-87.5 23.582-58.425 31.194-77.202 42.366-104.5l17.398-42.513c7.012-17.135 7.832-21.496 5.531-29.412-3.757-12.922-17.059-21.073-30.221-18.518M219.306 786.413l-2.806 2.412-.3 37.838c-.327 41.379-.181 43.447 3.321 46.949 4.297 4.296 16.651 2.673 19.449-2.557.567-1.058 1.03-8.253 1.03-15.989V841h20l.006 12.25c.008 19.387 1.848 22.75 12.443 22.75 4.657 0 6.019-.446 8.713-2.853l3.193-2.853.453-37.987c.501-42.044.271-44.18-5.052-46.933-4.468-2.311-14.092-1.482-17.045 1.469-2.05 2.048-2.236 3.306-2.554 17.232l-.342 15.022-7.158-.503c-3.936-.277-8.395-.524-9.907-.549L240 818v-28.154l-2.923-2.923c-4.011-4.01-13.387-4.28-17.771-.51m85.457-.848c-1.506.817-3.081 2.712-3.5 4.21-.996 3.558-.995 76.897.001 80.457 1.747 6.24 14.189 8.016 19.97 2.85l3.266-2.918V788.827l-2.806-2.414c-3.333-2.867-12.376-3.32-16.931-.848m59.129.789c-32.522 13.379-38.73 59.422-10.959 81.287 14.903 11.734 40.482 12.391 50.504 1.297l3.563-3.944v-18.047c0-25.584-.267-25.947-19.097-25.947-13.477 0-17.172 1.254-18.872 6.407-2.609 7.904 1.36 13.365 10.393 14.297l5.667.585-.295 5.606-.296 5.605-4.184.304c-7.307.532-16.38-5.905-19.765-14.022-7.035-16.866 8.085-37.773 23.333-32.263 9.639 3.484 14.655 3.161 18.701-1.205 5.815-6.275-.222-17.405-11.484-21.176-6.137-2.055-20.857-1.397-27.209 1.216m61.128-1.07c-4.96 2.51-5.045 3.33-4.773 46.053l.253 39.838 2.806 2.412c4.384 3.77 13.76 3.501 17.771-.51l2.923-2.923V841h19.856l.322 15.089.322 15.089 2.806 2.411c4.946 4.25 16.855 2.716 19.664-2.534 1.571-2.935 1.334-81.076-.252-83.142-4.648-6.054-19.246-4.914-21.761 1.7-.526 1.384-.957 8.579-.957 15.988v13.471l-9.75-.286-9.75-.286-.276-14.683-.277-14.684-3.05-2.566c-3.456-2.908-11.397-3.549-15.877-1.283m108.98-.578c-.825.302-2.513 1.47-3.75 2.596l-2.25 2.047.032 40.575c.024 30.319.34 40.977 1.25 42.163 3.637 4.737 13.718 5.467 18.614 1.347l3.05-2.566.277-14.184.277-14.184 11.188-.282c13.314-.336 16.312-2.31 16.312-10.739 0-8.319-2.689-9.979-16.166-9.979H551.5v-15l14.718-.5c17.458-.593 17.926-.843 18.583-9.929.406-5.607.239-6.185-2.607-9.031l-3.04-3.04-21.827.079c-12.005.043-22.502.326-23.327.627m64.077 1.883L595 789.178v80.976l2.923 2.923c4.253 4.253 12.554 4.255 17.311.005l3.266-2.918V788.827l-2.806-2.414c-4.139-3.56-13.286-3.469-17.617.176m36.846.334c-1.793 1.793-2.923 3.971-2.923 5.634 0 4.928 25.062 78.596 27.603 81.137 4.217 4.217 17.852 2.567 19.885-2.407 1.064-2.604 7.504-21.301 17.098-49.638 7.916-23.38 9.288-29.208 7.793-33.104-1.814-4.727-14.296-6.245-18.878-2.295-2.334 2.012-12.766 32.414-16.212 47.25l-.697 3-.669-3.5c-2.247-11.761-13.16-44.652-15.512-46.75-4.05-3.612-13.569-3.246-17.488.673m86.097-1.639c-4.969 2.515-5.057 3.349-4.779 45.549l.259 39.333 3.266 2.917 3.266 2.917h22.533c25.869 0 27.576-.399 29.526-6.909 1.484-4.955.518-10.17-2.391-12.903-2.076-1.95-3.548-2.156-17.235-2.41L740.5 853.5l-.295-6.146-.295-6.146 12.632-.354c15.219-.427 17.458-1.836 17.458-10.987 0-9.037-3.018-10.867-17.923-10.867H740v-11.748l14.25-.441c18.746-.58 20.981-1.876 20.981-12.163 0-4.399-.405-5.415-3.131-7.85L768.968 784l-22.734.015c-16.225.01-23.444.374-25.214 1.269m-217.401 45.74c-10.211 3.094-11.473 17.97-1.91 22.508 6.749 3.203 14.541.033 17.22-7.005 3.52-9.249-5.57-18.454-15.31-15.503" fill-rule="evenodd"/><path fill="#449ac1" stroke="#449ac1" d="M474 167.903c-9.368 1.997-18.41 10.348-20.923 19.322-1.69 6.036-.076 105.176 1.742 106.994.908.908 1.181.817 1.181-.397 0-2.786 2.664-4.205 3.995-2.127 1.064 1.661 1.1 1.645.461-.195-.93-2.679-.853-3.342.927-8 .841-2.2 1.549-3.19 1.573-2.2.024.989-.629 3.101-1.452 4.693-.823 1.591-1.111 3.132-.64 3.423.973.602 1.181.145 11.994-26.416a7844.976 7844.976 0 0 1 17.704-43c11.656-28.051 12.629-33.204 7.903-41.887-1.513-2.78-3.137-4.816-3.608-4.525-.471.292-.857.063-.857-.509 0-3.189-13.245-6.617-20-5.176m79.179 7.165c-9.213 4.604-9.911 5.868-25.643 46.432-10.633 27.414-10.63 27.408-30.742 78.5-7.685 19.525-14.791 37.75-15.79 40.5-.999 2.75-7.076 18.5-13.505 35-14.952 38.378-17.634 45.799-20.959 58-7.404 27.172-13.608 41.626-23.364 54.428-11.694 15.346-28.814 26.034-43.017 26.857-15.424.893-20.256-3.757-27.319-26.285-8.794-28.052-19.364-43.788-37.235-55.431-26.959-17.565-57.71-8.065-56.422 17.431.33 6.533.999 8.3 10.039 26.5 6.163 12.407 11.673 25.32 15.149 35.5 8.643 25.312 21.991 60.235 31.151 81.5 1.303 3.025 4.911 11.575 8.018 19 26.818 64.092 55.818 122.228 60.144 120.568.814-.313 3.625-.568 6.248-.568h4.769l-1.37-7.25c-4.071-21.549-2.511-55.364 3.725-80.746 21.256-86.517 96.57-149.6 176.468-147.808 11.718.262 13.513.098 13.076-1.196a843.086 843.086 0 0 0-2.644-7.484c-1.609-4.504-2.138-8.315-2.138-15.412 0-5.185-.296-8.972-.659-8.416-1.27 1.952-5.119 3.338-10.957 3.949-19.542 2.042-34.673-20.054-28.583-41.741.834-2.968 1.764-6.296 2.067-7.396.316-1.145-1.468.258-4.175 3.285-9.123 10.199-18.726 12.235-25.546 5.416-7.527-7.528-7.658-6.903 11.562-55.201 13.113-32.952 18.886-47.582 36.503-92.5 4.314-11 12.641-32.15 18.505-47 12.391-31.381 13.51-36.875 9.444-46.328-5.986-13.914-22.384-19.307-36.8-12.104M399.89 204.47c-9.675 3.56-20.688 14.811-18.293 18.687.403.652.276.882-.293.531-1.998-1.235-3.804 7.7-3.804 18.812 0 10.916 1.307 40.419 1.983 44.745.193 1.24.626 10.58.962 20.755.335 10.175 1.289 36.05 2.118 57.5.83 21.45 1.85 50.025 2.267 63.5.649 20.984 1.014 24.886 2.538 27.187 2.32 3.504 6.883 4.534 10.266 2.317 2.891-1.894 6.816-9.888 5.956-12.129-.312-.813-.208-1.257.23-.986.643.397 8.382-18.618 15.624-38.389 1.013-2.764 1.121-11.915.515-43.5-.423-22-1.041-58.45-1.375-81-.333-22.55-.886-49.662-1.228-60.25l-.621-19.25-6.618.07c-3.639.039-8.242.669-10.227 1.4m236.178 16.931c.29.29 2.98.733 5.979.984s6.353.751 7.453 1.111c1.852.606 1.866.569.187-.505-1.767-1.131-14.666-2.637-13.619-1.59m-4.568 1.364c-.55.404-1.119 1.41-1.264 2.235-.223 1.263-.066 1.25 1-.088.695-.873 1.939-1.85 2.764-2.171 1.333-.518 1.333-.59 0-.647-.825-.035-1.95.267-2.5.671m21.726 2.814c.95.991 1.942 1.587 2.205 1.324.263-.263-.514-1.074-1.726-1.803-2.107-1.265-2.128-1.243-.479.479m4.533 2.513c.673.876.992 1.824.708 2.108-.283.283.096 1.022.842 1.642 1.039.862 1.358.779 1.358-.354 0-.814-.93-2.269-2.066-3.234-1.544-1.31-1.757-1.351-.842-.162m2.32 37.491c.048 1.165.285 1.402.604.605.289-.722.253-1.585-.079-1.917-.332-.332-.568.258-.525 1.312m-1.765 4.167c-.342.962-.848 2.157-1.123 2.655-.275.497-.035.617.534.265 1.042-.644 2.464-4.67 1.65-4.67-.241 0-.718.788-1.061 1.75m-5 12c-.342.962-.848 2.157-1.123 2.655-.275.497-.035.617.534.265 1.042-.644 2.464-4.67 1.65-4.67-.241 0-.718.788-1.061 1.75M331.5 284.382c-2.213.705-3.877 1.83-3.725 2.52.151.686-.213.946-.808.578-1.709-1.056-8.543 4.037-11.725 8.738-7.452 11.007-8.166 18.196-5.841 58.782 2.257 39.399 1.692 36.491 7.393 38.06 6.618 1.823 18.701 7.616 22.556 10.815.859.714 2.043 1 2.631.637.588-.363.945-.231.794.294-.151.526 1.923 2.9 4.609 5.278l4.884 4.322-.618-9.453c-.58-8.863-1.135-21.746-4.002-92.953l-1.148-28.5-5.5-.195c-3.025-.107-7.3.377-9.5 1.077m126 1.618c-.34.55-.141 1 .441 1s1.059-.45 1.059-1-.198-1-.441-1-.719.45-1.059 1m192.195 4.513c-.914 1.918-1.456 3.487-1.205 3.487.685 0 3.72-6.123 3.263-6.58-.217-.217-1.143 1.174-2.058 3.093m-192.121 2.154c-.352.917-.287 2.019.143 2.449.431.43.848-.32.927-1.667.169-2.861-.175-3.112-1.07-.782m189.05 4.872c-.965 2.514-.681 3.163.498 1.136.584-1.004.851-2.036.593-2.293-.257-.258-.749.263-1.091 1.157m-191.863 4.931c-.26 1.358-.141 2.265.263 2.015 1.075-.664 1.926-4.485.999-4.485-.434 0-1.002 1.111-1.262 2.47m189.698-.403c-.363.586-.445 1.281-.183 1.543s.743-.218 1.069-1.067c.676-1.762.1-2.072-.886-.476m46.717 7.443c.858.858 9.824 1.106 9.824.272 0-.43-2.325-.782-5.167-.782-2.841 0-4.937.229-4.657.51M686 311c-1.828 1.181-.249 1.181 2.5 0 1.319-.567 1.489-.878.5-.914-.825-.031-2.175.381-3 .914m16.906.058c-1.034.639-.882.822.607.726 1.093-.07 3 .206 4.237.612 3.31 1.087 2.745-.028-.606-1.196-1.622-.565-3.454-.627-4.238-.142m-20.886 2.418c-.789.95-.865 1.524-.201 1.524 1.208 0 2.617-1.897 1.924-2.591-.252-.251-1.027.229-1.723 1.067m29.713 1.648c.679.684 1.486.991 1.793.683.308-.308-.247-.867-1.233-1.243-1.425-.542-1.54-.428-.56.56m-34.328 2.126-1.905 2.25 2.25-1.905c2.114-1.79 2.705-2.595 1.905-2.595-.19 0-1.202 1.012-2.25 2.25m-38.946-.183c-.363.586-.445 1.281-.183 1.543s.743-.218 1.069-1.067c.676-1.762.1-2.072-.886-.476M715 320.059c0 .582.45.781 1 .441s1-.816 1-1.059-.45-.441-1-.441-1 .477-1 1.059m-84.541 17.008c-.363.586-.445 1.281-.183 1.543s.743-.218 1.069-1.067c.676-1.762.1-2.072-.886-.476m-12.835 31.472c-.965 2.514-.681 3.163.498 1.136.584-1.004.851-2.036.593-2.293-.257-.258-.749.263-1.091 1.157m91.69 1.211c-.342.962-.848 2.157-1.123 2.655-.275.497-.035.617.534.265 1.042-.644 2.464-4.67 1.65-4.67-.241 0-.718.788-1.061 1.75m-94.855 7.317c-.363.586-.445 1.281-.183 1.543s.743-.218 1.069-1.067c.676-1.762.1-2.072-.886-.476m91.62.601c-.043.643-.338 1.993-.655 3-.547 1.741-.518 1.744.571.044.631-.983.925-2.333.655-3-.355-.875-.514-.887-.571-.044m-3.455 8.871c-.965 2.514-.681 3.163.498 1.136.584-1.004.851-2.036.593-2.293-.257-.258-.749.263-1.091 1.157m-93.06 2.168c-.542 1.425-.428 1.54.56.56.684-.679.991-1.486.683-1.793-.308-.308-.867.247-1.243 1.233m89.65 5.947c-1.228 4.002-.278 3.457 1.575-.904.642-1.512.803-2.75.357-2.75-.446 0-1.315 1.644-1.932 3.654m-97.59 13.885c-.965 2.514-.681 3.163.498 1.136.584-1.004.851-2.036.593-2.293-.257-.258-.749.263-1.091 1.157m91.835.528c-.363.586-.445 1.281-.183 1.543s.743-.218 1.069-1.067c.676-1.762.1-2.072-.886-.476m-4.835 11.472c-.965 2.514-.681 3.163.498 1.136.584-1.004.851-2.036.593-2.293-.257-.258-.749.263-1.091 1.157m-2 5c-.965 2.514-.681 3.163.498 1.136.584-1.004.851-2.036.593-2.293-.257-.258-.749.263-1.091 1.157m-93.06 3.168c-.542 1.425-.428 1.54.56.56.684-.679.991-1.486.683-1.793-.308-.308-.867.247-1.243 1.233M684 430.5c0 .825.177 1.5.393 1.5.216 0 .652-.675.969-1.5.316-.825.139-1.5-.393-1.5-.533 0-.969.675-.969 1.5m-1.376 5.039c-.965 2.514-.681 3.163.498 1.136.584-1.004.851-2.036.593-2.293-.257-.258-.749.263-1.091 1.157m-1.957 4.128c-.367.366-.667 1.131-.667 1.7 0 .626.466.567 1.183-.15.651-.651.951-1.416.667-1.7-.284-.284-.817-.217-1.183.15m-92.72 2.972c-.552 1.451-.817 2.824-.591 3.051.227.227.891-.961 1.476-2.639 1.301-3.73.516-4.096-.885-.412m90.398 2.904c-.326.849-.369 1.767-.096 2.04.274.273.737-.422 1.03-1.543.624-2.383-.069-2.751-.934-.497m-92.721 2.996c-.965 2.514-.681 3.163.498 1.136.584-1.004.851-2.036.593-2.293-.257-.258-.749.263-1.091 1.157m-184.545 2.044c.048 1.165.285 1.402.604.605.289-.722.253-1.585-.079-1.917-.332-.332-.568.258-.525 1.312m180.588 8.084c-.367.366-.653 1.379-.637 2.25.025 1.3.221 1.257 1.092-.242 1.077-1.852.765-3.228-.455-2.008m86.678 10.876c-.326.849-.369 1.767-.096 2.04.274.273.737-.422 1.03-1.543.624-2.383-.069-2.751-.934-.497m-5.886 14.524c-.363.586-.445 1.281-.183 1.543s.743-.218 1.069-1.067c.676-1.762.1-2.072-.886-.476m-2.895 7.64c-.542 1.425-.428 1.54.56.56.684-.679.991-1.486.683-1.793-.308-.308-.867.247-1.243 1.233m-2.402 5.836c-1.675 3.677-1.355 4.462.456 1.119.846-1.562 1.351-3.026 1.123-3.255-.229-.228-.939.733-1.579 2.136m-4.46 10.124c.282.733.641 1.333.798 1.333.157 0 .516-.6.798-1.333.281-.734-.078-1.334-.798-1.334-.72 0-1.079.6-.798 1.334m-3.035 8c-.367.366-.667 1.131-.667 1.7 0 .626.466.567 1.183-.15.651-.651.951-1.416.667-1.7-.284-.285-.817-.217-1.183.15m-3.208 8.4c-.363.586-.445 1.281-.183 1.543s.743-.218 1.069-1.067c.676-1.762.1-2.072-.886-.476m-2.895 7.64c-.542 1.425-.428 1.54.56.56.684-.679.991-1.486.683-1.793-.308-.308-.867.247-1.243 1.233m-70.314 4.009c1.513.229 3.987.229 5.5 0s.275-.416-2.75-.416-4.263.187-2.75.416m67.912 1.827c-1.675 3.677-1.355 4.462.456 1.119.846-1.562 1.351-3.026 1.123-3.255-.229-.228-.939.733-1.579 2.136m-80.662-.066c-3.079.792-4.04 1.314-2.5 1.36 1.375.041 4.75-.55 7.5-1.314 6.304-1.75 1.792-1.792-5-.046m-7.687 2.206c.721.289 1.584.253 1.916-.079.332-.332-.258-.568-1.312-.525-1.165.048-1.402.285-.604.604M528.5 548c-2.2 1.018-3.648 1.885-3.218 1.926 1.184.112 7.718-2.745 7.718-3.375 0-.677.307-.776-4.5 1.449m107.289 3.526a103.19 103.19 0 0 1-1.239 3.974c-.373 1.1.055.736.95-.81.895-1.545 1.452-3.334 1.239-3.974-.214-.641-.641-.276-.95.81m-2.71 7.142c-.043.643-.338 1.993-.655 3-.547 1.741-.518 1.744.571.044.631-.983.925-2.333.655-3-.355-.875-.514-.887-.571-.044m-4.993 10.832c.104 1.894 1.77 5.084 1.828 3.5.031-.825-.381-2.175-.914-3-.533-.825-.945-1.05-.914-.5m-1.462 10.039c-.965 2.514-.681 3.163.498 1.136.584-1.004.851-2.036.593-2.293-.257-.258-.749.263-1.091 1.157m-1.545 6.129c-.043.643-.338 1.993-.655 3-.547 1.741-.518 1.744.571.044.631-.983.925-2.333.655-3-.355-.875-.514-.887-.571-.044m-5 22.915c.048 1.165.285 1.402.604.605.289-.722.253-1.585-.079-1.917-.332-.332-.568.258-.525 1.312m-.847 5.417c0 1.925.206 2.712.457 1.75.252-.962.252-2.538 0-3.5-.251-.962-.457-.175-.457 1.75m-2.153 10.583c.048 1.165.285 1.402.604.605.289-.722.253-1.585-.079-1.917-.332-.332-.568.258-.525 1.312m-2.884 33.917c.02 1.65.244 2.204.498 1.231.254-.973.237-2.323-.037-3-.274-.677-.481.119-.461 1.769M438 731c0 .55.477 1 1.059 1s.781-.45.441-1-.816-1-1.059-1-.441.45-.441 1m-217.144 54.516c-1.454.79-3.142 2.865-3.75 4.61-1.464 4.199-1.511 73.874-.054 79.122 2.131 7.672 14.444 9.389 20.927 2.918 1.192-1.189 1.591-4.725 1.843-16.342l.322-14.824h19.584l.636 4.64c.35 2.551.636 9.111.636 14.576 0 9.651.085 10.022 2.923 12.861 4.742 4.741 16.071 3.539 19.047-2.022.657-1.227 1.03-16.394 1.03-41.9v-39.977l-3.077-2.589c-5.067-4.264-17.394-3.015-19.302 1.956-.341.89-.627 7.094-.635 13.787-.02 17.752.698 16.668-11.031 16.668h-9.811l-.322-15.089-.322-15.089-2.806-2.411c-3.295-2.831-11.427-3.291-15.838-.895m83.067 1.407L301 789.846v80.308l3.04 3.04c4.121 4.121 13.377 3.843 17.754-.533l2.706-2.704.314-37.729c.345-41.388.055-44.21-4.803-46.722-5.131-2.654-12.682-1.988-16.088 1.417m62.577-1.524c-6.299 1.992-9.839 4.145-15.846 9.634-24.399 22.3-18.555 63.034 11.149 77.714 13.107 6.478 33.698 4.598 41.763-3.813l2.934-3.06.31-18.854.31-18.855-2.879-3.221c-3.292-3.685-11.741-4.873-24.742-3.481-8.95.959-10.699 2.697-10.297 10.234.374 7.028 2.832 9.255 10.575 9.582l5.222.221.001 6.37v6.37l-5.989-.433c-19.637-1.42-27.505-28.243-12.302-41.936 6.825-6.147 13.914-7.186 21.669-3.175 10.104 5.224 20.566-5.548 14.348-14.774-5.943-8.819-22.772-12.778-36.226-8.523m58.61-.003c-4.949 2.743-5.037 3.497-5.075 43.789-.036 38.375.161 40.616 3.908 44.565 3.954 4.167 16.29 2.42 19.027-2.695.567-1.058 1.03-8.253 1.03-15.989V841h20l.006 12.25c.006 14.856 1.026 19.198 4.991 21.248 3.455 1.787 10.273 1.963 13.298.344 5.396-2.888 5.184-1.163 5.488-44.564l.282-40.367-2.955-2.955c-3.288-3.288-8.911-3.967-15.068-1.821-4.949 1.725-6.042 5.495-6.042 20.833V819h-20v-29.154l-2.923-2.923c-3.304-3.304-11.37-4.076-15.967-1.527m109.16-.693c-6.207 1.199-6.27 1.657-6.27 45.509v39.942l2.923 2.923c4.742 4.741 16.071 3.539 19.047-2.022.567-1.058 1.03-8.028 1.03-15.489V842h11.077c13.594 0 16.923-2.059 16.923-10.469 0-8.113-2.448-9.531-16.455-9.531H551v-16h13.453c15.006 0 17.931-.793 19.497-5.287 2.313-6.633.748-12.784-3.857-15.165-2.873-1.486-39.053-2.153-45.823-.845m66.73.003c-.825.302-2.513 1.47-3.75 2.596l-2.25 2.047v80.805l2.923 2.923c5.454 5.454 18.25 2.863 20.185-4.088 1.208-4.339 1.013-75.344-.216-78.87-1.741-4.992-10.428-7.776-16.892-5.413m35.345 1.225c-6.262 3.818-6.531 2.569 13.17 61.148 10.076 29.963 9.39 28.921 19.051 28.921 9.587 0 9.615-.049 23.947-42.405C699.729 812.269 705 795.104 705 792.934c0-5.582-4.323-8.934-11.521-8.934-7.99 0-9.678 1.965-13.958 16.25C668.606 836.675 668 838.483 668 834.597c0-1.858-10.006-36.268-12.606-43.349-.858-2.338-2.523-4.926-3.7-5.75-3.078-2.156-11.492-1.919-15.349.433m84.97-.95c-4.159 1.726-4.648 4.4-4.939 27.019-.495 38.385.521 57.769 3.191 60.873l2.26 2.627h48.128l2.737-2.737c4.03-4.031 4.012-12.9-.033-16.38-2.652-2.281-3.412-2.383-17.715-2.383H740v-14h12.5c15.746 0 18.848-2.305 17.154-12.745-1.102-6.79-3.059-7.711-17.179-8.087L740 818.837V806h14.864c14.726 0 14.888-.024 17.5-2.636 3.672-3.673 3.787-11.913.224-16.058l-2.412-2.806-23.338-.213c-12.836-.117-24.321.195-25.523.694m-221.656 48.073c-7.782 6.121-4.318 19.647 5.494 21.458 10.301 1.901 18.071-10.136 12.264-18.998-3.228-4.927-12.916-6.269-17.758-2.46" fill-rule="evenodd"/><path fill="#1d4153" stroke="#1d4153" d="M555.285 174.048c-3.37 1.335-6.614 3.655-9.169 6.558-4.217 4.79-4.194 4.736-28.557 67.2-6.931 17.768-16.012 40.943-20.18 51.5A4523.131 4523.131 0 0 0 483.48 335c-3.475 9.075-10.447 27.075-15.493 40-14.048 35.983-17.832 46.462-21.112 58.458-9.545 34.91-17.839 51.118-33.452 65.37C401.498 509.713 389.912 515 377.985 515c-14.02 0-18.51-4.715-25.534-26.814-2.565-8.069-6.146-17.671-7.958-21.337-18.328-37.085-57.931-54.541-78.064-34.408-10.27 10.27-10.071 18.286.987 39.767 8.314 16.151 11.05 22.635 18.055 42.792 23.459 67.499 73.395 182.077 91.85 210.75l4.666 7.25h12.285l-.63-4.25c-.346-2.337-1.073-7.175-1.615-10.75-1.534-10.107-1.237-38.81.527-50.872 12.366-84.577 71.385-151.375 147.602-167.057 13.696-2.818 30.21-4.402 38.955-3.735l7.61.58-2.518-6.708c-1.926-5.132-2.539-8.727-2.61-15.3l-.093-8.591-3.218 1.341c-22.061 9.198-45.491-17.975-36.782-42.658.825-2.338 1.5-4.468 1.5-4.733 0-.266-2.71 2.026-6.022 5.093-9.269 8.581-17.63 9.436-24.138 2.468-5.339-5.715-4.988-10.815 1.949-28.328 18.291-46.177 51.564-130.537 70.796-179.5 7.939-20.211 8.224-28.442 1.314-37.981-6.51-8.987-20.284-12.46-31.614-7.971M221.523 785.507c-4.584 2.479-4.491 1.57-4.508 44.32L217 870.154l3.043 3.043c2.815 2.815 3.459 3.009 8.565 2.586 9.627-.799 10.56-2.527 10.742-19.905l.15-14.378 10.75-.284 10.75-.284v14.1c0 15.186.5 17.141 4.98 19.458 5.189 2.683 11.386 1.727 15.77-2.433l2.25-2.135v-79.81l-2.413-2.806c-3.395-3.947-13.973-4.171-18.006-.382-2.549 2.395-2.581 2.606-2.581 17.25V819h-10.433c-12.381 0-11.324 1.562-11.509-17-.118-11.823-.37-13.738-2.037-15.413-2.617-2.631-11.486-3.249-15.498-1.08m84.252-.006c-1.499.845-3.186 2.399-3.75 3.452-1.333 2.492-1.396 77.94-.068 81.434 2.099 5.521 11.836 7.367 17.733 3.363 4.482-3.044 4.22-.472 4.532-44.475l.278-39.226-2.685-2.687c-3.335-3.337-11.699-4.308-16.04-1.861m59.73.57c-11.397 4.027-19.057 11.199-25.169 23.563-3.836 7.758-3.836 7.76-3.836 20.385v12.625l4.248 8.576c10.84 21.885 35.448 31.162 56.77 21.4 8.26-3.781 8.414-4.25 8.646-26.407.266-25.331 1.115-24.213-18.384-24.213-16.448 0-18.799 1.154-18.758 9.205.035 6.708 2.45 9.057 9.867 9.593l6.111.442V854h-5.04c-19.551 0-29.063-26.612-14.735-41.229 6.71-6.846 14.404-8.532 21.775-4.771 8.393 4.282 19.591-1.526 17.673-9.166-3.094-12.328-22.501-18.652-39.168-12.763m60.995-1.126c-5.995 2.454-5.898 1.795-6.335 42.874-.438 41.189-.219 43.134 5.268 46.729 4.233 2.774 12.204 1.542 15.758-2.435 2.796-3.13 2.809-3.211 2.809-17.164V840.93l10.225.285 10.225.285.325 13.5c.179 7.425.795 14.708 1.37 16.185 1.757 4.52 10.154 6.263 15.888 3.298 5.915-3.059 5.969-3.495 5.706-46.385l-.239-39.043-2.28-2.278c-3.133-3.129-12.821-3.209-16.943-.14-2.869 2.136-3.627 7.179-4.154 27.613L464 819h-20v-14.066c0-7.736-.463-14.931-1.03-15.989-2.201-4.113-10.983-6.245-16.47-4m111.658-.04c-10.717 1.02-10.158-1.408-10.158 44.141 0 22.3.407 39.895.957 41.341 1.934 5.086 11.909 7.404 17.07 3.967 4.743-3.158 4.973-4.016 4.973-18.545V842h9.953c13.555 0 18.047-2.617 18.047-10.516 0-7.559-3.288-9.414-16.75-9.452L551 822v-16h13.889c16.033 0 17.566-.629 19.196-7.881 1.196-5.326-.103-10.022-3.333-12.047-2.459-1.541-30.565-2.311-42.594-1.167m62.084.589c-1.811.787-3.698 2.575-4.25 4.026-1.297 3.412-1.329 77.463-.035 80.867 2.639 6.94 17.405 7.41 21.013.668.657-1.227 1.03-16.394 1.03-41.9v-39.977l-3.077-2.589c-3.545-2.984-9.341-3.416-14.681-1.095m37.258-.339c-6.679 3.653-6.259 6.224 7.98 48.922C659.226 875.297 659.589 876 667.088 876c5.057 0 10.428-2.227 11.871-4.923 3.015-5.634 26.041-74.801 26.041-78.224 0-5.462-5.751-9.367-12.651-8.589-8.019.904-8.167 1.156-15.784 26.846-7.095 23.928-8.478 27.918-8.535 24.617-.031-1.81-4.447-17.324-10.669-37.481-3.014-9.763-3.858-11.451-6.368-12.75-3.363-1.739-10.603-1.922-13.493-.341m86-.473c-1.1.285-3.013 1.451-4.25 2.592l-2.25 2.075v39.891c0 26.663.358 40.561 1.08 41.91 2.161 4.038 6.652 4.852 26.638 4.826 26.968-.034 30.282-1.238 30.282-11.005 0-9.95-1.95-10.971-20.95-10.971H740v-14h12.326c13.982 0 16.158-1.047 17.342-8.34 1.519-9.361-2.547-12.16-17.668-12.16h-11.5l-.296-6.75-.295-6.75H769.154l2.923-2.923c3.94-3.94 4.185-11.497.511-15.771l-2.411-2.806-22.339-.168c-12.286-.092-23.238.065-24.338.35m-222.07 47.283c-6.054 2.45-7.575 14.044-2.507 19.112 4.465 4.464 11.95 4.25 16.677-.477 9.513-9.513-1.364-23.818-14.17-18.635" fill-rule="evenodd"/></svg>